<svg width="1206" height="1263" viewBox="0 0 1206 1263" fill="none" xmlns="http://www.w3.org/2000/svg">
<path d="M1172 8H34C17.4315 8 4 33.2067 4 64.3008V1199.7C4 1230.79 17.4315 1256 34 1256H1172C1188.57 1256 1202 1230.79 1202 1199.7V64.3008C1202 33.2067 1188.57 8 1172 8Z" fill="#800080" fill-opacity="0.1"/>
<path fill-rule="evenodd" clip-rule="evenodd" d="M4 58.658C4 30.6804 16.0883 8 31 8H1063.29C1069.61 8 1075.73 12.1572 1080.58 19.748L1192.29 194.482C1198.44 204.107 1202 218.36 1202 233.393V1204.34C1202 1232.32 1189.91 1255 1175 1255H5C4.44775 1255 4 1254.16 4 1253.12V58.658Z" fill="#800080" fill-opacity="0.25"/>
<path d="M1063.29 15.0216H31V0H1063.29V15.0216ZM1189.73 199.907L1078.02 25.0369L1083.14 13.499L1194.85 188.37L1189.73 199.907ZM1198 1204.79V233.08H1206V1204.79H1198ZM5 1247.98H1175V1263H5V1247.98ZM8 1253.61C8 1250.5 6.65673 1247.98 5 1247.98V1263C2.23877 1263 0 1258.8 0 1253.61H8ZM8 58.2086V1253.61H0V58.2086H8ZM1206 1204.79C1206 1236.94 1192.12 1263 1175 1263V1247.98C1187.7 1247.98 1198 1228.64 1198 1204.79H1206ZM1194.85 188.37C1201.92 199.43 1206 215.809 1206 233.08H1198C1198 220.265 1194.97 208.113 1189.73 199.907L1194.85 188.37ZM31 15.0216C18.2975 15.0216 8 34.3571 8 58.2086H0C0 26.0609 13.8792 0 31 0V15.0216ZM1063.29 0C1070.54 0 1077.57 4.77686 1083.14 13.499L1078.02 25.0369C1073.88 18.5657 1068.67 15.0216 1063.29 15.0216V0Z" fill="url(#paint0_linear_0_1)"/>
<defs>
<linearGradient id="paint0_linear_0_1" x1="3.99998" y1="510.091" x2="1193.42" y2="353.493" gradientUnits="userSpaceOnUse">
<stop stop-color="#A050B6" stop-opacity="0.6"/>
<stop offset="1" stop-color="#B838FF"/>
</linearGradient>
</defs>
</svg>
