<svg width="10" height="1113" viewBox="0 0 10 1113" fill="none" xmlns="http://www.w3.org/2000/svg">
<path d="M3.33325 325.756L3.33325 190.024V190.024C7.01515 190.024 9.99992 193.009 9.99992 196.691L9.99992 319.089C9.99992 322.771 7.01515 325.756 3.33325 325.756V325.756Z" fill="url(#paint0_linear_0_1)" fill-opacity="0.6"/>
<rect x="3.33325" y="95.0122" width="3.33333" height="95.0122" fill="url(#paint1_linear_0_1)" fill-opacity="0.6"/>
<rect width="3.33333" height="95.0122" transform="matrix(1 0 0 -1 3.33325 95.0122)" fill="url(#paint2_linear_0_1)" fill-opacity="0.6"/>
<path d="M3.33325 787.244L3.33325 651.512V651.512C7.01515 651.512 9.99992 654.497 9.99992 658.179L9.99992 780.577C9.99992 784.259 7.01515 787.244 3.33325 787.244V787.244Z" fill="url(#paint3_linear_0_1)" fill-opacity="0.6"/>
<rect x="3.33325" y="556.5" width="3.33333" height="95.0122" fill="url(#paint4_linear_0_1)" fill-opacity="0.6"/>
<path d="M6.66675 556.5L6.66675 420.768V420.768C2.98485 420.768 8.10623e-05 423.753 8.10623e-05 427.435L8.10623e-05 549.833C8.10623e-05 553.515 2.98485 556.5 6.66675 556.5V556.5Z" fill="url(#paint5_linear_0_1)" fill-opacity="0.6"/>
<rect width="3.33333" height="95.0122" transform="matrix(-1 0 0 1 6.66675 325.756)" fill="url(#paint6_linear_0_1)" fill-opacity="0.6"/>
<path d="M3.33325 325.756L3.33325 190.024V190.024C7.01515 190.024 9.99992 193.009 9.99992 196.691L9.99992 319.089C9.99992 322.771 7.01515 325.756 3.33325 325.756V325.756Z" fill="url(#paint7_linear_0_1)" fill-opacity="0.6"/>
<rect x="3.33325" y="95.0122" width="3.33333" height="95.0122" fill="url(#paint8_linear_0_1)" fill-opacity="0.6"/>
<rect width="3.33333" height="95.0122" transform="matrix(1 0 0 -1 3.33325 95.0122)" fill="url(#paint9_linear_0_1)" fill-opacity="0.6"/>
<path d="M3.33325 787.244L3.33325 651.512V651.512C7.01515 651.512 9.99992 654.497 9.99992 658.179L9.99992 780.577C9.99992 784.259 7.01515 787.244 3.33325 787.244V787.244Z" fill="url(#paint10_linear_0_1)" fill-opacity="0.6"/>
<rect x="3.33325" y="556.5" width="3.33333" height="95.0122" fill="url(#paint11_linear_0_1)" fill-opacity="0.6"/>
<path d="M6.66675 556.5L6.66675 420.768V420.768C2.98485 420.768 8.10623e-05 423.753 8.10623e-05 427.435L8.10623e-05 549.833C8.10623e-05 553.515 2.98485 556.5 6.66675 556.5V556.5Z" fill="url(#paint12_linear_0_1)" fill-opacity="0.6"/>
<rect width="3.33333" height="95.0122" transform="matrix(-1 0 0 1 6.66675 325.756)" fill="url(#paint13_linear_0_1)" fill-opacity="0.6"/>
<path d="M6.66675 1017.99L6.66675 882.256V882.256C2.98485 882.256 8.10623e-05 885.241 8.10623e-05 888.923L8.10623e-05 1011.32C8.10623e-05 1015 2.98485 1017.99 6.66675 1017.99V1017.99Z" fill="#8F0A52" fill-opacity="0.6"/>
<rect width="3.33333" height="95.0122" transform="matrix(-1 0 0 1 6.66675 787.244)" fill="url(#paint14_linear_0_1)" fill-opacity="0.6"/>
<rect width="3.33333" height="95.0122" transform="matrix(-1 0 0 1 6.66675 787.244)" fill="url(#paint15_linear_0_1)" fill-opacity="0.6"/>
<rect width="3.33333" height="95.0122" transform="matrix(-1 0 0 1 6.66675 1017.99)" fill="url(#paint16_linear_0_1)" fill-opacity="0.6"/>
<rect width="3.33333" height="95.0122" transform="matrix(-1 0 0 1 6.66675 1017.99)" fill="url(#paint17_linear_0_1)" fill-opacity="0.6"/>
<path d="M3.33325 325.756L3.33325 190.024V190.024C7.01515 190.024 9.99992 193.009 9.99992 196.691L9.99992 319.089C9.99992 322.771 7.01515 325.756 3.33325 325.756V325.756Z" fill="url(#paint18_linear_0_1)" fill-opacity="0.6"/>
<rect x="3.33325" y="95.0122" width="3.33333" height="95.0122" fill="url(#paint19_linear_0_1)" fill-opacity="0.6"/>
<rect width="3.33333" height="95.0122" transform="matrix(1 0 0 -1 3.33325 95.0122)" fill="url(#paint20_linear_0_1)" fill-opacity="0.6"/>
<path d="M3.33325 787.244L3.33325 651.512V651.512C7.01515 651.512 9.99992 654.497 9.99992 658.179L9.99992 780.577C9.99992 784.259 7.01515 787.244 3.33325 787.244V787.244Z" fill="url(#paint21_linear_0_1)" fill-opacity="0.6"/>
<rect x="3.33325" y="556.5" width="3.33333" height="95.0122" fill="url(#paint22_linear_0_1)" fill-opacity="0.6"/>
<path d="M6.66675 556.5L6.66675 420.768V420.768C2.98485 420.768 8.10623e-05 423.753 8.10623e-05 427.435L8.10623e-05 549.833C8.10623e-05 553.515 2.98485 556.5 6.66675 556.5V556.5Z" fill="url(#paint23_linear_0_1)" fill-opacity="0.6"/>
<rect width="3.33333" height="95.0122" transform="matrix(-1 0 0 1 6.66675 325.756)" fill="url(#paint24_linear_0_1)" fill-opacity="0.6"/>
<path d="M6.66675 1017.99L6.66675 882.256V882.256C2.98485 882.256 8.10623e-05 885.241 8.10623e-05 888.923L8.10623e-05 1011.32C8.10623e-05 1015 2.98485 1017.99 6.66675 1017.99V1017.99Z" fill="#8F0A52" fill-opacity="0.6"/>
<rect width="3.33333" height="95.0122" transform="matrix(-1 0 0 1 6.66675 787.244)" fill="url(#paint25_linear_0_1)" fill-opacity="0.6"/>
<rect width="3.33333" height="95.0122" transform="matrix(-1 0 0 1 6.66675 787.244)" fill="url(#paint26_linear_0_1)" fill-opacity="0.6"/>
<rect width="3.33333" height="95.0122" transform="matrix(-1 0 0 1 6.66675 1017.99)" fill="url(#paint27_linear_0_1)" fill-opacity="0.6"/>
<rect width="3.33333" height="95.0122" transform="matrix(-1 0 0 1 6.66675 1017.99)" fill="url(#paint28_linear_0_1)" fill-opacity="0.6"/>
<path d="M6.66675 1017.99L6.66675 882.256V882.256C2.98485 882.256 8.10623e-05 885.241 8.10623e-05 888.923L8.10623e-05 1011.32C8.10623e-05 1015 2.98485 1017.99 6.66675 1017.99V1017.99Z" fill="url(#paint29_linear_0_1)" fill-opacity="0.6"/>
<defs>
<linearGradient id="paint0_linear_0_1" x1="6.66659" y1="190.024" x2="6.66659" y2="325.756" gradientUnits="userSpaceOnUse">
<stop stop-color="#8F0A52" stop-opacity="0.6"/>
<stop offset="0.0001" stop-color="#8F0A52"/>
<stop offset="1" stop-color="#731183"/>
</linearGradient>
<linearGradient id="paint1_linear_0_1" x1="4.99992" y1="95.0122" x2="4.99992" y2="190.024" gradientUnits="userSpaceOnUse">
<stop stop-color="#8F0A52" stop-opacity="0.6"/>
<stop offset="0.9999" stop-color="#8F0A52"/>
<stop offset="1" stop-color="#731183"/>
</linearGradient>
<linearGradient id="paint2_linear_0_1" x1="1.66667" y1="0" x2="1.66667" y2="95.0122" gradientUnits="userSpaceOnUse">
<stop stop-color="#8F0A52" stop-opacity="0.6"/>
<stop offset="0.481" stop-color="#8F0A52"/>
<stop offset="1" stop-color="#090909"/>
</linearGradient>
<linearGradient id="paint3_linear_0_1" x1="6.66659" y1="651.512" x2="6.66659" y2="787.244" gradientUnits="userSpaceOnUse">
<stop stop-color="#0C1562"/>
<stop offset="1" stop-color="#8F0A52" stop-opacity="0.6"/>
</linearGradient>
<linearGradient id="paint4_linear_0_1" x1="4.99992" y1="556.5" x2="4.99992" y2="651.512" gradientUnits="userSpaceOnUse">
<stop stop-color="#0C1562" stop-opacity="0.6"/>
<stop offset="1" stop-color="#0C1562"/>
</linearGradient>
<linearGradient id="paint5_linear_0_1" x1="3.33341" y1="420.768" x2="3.33341" y2="556.5" gradientUnits="userSpaceOnUse">
<stop stop-color="#731183" stop-opacity="0.6"/>
<stop offset="1" stop-color="#0C1562"/>
</linearGradient>
<linearGradient id="paint6_linear_0_1" x1="1.66667" y1="95.0122" x2="1.66667" y2="0" gradientUnits="userSpaceOnUse">
<stop stop-color="#731183" stop-opacity="0.6"/>
<stop offset="1" stop-color="#731183"/>
</linearGradient>
<linearGradient id="paint7_linear_0_1" x1="6.66659" y1="190.024" x2="6.66659" y2="325.756" gradientUnits="userSpaceOnUse">
<stop stop-color="#8F0A52" stop-opacity="0.6"/>
<stop offset="0.0001" stop-color="#8F0A52"/>
<stop offset="1" stop-color="#731183"/>
</linearGradient>
<linearGradient id="paint8_linear_0_1" x1="4.99992" y1="95.0122" x2="4.99992" y2="190.024" gradientUnits="userSpaceOnUse">
<stop stop-color="#8F0A52" stop-opacity="0.6"/>
<stop offset="0.9999" stop-color="#8F0A52"/>
<stop offset="1" stop-color="#731183"/>
</linearGradient>
<linearGradient id="paint9_linear_0_1" x1="1.66667" y1="0" x2="1.66667" y2="95.0122" gradientUnits="userSpaceOnUse">
<stop stop-color="#8F0A52" stop-opacity="0.6"/>
<stop offset="0.296" stop-color="#8F0A52"/>
<stop offset="0.721" stop-color="#090909"/>
</linearGradient>
<linearGradient id="paint10_linear_0_1" x1="6.66659" y1="651.512" x2="6.66659" y2="787.244" gradientUnits="userSpaceOnUse">
<stop stop-color="#0C1562"/>
<stop offset="1" stop-color="#8F0A52" stop-opacity="0.6"/>
</linearGradient>
<linearGradient id="paint11_linear_0_1" x1="4.99992" y1="556.5" x2="4.99992" y2="651.512" gradientUnits="userSpaceOnUse">
<stop stop-color="#0C1562" stop-opacity="0.6"/>
<stop offset="1" stop-color="#0C1562"/>
</linearGradient>
<linearGradient id="paint12_linear_0_1" x1="3.33341" y1="420.768" x2="3.33341" y2="556.5" gradientUnits="userSpaceOnUse">
<stop stop-color="#731183" stop-opacity="0.6"/>
<stop offset="1" stop-color="#0C1562"/>
</linearGradient>
<linearGradient id="paint13_linear_0_1" x1="1.66667" y1="95.0122" x2="1.66667" y2="0" gradientUnits="userSpaceOnUse">
<stop stop-color="#731183" stop-opacity="0.6"/>
<stop offset="1" stop-color="#731183"/>
</linearGradient>
<linearGradient id="paint14_linear_0_1" x1="1.66667" y1="95.0122" x2="1.66667" y2="0" gradientUnits="userSpaceOnUse">
<stop stop-color="#8F0A52"/>
<stop offset="1" stop-color="#8F0A52" stop-opacity="0.6"/>
</linearGradient>
<linearGradient id="paint15_linear_0_1" x1="1.66667" y1="95.0122" x2="1.66667" y2="0" gradientUnits="userSpaceOnUse">
<stop stop-color="#8F0A52"/>
<stop offset="1" stop-color="#8F0A52" stop-opacity="0.6"/>
</linearGradient>
<linearGradient id="paint16_linear_0_1" x1="1.66667" y1="95.0122" x2="1.66667" y2="0" gradientUnits="userSpaceOnUse">
<stop stop-color="#8F0A52" stop-opacity="0.6"/>
<stop offset="1" stop-color="#731183"/>
</linearGradient>
<linearGradient id="paint17_linear_0_1" x1="1.66667" y1="95.0122" x2="1.66667" y2="0" gradientUnits="userSpaceOnUse">
<stop stop-color="#8F0A52" stop-opacity="0.6"/>
<stop offset="1" stop-color="#731183"/>
</linearGradient>
<linearGradient id="paint18_linear_0_1" x1="6.66659" y1="190.024" x2="6.66659" y2="325.756" gradientUnits="userSpaceOnUse">
<stop stop-color="#8F0A52" stop-opacity="0.6"/>
<stop offset="0.0001" stop-color="#8F0A52"/>
<stop offset="1" stop-color="#731183"/>
</linearGradient>
<linearGradient id="paint19_linear_0_1" x1="4.99992" y1="95.0122" x2="4.99992" y2="190.024" gradientUnits="userSpaceOnUse">
<stop stop-color="#8F0A52" stop-opacity="0.6"/>
<stop offset="0.9999" stop-color="#8F0A52"/>
<stop offset="1" stop-color="#731183"/>
</linearGradient>
<linearGradient id="paint20_linear_0_1" x1="1.66667" y1="0" x2="1.66667" y2="95.0122" gradientUnits="userSpaceOnUse">
<stop stop-color="#8F0A52" stop-opacity="0.6"/>
<stop offset="0.296" stop-color="#8F0A52"/>
<stop offset="0.721" stop-color="#090909"/>
</linearGradient>
<linearGradient id="paint21_linear_0_1" x1="6.66659" y1="651.512" x2="6.66659" y2="787.244" gradientUnits="userSpaceOnUse">
<stop stop-color="#0C1562"/>
<stop offset="1" stop-color="#8F0A52" stop-opacity="0.6"/>
</linearGradient>
<linearGradient id="paint22_linear_0_1" x1="4.99992" y1="556.5" x2="4.99992" y2="651.512" gradientUnits="userSpaceOnUse">
<stop stop-color="#0C1562" stop-opacity="0.6"/>
<stop offset="1" stop-color="#0C1562"/>
</linearGradient>
<linearGradient id="paint23_linear_0_1" x1="3.33341" y1="420.768" x2="3.33341" y2="556.5" gradientUnits="userSpaceOnUse">
<stop stop-color="#731183" stop-opacity="0.6"/>
<stop offset="1" stop-color="#0C1562"/>
</linearGradient>
<linearGradient id="paint24_linear_0_1" x1="1.66667" y1="95.0122" x2="1.66667" y2="0" gradientUnits="userSpaceOnUse">
<stop stop-color="#731183" stop-opacity="0.6"/>
<stop offset="1" stop-color="#731183"/>
</linearGradient>
<linearGradient id="paint25_linear_0_1" x1="1.66667" y1="95.0122" x2="1.66667" y2="0" gradientUnits="userSpaceOnUse">
<stop stop-color="#8F0A52"/>
<stop offset="1" stop-color="#8F0A52" stop-opacity="0.6"/>
</linearGradient>
<linearGradient id="paint26_linear_0_1" x1="1.66667" y1="95.0122" x2="1.66667" y2="0" gradientUnits="userSpaceOnUse">
<stop stop-color="#8F0A52"/>
<stop offset="1" stop-color="#8F0A52" stop-opacity="0.6"/>
</linearGradient>
<linearGradient id="paint27_linear_0_1" x1="1.66667" y1="95.0122" x2="1.66667" y2="0" gradientUnits="userSpaceOnUse">
<stop stop-color="#8F0A52" stop-opacity="0.6"/>
<stop offset="1" stop-color="#731183"/>
</linearGradient>
<linearGradient id="paint28_linear_0_1" x1="1.66667" y1="95.0122" x2="1.66667" y2="0" gradientUnits="userSpaceOnUse">
<stop offset="0.161" stop-color="#090909"/>
<stop offset="0.501" stop-color="#8F0A52" stop-opacity="0.6"/>
<stop offset="1" stop-color="#731183"/>
</linearGradient>
<linearGradient id="paint29_linear_0_1" x1="3.33341" y1="882.256" x2="3.33341" y2="1017.99" gradientUnits="userSpaceOnUse">
<stop stop-color="#8F0A52" stop-opacity="0.6"/>
<stop offset="0.0001" stop-color="#8F0A52"/>
<stop offset="1" stop-color="#731183"/>
</linearGradient>
</defs>
</svg>
