<svg width="1154" height="2251" viewBox="0 0 1154 2251" fill="none" xmlns="http://www.w3.org/2000/svg">
<path d="M1000.73 1755.04C1040.5 1754.17 1078.99 1769.13 1107.73 1796.64C1136.46 1824.15 1153.1 1861.95 1153.96 1901.73L1141.13 1902.01C1140.33 1865.64 1125.12 1831.07 1098.85 1805.92C1072.57 1780.76 1037.37 1767.08 1001.01 1767.87L1000.73 1755.04Z" fill="#8F0A52" fill-opacity="0.6"/>
<path d="M150 1768C110.218 1768 72.0645 1752.2 43.934 1724.07C15.8036 1695.94 1.78814e-05 1657.78 1.78814e-05 1618H12.84C12.84 1654.38 27.2908 1689.26 53.0133 1714.99C78.7357 1740.71 113.623 1755.16 150 1755.16V1768Z" fill="#0C1562" fill-opacity="0.8"/>
<path d="M0.088702 1306.84C0.765917 1287.16 5.31407 1267.8 13.4735 1249.87C21.6329 1231.94 33.2438 1215.79 47.6432 1202.35C62.0426 1188.91 78.9486 1178.43 97.3958 1171.53C115.843 1164.62 135.47 1161.41 155.157 1162.09L154.716 1174.92C136.714 1174.3 118.767 1177.23 101.899 1183.55C85.0306 1189.87 69.5718 1199.45 56.405 1211.74C43.2381 1224.03 32.6211 1238.79 25.1601 1255.19C17.6992 1271.58 13.5403 1289.28 12.9211 1307.28L0.088702 1306.84Z" fill="#0C1562" fill-opacity="0.8"/>
<path d="M1154 1025C1154 1064.78 1138.2 1102.94 1110.07 1131.07C1081.94 1159.2 1043.78 1175 1004 1175V1162.16C1040.38 1162.16 1075.26 1147.71 1100.99 1121.99C1126.71 1096.26 1141.16 1061.38 1141.16 1025H1154Z" fill="#731183" fill-opacity="0.7"/>
<path d="M1004 579C1043.78 579 1081.94 594.804 1110.07 622.934C1138.2 651.064 1154 689.217 1154 729L1141.16 729C1141.16 692.623 1126.71 657.736 1100.99 632.013C1075.26 606.291 1040.38 591.84 1004 591.84V579Z" fill="#731183"/>
<path d="M150 592C110.218 592 72.0645 576.196 43.934 548.066C15.8036 519.936 1.78814e-05 481.783 1.78814e-05 442H12.84C12.84 478.377 27.2908 513.264 53.0133 538.987C78.7357 564.709 113.623 579.16 150 579.16V592Z" fill="#8F0A52" fill-opacity="0.55"/>
<path d="M-1.26362e-05 150C-1.26362e-05 110.218 15.8035 72.0644 43.934 43.934C72.0644 15.8035 110.217 6.00699e-06 150 0V12.8352C113.622 12.8352 78.7332 27.2865 53.0098 53.0099C27.2865 78.7333 12.8352 113.622 12.8352 150H-1.26362e-05Z" fill="#8F0A52" fill-opacity="0.63"/>
<path d="M150 0H416.5C421.747 0 426 4.25329 426 9.5C426 14.7467 421.747 19 416.5 19H164C156.268 19 150 12.732 150 5V0Z" fill="url(#paint0_linear_0_1)" fill-opacity="0.63"/>
<path d="M150 587C150 579.268 156.268 573 164 573H994C1001.73 573 1008 579.268 1008 587V592H150V587Z" fill="url(#paint1_linear_0_1)"/>
<path d="M150 1763C150 1755.27 156.268 1749 164 1749H990C997.732 1749 1004 1755.27 1004 1763V1768H150V1763Z" fill="url(#paint2_linear_0_1)"/>
<path d="M150 1170C150 1162.27 156.268 1156 164 1156H990C997.732 1156 1004 1162.27 1004 1170V1175H150V1170Z" fill="url(#paint3_linear_0_1)"/>
<path d="M0 442L0 150H5C12.732 150 19 156.268 19 164L19 428C19 435.732 12.732 442 5 442H0Z" fill="#8F0A52" fill-opacity="0.6"/>
<path d="M0 1618L0 1306H5C12.732 1306 19 1312.27 19 1320L19 1604C19 1611.73 12.732 1618 5 1618H0Z" fill="#0C1562" fill-opacity="0.8"/>
<path d="M1149 1026C1141.27 1026 1135 1019.73 1135 1012V738C1135 730.268 1141.27 724 1149 724H1154V1026H1149Z" fill="url(#paint4_linear_0_1)"/>
<path d="M1149 2251C1141.27 2251 1135 2244.73 1135 2237V1913C1135 1905.27 1141.27 1899 1149 1899H1154V2251H1149Z" fill="url(#paint5_linear_0_1)"/>
<defs>
<linearGradient id="paint0_linear_0_1" x1="150" y1="9.5" x2="426" y2="9.5" gradientUnits="userSpaceOnUse">
<stop stop-color="#8F0A52"/>
<stop offset="0.86" stop-color="#8F0A52" stop-opacity="0"/>
</linearGradient>
<linearGradient id="paint1_linear_0_1" x1="150" y1="582.5" x2="1008" y2="582.5" gradientUnits="userSpaceOnUse">
<stop stop-color="#8F0A52" stop-opacity="0.55"/>
<stop offset="0.601" stop-color="#8F0A52"/>
<stop offset="1" stop-color="#731183"/>
</linearGradient>
<linearGradient id="paint2_linear_0_1" x1="150" y1="1758.5" x2="1004" y2="1758.5" gradientUnits="userSpaceOnUse">
<stop stop-color="#0C1562" stop-opacity="0.8"/>
<stop offset="0.46" stop-color="#0C1562"/>
<stop offset="1" stop-color="#8F0A52" stop-opacity="0.55"/>
</linearGradient>
<linearGradient id="paint3_linear_0_1" x1="150" y1="1165.5" x2="1004" y2="1165.5" gradientUnits="userSpaceOnUse">
<stop stop-color="#0C1562" stop-opacity="0.8"/>
<stop offset="0.475" stop-color="#731183"/>
<stop offset="1" stop-color="#731183" stop-opacity="0.7"/>
</linearGradient>
<linearGradient id="paint4_linear_0_1" x1="1144.5" y1="724" x2="1144.5" y2="1026" gradientUnits="userSpaceOnUse">
<stop stop-color="#731183"/>
<stop offset="1" stop-color="#731183" stop-opacity="0.7"/>
</linearGradient>
<linearGradient id="paint5_linear_0_1" x1="1144.5" y1="1899" x2="1144.5" y2="2251" gradientUnits="userSpaceOnUse">
<stop stop-color="#8F0A52" stop-opacity="0.65"/>
<stop offset="0.86" stop-color="#8F0A52" stop-opacity="0"/>
</linearGradient>
</defs>
</svg>
