<svg width="1154" height="3431" viewBox="0 0 1154 3431" fill="none" xmlns="http://www.w3.org/2000/svg">
<path d="M1000.73 1755.04C1040.5 1754.17 1078.99 1769.13 1107.73 1796.64C1136.46 1824.15 1153.1 1861.95 1153.96 1901.73L1141.13 1902.01C1140.33 1865.64 1125.12 1831.07 1098.85 1805.92C1072.57 1780.76 1037.37 1767.08 1001.01 1767.87L1000.73 1755.04Z" fill="#8F0A52" fill-opacity="0.6"/>
<path d="M150 1768C110.218 1768 72.0645 1752.2 43.934 1724.07C15.8036 1695.94 0 1657.78 0 1618H12.84C12.84 1654.38 27.2908 1689.26 53.0133 1714.99C78.7357 1740.71 113.623 1755.16 150 1755.16V1768Z" fill="#0C1562" fill-opacity="0.8"/>
<path d="M0.0898438 1306.84C0.767059 1287.16 5.31522 1267.8 13.4747 1249.87C21.6341 1231.94 33.245 1215.79 47.6444 1202.35C62.0438 1188.91 78.9498 1178.43 97.397 1171.53C115.844 1164.62 135.471 1161.41 155.158 1162.09L154.717 1174.92C136.715 1174.3 118.768 1177.23 101.9 1183.55C85.0318 1189.87 69.573 1199.45 56.4062 1211.74C43.2393 1224.03 32.6223 1238.79 25.1613 1255.19C17.7004 1271.58 13.5415 1289.28 12.9223 1307.28L0.0898438 1306.84Z" fill="#0C1562" fill-opacity="0.8"/>
<path d="M1154 1025C1154 1064.78 1138.2 1102.94 1110.07 1131.07C1081.94 1159.2 1043.78 1175 1004 1175V1162.16C1040.38 1162.16 1075.26 1147.71 1100.99 1121.99C1126.71 1096.26 1141.16 1061.38 1141.16 1025H1154Z" fill="#731183" fill-opacity="0.7"/>
<path d="M1004 579C1043.78 579 1081.94 594.804 1110.07 622.934C1138.2 651.064 1154 689.217 1154 729H1141.16C1141.16 692.623 1126.71 657.736 1100.99 632.013C1075.26 606.291 1040.38 591.84 1004 591.84V579Z" fill="#731183"/>
<path d="M150 592C110.218 592 72.0645 576.196 43.934 548.066C15.8036 519.936 0 481.783 0 442H12.84C12.84 478.377 27.2908 513.264 53.0133 538.987C78.7357 564.709 113.623 579.16 150 579.16V592Z" fill="#8F0A52" fill-opacity="0.55"/>
<path d="M0 150C0 110.218 15.8035 72.0644 43.934 43.934C72.0644 15.8035 110.217 6.00699e-06 150 0V12.8352C113.622 12.8352 78.7332 27.2865 53.0098 53.0099C27.2865 78.7333 12.8352 113.622 12.8352 150H0Z" fill="#8F0A52" fill-opacity="0.63"/>
<path d="M150 0H416.5C421.747 0 426 4.25329 426 9.5C426 14.7467 421.747 19 416.5 19H164C156.268 19 150 12.732 150 5V0Z" fill="url(#paint0_linear_0_1)" fill-opacity="0.63"/>
<path d="M150 587C150 579.268 156.268 573 164 573H994C1001.73 573 1008 579.268 1008 587V592H150V587Z" fill="url(#paint1_linear_0_1)"/>
<path d="M150 1763C150 1755.27 156.268 1749 164 1749H990C997.732 1749 1004 1755.27 1004 1763V1768H150V1763Z" fill="url(#paint2_linear_0_1)"/>
<path d="M150 1170C150 1162.27 156.268 1156 164 1156H990C997.732 1156 1004 1162.27 1004 1170V1175H150V1170Z" fill="url(#paint3_linear_0_1)"/>
<path d="M0 442V150H5C12.732 150 19 156.268 19 164V428C19 435.732 12.732 442 5 442H0Z" fill="#8F0A52" fill-opacity="0.6"/>
<path d="M0 1618V1306H5C12.732 1306 19 1312.27 19 1320V1604C19 1611.73 12.732 1618 5 1618H0Z" fill="#0C1562" fill-opacity="0.8"/>
<path d="M1149 1026C1141.27 1026 1135 1019.73 1135 1012V738C1135 730.268 1141.27 724 1149 724H1154V1026H1149Z" fill="url(#paint4_linear_0_1)"/>
<path d="M1000.73 2933.04C1040.5 2932.17 1078.99 2947.13 1107.73 2974.64C1136.46 3002.15 1153.1 3039.95 1153.96 3079.73L1141.13 3080.01C1140.33 3043.64 1125.12 3009.07 1098.85 2983.92C1072.57 2958.76 1037.37 2945.08 1001.01 2945.87L1000.73 2933.04Z" fill="#8F0A52" fill-opacity="0.6"/>
<path d="M150 2946C110.218 2946 72.0645 2930.2 43.934 2902.07C15.8036 2873.94 0 2835.78 0 2796H12.84C12.84 2832.38 27.2908 2867.26 53.0133 2892.99C78.7357 2918.71 113.623 2933.16 150 2933.16V2946Z" fill="#0C1562" fill-opacity="0.8"/>
<path d="M0.0898438 2484.84C0.767059 2465.16 5.31522 2445.8 13.4747 2427.87C21.6341 2409.94 33.245 2393.79 47.6444 2380.35C62.0438 2366.91 78.9498 2356.43 97.397 2349.53C115.844 2342.62 135.471 2339.41 155.158 2340.09L154.717 2352.92C136.715 2352.3 118.768 2355.23 101.9 2361.55C85.0318 2367.87 69.573 2377.45 56.4062 2389.74C43.2393 2402.03 32.6223 2416.79 25.1613 2433.19C17.7004 2449.58 13.5415 2467.28 12.9223 2485.28L0.0898438 2484.84Z" fill="#0C1562" fill-opacity="0.8"/>
<path d="M1154 2203C1154 2242.78 1138.2 2280.94 1110.07 2309.07C1081.94 2337.2 1043.78 2353 1004 2353V2340.16C1040.38 2340.16 1075.26 2325.71 1100.99 2299.99C1126.71 2274.26 1141.16 2239.38 1141.16 2203H1154Z" fill="#731183" fill-opacity="0.7"/>
<path d="M150 2941C150 2933.27 156.268 2927 164 2927H990C997.732 2927 1004 2933.27 1004 2941V2946H150V2941Z" fill="url(#paint5_linear_0_1)"/>
<path d="M150 2348C150 2340.27 156.268 2334 164 2334H990C997.732 2334 1004 2340.27 1004 2348V2353H150V2348Z" fill="url(#paint6_linear_0_1)"/>
<path d="M0 2796V2484H5C12.732 2484 19 2490.27 19 2498V2782C19 2789.73 12.732 2796 5 2796H0Z" fill="#0C1562" fill-opacity="0.8"/>
<path d="M1149 2204C1141.27 2204 1135 2197.73 1135 2190V1916C1135 1908.27 1141.27 1902 1149 1902H1154V2204H1149Z" fill="url(#paint7_linear_0_1)"/>
<path d="M1149 3431C1141.27 3431 1135 3424.73 1135 3417V3093C1135 3085.27 1141.27 3079 1149 3079H1154V3431H1149Z" fill="url(#paint8_linear_0_1)"/>
<path d="M575 785V520C578.866 520 582 525.828 582 533.016V771.983C582 779.172 578.866 785 575 785Z" fill="url(#paint9_linear_0_1)" fill-opacity="0.6"/>
<path d="M579 335H575V520H579V335Z" fill="url(#paint10_linear_0_1)" fill-opacity="0.6"/>
<path d="M579 335H575V150H579V335Z" fill="url(#paint11_linear_0_1)" fill-opacity="0.6"/>
<path d="M575 1683V1419C578.866 1419 582 1424.81 582 1431.97V1670.03C582 1677.19 578.866 1683 575 1683Z" fill="url(#paint12_linear_0_1)" fill-opacity="0.6"/>
<path d="M579 1234H575V1419H579V1234Z" fill="url(#paint13_linear_0_1)" fill-opacity="0.6"/>
<path d="M579 1234V969C575.134 969 572 974.828 572 982.016V1220.98C572 1228.17 575.134 1234 579 1234Z" fill="url(#paint14_linear_0_1)" fill-opacity="0.6"/>
<path d="M575 785H579V969H575V785Z" fill="url(#paint15_linear_0_1)" fill-opacity="0.6"/>
<path d="M575 785V520C578.866 520 582 525.828 582 533.016V771.983C582 779.172 578.866 785 575 785Z" fill="url(#paint16_linear_0_1)" fill-opacity="0.6"/>
<path d="M579 335H575V520H579V335Z" fill="url(#paint17_linear_0_1)" fill-opacity="0.6"/>
<path d="M579 335H575V150H579V335Z" fill="url(#paint18_linear_0_1)" fill-opacity="0.6"/>
<path d="M575 1683V1419C578.866 1419 582 1424.81 582 1431.97V1670.03C582 1677.19 578.866 1683 575 1683Z" fill="url(#paint19_linear_0_1)" fill-opacity="0.6"/>
<path d="M579 1234H575V1419H579V1234Z" fill="url(#paint20_linear_0_1)" fill-opacity="0.6"/>
<path d="M579 1234V969C575.134 969 572 974.828 572 982.016V1220.98C572 1228.17 575.134 1234 579 1234Z" fill="url(#paint21_linear_0_1)" fill-opacity="0.6"/>
<path d="M575 785H579V969H575V785Z" fill="url(#paint22_linear_0_1)" fill-opacity="0.6"/>
<path d="M579 2133V1869C575.134 1869 572 1874.81 572 1881.97V2120.03C572 2127.18 575.134 2133 579 2133Z" fill="#8F0A52" fill-opacity="0.6"/>
<path d="M575 1683H579V1869H575V1683Z" fill="url(#paint23_linear_0_1)" fill-opacity="0.6"/>
<path d="M575 1683H579V1869H575V1683Z" fill="url(#paint24_linear_0_1)" fill-opacity="0.6"/>
<path d="M575 2133H579V2318H575V2133Z" fill="url(#paint25_linear_0_1)" fill-opacity="0.6"/>
<path d="M575 2133H579V2318H575V2133Z" fill="url(#paint26_linear_0_1)" fill-opacity="0.6"/>
<path d="M575 785V520C578.866 520 582 525.828 582 533.016V771.983C582 779.172 578.866 785 575 785Z" fill="url(#paint27_linear_0_1)" fill-opacity="0.6"/>
<path d="M579 335H575V520H579V335Z" fill="url(#paint28_linear_0_1)" fill-opacity="0.6"/>
<path d="M579 335H575V150H579V335Z" fill="url(#paint29_linear_0_1)" fill-opacity="0.6"/>
<path d="M575 1683V1419C578.866 1419 582 1424.81 582 1431.97V1670.03C582 1677.19 578.866 1683 575 1683Z" fill="url(#paint30_linear_0_1)" fill-opacity="0.6"/>
<path d="M579 1234H575V1419H579V1234Z" fill="url(#paint31_linear_0_1)" fill-opacity="0.6"/>
<path d="M579 1234V969C575.134 969 572 974.828 572 982.016V1220.98C572 1228.17 575.134 1234 579 1234Z" fill="url(#paint32_linear_0_1)" fill-opacity="0.6"/>
<path d="M575 785H579V969H575V785Z" fill="url(#paint33_linear_0_1)" fill-opacity="0.6"/>
<path d="M579 2133V1869C575.134 1869 572 1874.81 572 1881.97V2120.03C572 2127.18 575.134 2133 579 2133Z" fill="#8F0A52" fill-opacity="0.6"/>
<path d="M575 1683H579V1869H575V1683Z" fill="url(#paint34_linear_0_1)" fill-opacity="0.6"/>
<path d="M575 1683H579V1869H575V1683Z" fill="url(#paint35_linear_0_1)" fill-opacity="0.6"/>
<path d="M575 2583V2318C578.866 2318 582 2323.82 582 2331.02V2570C582 2577.18 578.866 2583 575 2583Z" fill="url(#paint36_linear_0_1)" fill-opacity="0.6"/>
<path d="M575 2583V2318C578.866 2318 582 2323.82 582 2331.02V2570C582 2577.18 578.866 2583 575 2583Z" fill="url(#paint37_linear_0_1)" fill-opacity="0.6"/>
<path d="M575 2583H578V2767H575V2583Z" fill="url(#paint38_linear_0_1)" fill-opacity="0.6"/>
<path d="M575 2583H578V2767H575V2583Z" fill="url(#paint39_linear_0_1)" fill-opacity="0.6"/>
<path d="M575 2583V2318C578.866 2318 582 2323.82 582 2331.02V2570C582 2577.18 578.866 2583 575 2583Z" fill="url(#paint40_linear_0_1)" fill-opacity="0.6"/>
<path d="M575 2583H578V2767H575V2583Z" fill="url(#paint41_linear_0_1)" fill-opacity="0.6"/>
<path d="M575 2583H578V2767H575V2583Z" fill="url(#paint42_linear_0_1)" fill-opacity="0.6"/>
<path d="M575 2133H579V2318H575V2133Z" fill="url(#paint43_linear_0_1)" fill-opacity="0.6"/>
<path d="M575 2133H579V2318H575V2133Z" fill="url(#paint44_linear_0_1)" fill-opacity="0.6"/>
<path d="M579 2133V1869C575.134 1869 572 1874.81 572 1881.97V2120.03C572 2127.18 575.134 2133 579 2133Z" fill="url(#paint45_linear_0_1)" fill-opacity="0.6"/>
<path d="M578 3033V2768C574.134 2768 571 2773.82 571 2781.02V3019.98C571 3027.16 574.134 3033 578 3033Z" fill="#8F0A52" fill-opacity="0.6"/>
<path d="M574 3033H578V3218H574V3033Z" fill="url(#paint46_linear_0_1)" fill-opacity="0.6"/>
<path d="M574 3033H578V3218H574V3033Z" fill="url(#paint47_linear_0_1)" fill-opacity="0.6"/>
<path d="M578 3033V2768C574.134 2768 571 2773.82 571 2781.02V3019.98C571 3027.16 574.134 3033 578 3033Z" fill="#8F0A52" fill-opacity="0.6"/>
<path d="M574 3033H578V3218H574V3033Z" fill="url(#paint48_linear_0_1)" fill-opacity="0.6"/>
<path d="M574 3033H578V3218H574V3033Z" fill="url(#paint49_linear_0_1)" fill-opacity="0.6"/>
<path d="M578 3033V2768C574.134 2768 571 2773.82 571 2781.02V3019.98C571 3027.16 574.134 3033 578 3033Z" fill="url(#paint50_linear_0_1)" fill-opacity="0.6"/>
<line x1="1120" y1="860" x2="1135" y2="860" stroke="url(#paint51_linear_0_1)" stroke-width="16"/>
<path d="M1119.5 859.5C1119.5 868.512 1112.61 875.5 1104.5 875.5C1096.39 875.5 1089.5 868.512 1089.5 859.5C1089.5 850.488 1096.39 843.5 1104.5 843.5C1112.61 843.5 1119.5 850.488 1119.5 859.5Z" stroke="url(#paint52_linear_0_1)" stroke-width="7"/>
<line x1="1120" y1="2053" x2="1135" y2="2053" stroke="url(#paint53_linear_0_1)" stroke-width="16"/>
<path d="M1119.5 2052.5C1119.5 2061.51 1112.61 2068.5 1104.5 2068.5C1096.39 2068.5 1089.5 2061.51 1089.5 2052.5C1089.5 2043.49 1096.39 2036.5 1104.5 2036.5C1112.61 2036.5 1119.5 2043.49 1119.5 2052.5Z" stroke="url(#paint54_linear_0_1)" stroke-width="7"/>
<line x1="33.9792" y1="295.008" x2="18.9792" y2="294.969" stroke="url(#paint55_linear_0_1)" stroke-width="16"/>
<path d="M34.4766 295.509C34.5001 286.496 41.4053 279.527 49.5182 279.548C57.6311 279.569 64.5 286.574 64.4765 295.587C64.4531 304.599 57.5479 311.569 49.4349 311.548C41.322 311.526 34.4532 304.521 34.4766 295.509Z" stroke="url(#paint56_linear_0_1)" stroke-width="7"/>
<line x1="33.9792" y1="1461.01" x2="18.9792" y2="1460.97" stroke="url(#paint57_linear_0_1)" stroke-width="16"/>
<path d="M34.4766 1461.51C34.5001 1452.5 41.4053 1445.53 49.5182 1445.55C57.6311 1445.57 64.5 1452.57 64.4765 1461.59C64.4531 1470.6 57.5479 1477.57 49.4349 1477.55C41.322 1477.53 34.4532 1470.52 34.4766 1461.51Z" stroke="url(#paint58_linear_0_1)" stroke-width="7"/>
<line x1="33.9792" y1="2639.01" x2="18.9792" y2="2638.97" stroke="url(#paint59_linear_0_1)" stroke-width="16"/>
<path d="M34.4766 2639.51C34.5001 2630.5 41.4053 2623.53 49.5182 2623.55C57.6311 2623.57 64.5 2630.57 64.4765 2639.59C64.4531 2648.6 57.5479 2655.57 49.4349 2655.55C41.322 2655.53 34.4532 2648.52 34.4766 2639.51Z" stroke="url(#paint60_linear_0_1)" stroke-width="7"/>
<defs>
<linearGradient id="paint0_linear_0_1" x1="150" y1="9.5" x2="426" y2="9.5" gradientUnits="userSpaceOnUse">
<stop stop-color="#8F0A52"/>
<stop offset="0.86" stop-color="#8F0A52" stop-opacity="0"/>
</linearGradient>
<linearGradient id="paint1_linear_0_1" x1="150" y1="582.5" x2="1008" y2="582.5" gradientUnits="userSpaceOnUse">
<stop stop-color="#8F0A52" stop-opacity="0.55"/>
<stop offset="0.601" stop-color="#8F0A52"/>
<stop offset="1" stop-color="#731183"/>
</linearGradient>
<linearGradient id="paint2_linear_0_1" x1="150" y1="1758.5" x2="1004" y2="1758.5" gradientUnits="userSpaceOnUse">
<stop stop-color="#0C1562" stop-opacity="0.8"/>
<stop offset="0.46" stop-color="#0C1562"/>
<stop offset="1" stop-color="#8F0A52" stop-opacity="0.55"/>
</linearGradient>
<linearGradient id="paint3_linear_0_1" x1="150" y1="1165.5" x2="1004" y2="1165.5" gradientUnits="userSpaceOnUse">
<stop stop-color="#0C1562" stop-opacity="0.8"/>
<stop offset="0.475" stop-color="#731183"/>
<stop offset="1" stop-color="#731183" stop-opacity="0.7"/>
</linearGradient>
<linearGradient id="paint4_linear_0_1" x1="1144.5" y1="724" x2="1144.5" y2="1026" gradientUnits="userSpaceOnUse">
<stop stop-color="#731183"/>
<stop offset="1" stop-color="#731183" stop-opacity="0.7"/>
</linearGradient>
<linearGradient id="paint5_linear_0_1" x1="150" y1="2936.5" x2="1004" y2="2936.5" gradientUnits="userSpaceOnUse">
<stop stop-color="#0C1562" stop-opacity="0.8"/>
<stop offset="0.46" stop-color="#0C1562"/>
<stop offset="1" stop-color="#8F0A52" stop-opacity="0.55"/>
</linearGradient>
<linearGradient id="paint6_linear_0_1" x1="150" y1="2343.5" x2="1004" y2="2343.5" gradientUnits="userSpaceOnUse">
<stop stop-color="#0C1562" stop-opacity="0.8"/>
<stop offset="0.475" stop-color="#731183"/>
<stop offset="1" stop-color="#731183" stop-opacity="0.7"/>
</linearGradient>
<linearGradient id="paint7_linear_0_1" x1="1144.5" y1="1902" x2="1144.5" y2="2204" gradientUnits="userSpaceOnUse">
<stop stop-color="#731183"/>
<stop offset="1" stop-color="#731183" stop-opacity="0.7"/>
</linearGradient>
<linearGradient id="paint8_linear_0_1" x1="1144.5" y1="3079" x2="1144.5" y2="3431" gradientUnits="userSpaceOnUse">
<stop stop-color="#8F0A52" stop-opacity="0.65"/>
<stop offset="0.86" stop-color="#8F0A52" stop-opacity="0"/>
</linearGradient>
<linearGradient id="paint9_linear_0_1" x1="578.5" y1="520" x2="578.5" y2="785" gradientUnits="userSpaceOnUse">
<stop stop-color="#8F0A52" stop-opacity="0.6"/>
<stop offset="0.0001" stop-color="#8F0A52"/>
<stop offset="1" stop-color="#731183"/>
</linearGradient>
<linearGradient id="paint10_linear_0_1" x1="577" y1="335" x2="577" y2="520" gradientUnits="userSpaceOnUse">
<stop stop-color="#8F0A52" stop-opacity="0.6"/>
<stop offset="0.9999" stop-color="#8F0A52"/>
<stop offset="1" stop-color="#731183"/>
</linearGradient>
<linearGradient id="paint11_linear_0_1" x1="577" y1="335" x2="577" y2="150" gradientUnits="userSpaceOnUse">
<stop stop-color="#8F0A52" stop-opacity="0.6"/>
<stop offset="0.481" stop-color="#8F0A52"/>
<stop offset="1" stop-color="#090909"/>
</linearGradient>
<linearGradient id="paint12_linear_0_1" x1="578.5" y1="1419" x2="578.5" y2="1683" gradientUnits="userSpaceOnUse">
<stop stop-color="#0C1562"/>
<stop offset="1" stop-color="#8F0A52" stop-opacity="0.6"/>
</linearGradient>
<linearGradient id="paint13_linear_0_1" x1="577" y1="1234" x2="577" y2="1419" gradientUnits="userSpaceOnUse">
<stop stop-color="#0C1562" stop-opacity="0.6"/>
<stop offset="1" stop-color="#0C1562"/>
</linearGradient>
<linearGradient id="paint14_linear_0_1" x1="575.5" y1="969" x2="575.5" y2="1234" gradientUnits="userSpaceOnUse">
<stop stop-color="#731183" stop-opacity="0.6"/>
<stop offset="1" stop-color="#0C1562"/>
</linearGradient>
<linearGradient id="paint15_linear_0_1" x1="577" y1="969" x2="577" y2="785" gradientUnits="userSpaceOnUse">
<stop stop-color="#731183" stop-opacity="0.6"/>
<stop offset="1" stop-color="#731183"/>
</linearGradient>
<linearGradient id="paint16_linear_0_1" x1="578.5" y1="520" x2="578.5" y2="785" gradientUnits="userSpaceOnUse">
<stop stop-color="#8F0A52" stop-opacity="0.6"/>
<stop offset="0.0001" stop-color="#8F0A52"/>
<stop offset="1" stop-color="#731183"/>
</linearGradient>
<linearGradient id="paint17_linear_0_1" x1="577" y1="335" x2="577" y2="520" gradientUnits="userSpaceOnUse">
<stop stop-color="#8F0A52" stop-opacity="0.6"/>
<stop offset="0.9999" stop-color="#8F0A52"/>
<stop offset="1" stop-color="#731183"/>
</linearGradient>
<linearGradient id="paint18_linear_0_1" x1="577" y1="335" x2="577" y2="150" gradientUnits="userSpaceOnUse">
<stop stop-color="#8F0A52" stop-opacity="0.6"/>
<stop offset="0.296" stop-color="#8F0A52"/>
<stop offset="0.721" stop-color="#090909"/>
</linearGradient>
<linearGradient id="paint19_linear_0_1" x1="578.5" y1="1419" x2="578.5" y2="1683" gradientUnits="userSpaceOnUse">
<stop stop-color="#0C1562"/>
<stop offset="1" stop-color="#8F0A52" stop-opacity="0.6"/>
</linearGradient>
<linearGradient id="paint20_linear_0_1" x1="577" y1="1234" x2="577" y2="1419" gradientUnits="userSpaceOnUse">
<stop stop-color="#0C1562" stop-opacity="0.6"/>
<stop offset="1" stop-color="#0C1562"/>
</linearGradient>
<linearGradient id="paint21_linear_0_1" x1="575.5" y1="969" x2="575.5" y2="1234" gradientUnits="userSpaceOnUse">
<stop stop-color="#731183" stop-opacity="0.6"/>
<stop offset="1" stop-color="#0C1562"/>
</linearGradient>
<linearGradient id="paint22_linear_0_1" x1="577" y1="969" x2="577" y2="785" gradientUnits="userSpaceOnUse">
<stop stop-color="#731183" stop-opacity="0.6"/>
<stop offset="1" stop-color="#731183"/>
</linearGradient>
<linearGradient id="paint23_linear_0_1" x1="577" y1="1869" x2="577" y2="1683" gradientUnits="userSpaceOnUse">
<stop stop-color="#8F0A52"/>
<stop offset="1" stop-color="#8F0A52" stop-opacity="0.6"/>
</linearGradient>
<linearGradient id="paint24_linear_0_1" x1="577" y1="1869" x2="577" y2="1683" gradientUnits="userSpaceOnUse">
<stop stop-color="#8F0A52"/>
<stop offset="1" stop-color="#8F0A52" stop-opacity="0.6"/>
</linearGradient>
<linearGradient id="paint25_linear_0_1" x1="577" y1="2318" x2="577" y2="2133" gradientUnits="userSpaceOnUse">
<stop stop-color="#8F0A52" stop-opacity="0.6"/>
<stop offset="1" stop-color="#731183"/>
</linearGradient>
<linearGradient id="paint26_linear_0_1" x1="577" y1="2318" x2="577" y2="2133" gradientUnits="userSpaceOnUse">
<stop stop-color="#8F0A52" stop-opacity="0.6"/>
<stop offset="1" stop-color="#731183"/>
</linearGradient>
<linearGradient id="paint27_linear_0_1" x1="578.5" y1="520" x2="578.5" y2="785" gradientUnits="userSpaceOnUse">
<stop stop-color="#8F0A52" stop-opacity="0.6"/>
<stop offset="0.0001" stop-color="#8F0A52"/>
<stop offset="1" stop-color="#731183"/>
</linearGradient>
<linearGradient id="paint28_linear_0_1" x1="577" y1="335" x2="577" y2="520" gradientUnits="userSpaceOnUse">
<stop stop-color="#8F0A52" stop-opacity="0.6"/>
<stop offset="0.9999" stop-color="#8F0A52"/>
<stop offset="1" stop-color="#731183"/>
</linearGradient>
<linearGradient id="paint29_linear_0_1" x1="577" y1="335" x2="577" y2="150" gradientUnits="userSpaceOnUse">
<stop stop-color="#8F0A52" stop-opacity="0.6"/>
<stop offset="0.296" stop-color="#8F0A52"/>
<stop offset="0.721" stop-color="#090909"/>
</linearGradient>
<linearGradient id="paint30_linear_0_1" x1="578.5" y1="1419" x2="578.5" y2="1683" gradientUnits="userSpaceOnUse">
<stop stop-color="#0C1562"/>
<stop offset="1" stop-color="#8F0A52" stop-opacity="0.6"/>
</linearGradient>
<linearGradient id="paint31_linear_0_1" x1="577" y1="1234" x2="577" y2="1419" gradientUnits="userSpaceOnUse">
<stop stop-color="#0C1562" stop-opacity="0.6"/>
<stop offset="1" stop-color="#0C1562"/>
</linearGradient>
<linearGradient id="paint32_linear_0_1" x1="575.5" y1="969" x2="575.5" y2="1234" gradientUnits="userSpaceOnUse">
<stop stop-color="#731183" stop-opacity="0.6"/>
<stop offset="1" stop-color="#0C1562"/>
</linearGradient>
<linearGradient id="paint33_linear_0_1" x1="577" y1="969" x2="577" y2="785" gradientUnits="userSpaceOnUse">
<stop stop-color="#731183" stop-opacity="0.6"/>
<stop offset="1" stop-color="#731183"/>
</linearGradient>
<linearGradient id="paint34_linear_0_1" x1="577" y1="1869" x2="577" y2="1683" gradientUnits="userSpaceOnUse">
<stop stop-color="#8F0A52"/>
<stop offset="1" stop-color="#8F0A52" stop-opacity="0.6"/>
</linearGradient>
<linearGradient id="paint35_linear_0_1" x1="577" y1="1869" x2="577" y2="1683" gradientUnits="userSpaceOnUse">
<stop stop-color="#8F0A52"/>
<stop offset="1" stop-color="#8F0A52" stop-opacity="0.6"/>
</linearGradient>
<linearGradient id="paint36_linear_0_1" x1="578.5" y1="2318" x2="578.5" y2="2583" gradientUnits="userSpaceOnUse">
<stop stop-color="#0C1562"/>
<stop offset="1" stop-color="#8F0A52" stop-opacity="0.6"/>
</linearGradient>
<linearGradient id="paint37_linear_0_1" x1="578.5" y1="2318" x2="578.5" y2="2583" gradientUnits="userSpaceOnUse">
<stop stop-color="#0C1562"/>
<stop offset="1" stop-color="#8F0A52" stop-opacity="0.6"/>
</linearGradient>
<linearGradient id="paint38_linear_0_1" x1="576.5" y1="2767" x2="576.5" y2="2583" gradientUnits="userSpaceOnUse">
<stop stop-color="#8F0A52"/>
<stop offset="1" stop-color="#8F0A52" stop-opacity="0.6"/>
</linearGradient>
<linearGradient id="paint39_linear_0_1" x1="576.5" y1="2767" x2="576.5" y2="2583" gradientUnits="userSpaceOnUse">
<stop stop-color="#8F0A52"/>
<stop offset="1" stop-color="#8F0A52" stop-opacity="0.6"/>
</linearGradient>
<linearGradient id="paint40_linear_0_1" x1="578.5" y1="2318" x2="578.5" y2="2583" gradientUnits="userSpaceOnUse">
<stop stop-color="#0C1562"/>
<stop offset="1" stop-color="#8F0A52" stop-opacity="0.6"/>
</linearGradient>
<linearGradient id="paint41_linear_0_1" x1="576.5" y1="2767" x2="576.5" y2="2583" gradientUnits="userSpaceOnUse">
<stop stop-color="#8F0A52"/>
<stop offset="1" stop-color="#8F0A52" stop-opacity="0.6"/>
</linearGradient>
<linearGradient id="paint42_linear_0_1" x1="576.5" y1="2767" x2="576.5" y2="2583" gradientUnits="userSpaceOnUse">
<stop stop-color="#8F0A52"/>
<stop offset="1" stop-color="#8F0A52" stop-opacity="0.6"/>
</linearGradient>
<linearGradient id="paint43_linear_0_1" x1="577" y1="2318" x2="577" y2="2133" gradientUnits="userSpaceOnUse">
<stop stop-color="#8F0A52" stop-opacity="0.6"/>
<stop offset="1" stop-color="#731183"/>
</linearGradient>
<linearGradient id="paint44_linear_0_1" x1="577" y1="2318" x2="577" y2="2133" gradientUnits="userSpaceOnUse">
<stop offset="0.161" stop-color="#090909"/>
<stop offset="0.501" stop-color="#8F0A52" stop-opacity="0.6"/>
<stop offset="1" stop-color="#731183"/>
</linearGradient>
<linearGradient id="paint45_linear_0_1" x1="575.5" y1="1869" x2="575.5" y2="2133" gradientUnits="userSpaceOnUse">
<stop stop-color="#8F0A52" stop-opacity="0.6"/>
<stop offset="0.0001" stop-color="#8F0A52"/>
<stop offset="1" stop-color="#731183"/>
</linearGradient>
<linearGradient id="paint46_linear_0_1" x1="576" y1="3218" x2="576" y2="3033" gradientUnits="userSpaceOnUse">
<stop stop-color="#8F0A52" stop-opacity="0.6"/>
<stop offset="1" stop-color="#731183"/>
</linearGradient>
<linearGradient id="paint47_linear_0_1" x1="576" y1="3218" x2="576" y2="3033" gradientUnits="userSpaceOnUse">
<stop stop-color="#8F0A52" stop-opacity="0.6"/>
<stop offset="1" stop-color="#731183"/>
</linearGradient>
<linearGradient id="paint48_linear_0_1" x1="576" y1="3218" x2="576" y2="3033" gradientUnits="userSpaceOnUse">
<stop stop-color="#8F0A52" stop-opacity="0.6"/>
<stop offset="1" stop-color="#731183"/>
</linearGradient>
<linearGradient id="paint49_linear_0_1" x1="576" y1="3218" x2="576" y2="3033" gradientUnits="userSpaceOnUse">
<stop offset="0.161" stop-color="#090909"/>
<stop offset="0.501" stop-color="#8F0A52" stop-opacity="0.6"/>
<stop offset="1" stop-color="#731183"/>
</linearGradient>
<linearGradient id="paint50_linear_0_1" x1="574.5" y1="2768" x2="574.5" y2="3033" gradientUnits="userSpaceOnUse">
<stop stop-color="#8F0A52" stop-opacity="0.6"/>
<stop offset="0.0001" stop-color="#8F0A52"/>
<stop offset="1" stop-color="#731183"/>
</linearGradient>
<linearGradient id="paint51_linear_0_1" x1="1120" y1="868.5" x2="1135" y2="868.5" gradientUnits="userSpaceOnUse">
<stop stop-color="#273062"/>
<stop offset="1" stop-color="#C11CDD"/>
</linearGradient>
<linearGradient id="paint52_linear_0_1" x1="1104.5" y1="840" x2="1104.5" y2="879" gradientUnits="userSpaceOnUse">
<stop offset="1" stop-color="#9F21B3"/>
</linearGradient>
<linearGradient id="paint53_linear_0_1" x1="1120" y1="2061.5" x2="1135" y2="2061.5" gradientUnits="userSpaceOnUse">
<stop stop-color="#273062"/>
<stop offset="1" stop-color="#C11CDD"/>
</linearGradient>
<linearGradient id="paint54_linear_0_1" x1="1104.5" y1="2033" x2="1104.5" y2="2072" gradientUnits="userSpaceOnUse">
<stop offset="1" stop-color="#9F21B3"/>
</linearGradient>
<linearGradient id="paint55_linear_0_1" x1="34.0013" y1="286.508" x2="19.0014" y2="286.469" gradientUnits="userSpaceOnUse">
<stop stop-color="#273062"/>
<stop offset="1" stop-color="#560631"/>
</linearGradient>
<linearGradient id="paint56_linear_0_1" x1="49.4258" y1="315.048" x2="49.5273" y2="276.048" gradientUnits="userSpaceOnUse">
<stop offset="1" stop-color="#560631"/>
</linearGradient>
<linearGradient id="paint57_linear_0_1" x1="34.0013" y1="1452.51" x2="19.0014" y2="1452.47" gradientUnits="userSpaceOnUse">
<stop stop-color="#273062"/>
<stop offset="1" stop-color="#0A114E"/>
</linearGradient>
<linearGradient id="paint58_linear_0_1" x1="49.4258" y1="1481.05" x2="49.5273" y2="1442.05" gradientUnits="userSpaceOnUse">
<stop offset="1" stop-color="#0A114E"/>
</linearGradient>
<linearGradient id="paint59_linear_0_1" x1="34.0013" y1="2630.51" x2="19.0014" y2="2630.47" gradientUnits="userSpaceOnUse">
<stop stop-color="#273062"/>
<stop offset="1" stop-color="#0A114E"/>
</linearGradient>
<linearGradient id="paint60_linear_0_1" x1="49.4258" y1="2659.05" x2="49.5273" y2="2620.05" gradientUnits="userSpaceOnUse">
<stop offset="1" stop-color="#0A114E"/>
</linearGradient>
</defs>
</svg>
