<svg width="11" height="1575" viewBox="0 0 11 1575" fill="none" xmlns="http://www.w3.org/2000/svg">
<path d="M4.33398 325.756V190.024C8.01588 190.024 11.0007 193.009 11.0007 196.691V319.089C11.0007 322.771 8.01588 325.756 4.33398 325.756Z" fill="url(#paint0_linear_0_1)" fill-opacity="0.6"/>
<path d="M7.66731 95.0122H4.33398V190.024H7.66731V95.0122Z" fill="url(#paint1_linear_0_1)" fill-opacity="0.6"/>
<path d="M7.66731 95.0122H4.33398V7.62939e-06H7.66731V95.0122Z" fill="url(#paint2_linear_0_1)" fill-opacity="0.6"/>
<path d="M4.33398 787.244V651.512C8.01588 651.512 11.0007 654.497 11.0007 658.179V780.577C11.0007 784.259 8.01588 787.244 4.33398 787.244Z" fill="url(#paint3_linear_0_1)" fill-opacity="0.6"/>
<path d="M7.66731 556.5H4.33398V651.512H7.66731V556.5Z" fill="url(#paint4_linear_0_1)" fill-opacity="0.6"/>
<path d="M7.66667 556.5V420.768C3.98477 420.768 1 423.753 1 427.435V549.833C1 553.515 3.98477 556.5 7.66667 556.5Z" fill="url(#paint5_linear_0_1)" fill-opacity="0.6"/>
<path d="M4.33269 325.756H7.66602V420.768H4.33269V325.756Z" fill="url(#paint6_linear_0_1)" fill-opacity="0.6"/>
<path d="M4.33398 325.756V190.024C8.01588 190.024 11.0007 193.009 11.0007 196.691V319.089C11.0007 322.771 8.01588 325.756 4.33398 325.756Z" fill="url(#paint7_linear_0_1)" fill-opacity="0.6"/>
<path d="M7.66731 95.0122H4.33398V190.024H7.66731V95.0122Z" fill="url(#paint8_linear_0_1)" fill-opacity="0.6"/>
<path d="M7.66731 95.0122H4.33398V7.62939e-06H7.66731V95.0122Z" fill="url(#paint9_linear_0_1)" fill-opacity="0.6"/>
<path d="M4.33398 787.244V651.512C8.01588 651.512 11.0007 654.497 11.0007 658.179V780.577C11.0007 784.259 8.01588 787.244 4.33398 787.244Z" fill="url(#paint10_linear_0_1)" fill-opacity="0.6"/>
<path d="M7.66731 556.5H4.33398V651.512H7.66731V556.5Z" fill="url(#paint11_linear_0_1)" fill-opacity="0.6"/>
<path d="M7.66667 556.5V420.768C3.98477 420.768 1 423.753 1 427.435V549.833C1 553.515 3.98477 556.5 7.66667 556.5Z" fill="url(#paint12_linear_0_1)" fill-opacity="0.6"/>
<path d="M4.33269 325.756H7.66602V420.768H4.33269V325.756Z" fill="url(#paint13_linear_0_1)" fill-opacity="0.6"/>
<path d="M7.66667 1017.99V882.256C3.98477 882.256 1 885.241 1 888.923V1011.32C1 1015 3.98477 1017.99 7.66667 1017.99Z" fill="#8F0A52" fill-opacity="0.6"/>
<path d="M4.33269 787.244H7.66602V882.256H4.33269V787.244Z" fill="url(#paint14_linear_0_1)" fill-opacity="0.6"/>
<path d="M4.33269 787.244H7.66602V882.256H4.33269V787.244Z" fill="url(#paint15_linear_0_1)" fill-opacity="0.6"/>
<path d="M4.33269 1017.99H7.66602V1113H4.33269V1017.99Z" fill="url(#paint16_linear_0_1)" fill-opacity="0.6"/>
<path d="M4.33269 1017.99H7.66602V1113H4.33269V1017.99Z" fill="url(#paint17_linear_0_1)" fill-opacity="0.6"/>
<path d="M4.33398 325.756V190.024C8.01588 190.024 11.0007 193.009 11.0007 196.691V319.089C11.0007 322.771 8.01588 325.756 4.33398 325.756Z" fill="url(#paint18_linear_0_1)" fill-opacity="0.6"/>
<path d="M7.66731 95.0122H4.33398V190.024H7.66731V95.0122Z" fill="url(#paint19_linear_0_1)" fill-opacity="0.6"/>
<path d="M7.66731 95.0122H4.33398V7.62939e-06H7.66731V95.0122Z" fill="url(#paint20_linear_0_1)" fill-opacity="0.6"/>
<path d="M4.33398 787.244V651.512C8.01588 651.512 11.0007 654.497 11.0007 658.179V780.577C11.0007 784.259 8.01588 787.244 4.33398 787.244Z" fill="url(#paint21_linear_0_1)" fill-opacity="0.6"/>
<path d="M7.66731 556.5H4.33398V651.512H7.66731V556.5Z" fill="url(#paint22_linear_0_1)" fill-opacity="0.6"/>
<path d="M7.66667 556.5V420.768C3.98477 420.768 1 423.753 1 427.435V549.833C1 553.515 3.98477 556.5 7.66667 556.5Z" fill="url(#paint23_linear_0_1)" fill-opacity="0.6"/>
<path d="M4.33269 325.756H7.66602V420.768H4.33269V325.756Z" fill="url(#paint24_linear_0_1)" fill-opacity="0.6"/>
<path d="M7.66667 1017.99V882.256C3.98477 882.256 1 885.241 1 888.923V1011.32C1 1015 3.98477 1017.99 7.66667 1017.99Z" fill="#8F0A52" fill-opacity="0.6"/>
<path d="M4.33269 787.244H7.66602V882.256H4.33269V787.244Z" fill="url(#paint25_linear_0_1)" fill-opacity="0.6"/>
<path d="M4.33269 787.244H7.66602V882.256H4.33269V787.244Z" fill="url(#paint26_linear_0_1)" fill-opacity="0.6"/>
<path d="M4.00195 1248.73V1113C7.68385 1113 10.6686 1115.98 10.6686 1119.67V1242.07C10.6686 1245.75 7.68385 1248.73 4.00195 1248.73Z" fill="url(#paint27_linear_0_1)" fill-opacity="0.6"/>
<path d="M4.00195 1248.73V1113C7.68385 1113 10.6686 1115.98 10.6686 1119.67V1242.07C10.6686 1245.75 7.68385 1248.73 4.00195 1248.73Z" fill="url(#paint28_linear_0_1)" fill-opacity="0.6"/>
<path d="M4.00065 1248.73H7.33398V1343.74H4.00065V1248.73Z" fill="url(#paint29_linear_0_1)" fill-opacity="0.6"/>
<path d="M4.00065 1248.73H7.33398V1343.74H4.00065V1248.73Z" fill="url(#paint30_linear_0_1)" fill-opacity="0.6"/>
<path d="M4.00195 1248.73V1113C7.68385 1113 10.6686 1115.98 10.6686 1119.67V1242.07C10.6686 1245.75 7.68385 1248.73 4.00195 1248.73Z" fill="url(#paint31_linear_0_1)" fill-opacity="0.6"/>
<path d="M4.00065 1248.73H7.33398V1343.74H4.00065V1248.73Z" fill="url(#paint32_linear_0_1)" fill-opacity="0.6"/>
<path d="M4.00065 1248.73H7.33398V1343.74H4.00065V1248.73Z" fill="url(#paint33_linear_0_1)" fill-opacity="0.6"/>
<path d="M4.33269 1017.99H7.66602V1113H4.33269V1017.99Z" fill="url(#paint34_linear_0_1)" fill-opacity="0.6"/>
<path d="M4.33269 1017.99H7.66602V1113H4.33269V1017.99Z" fill="url(#paint35_linear_0_1)" fill-opacity="0.6"/>
<path d="M7.66667 1017.99V882.256C3.98477 882.256 1 885.241 1 888.923V1011.32C1 1015 3.98477 1017.99 7.66667 1017.99Z" fill="url(#paint36_linear_0_1)" fill-opacity="0.6"/>
<path d="M6.66667 1479.73V1344C2.98477 1344 0 1346.98 0 1350.67V1473.06C0 1476.74 2.98477 1479.73 6.66667 1479.73Z" fill="#8F0A52" fill-opacity="0.6"/>
<path d="M3.33269 1479.73H6.66602V1574.75H3.33269V1479.73Z" fill="url(#paint37_linear_0_1)" fill-opacity="0.6"/>
<path d="M3.33269 1479.73H6.66602V1574.75H3.33269V1479.73Z" fill="url(#paint38_linear_0_1)" fill-opacity="0.6"/>
<path d="M6.66667 1479.73V1344C2.98477 1344 0 1346.98 0 1350.67V1473.06C0 1476.74 2.98477 1479.73 6.66667 1479.73Z" fill="#8F0A52" fill-opacity="0.6"/>
<path d="M3.33269 1479.73H6.66602V1574.75H3.33269V1479.73Z" fill="url(#paint39_linear_0_1)" fill-opacity="0.6"/>
<path d="M3.33269 1479.73H6.66602V1574.75H3.33269V1479.73Z" fill="url(#paint40_linear_0_1)" fill-opacity="0.6"/>
<path d="M6.66667 1479.73V1344C2.98477 1344 0 1346.98 0 1350.67V1473.06C0 1476.74 2.98477 1479.73 6.66667 1479.73Z" fill="url(#paint41_linear_0_1)" fill-opacity="0.6"/>
<defs>
<linearGradient id="paint0_linear_0_1" x1="7.66732" y1="190.024" x2="7.66732" y2="325.756" gradientUnits="userSpaceOnUse">
<stop stop-color="#8F0A52" stop-opacity="0.6"/>
<stop offset="0.0001" stop-color="#8F0A52"/>
<stop offset="1" stop-color="#731183"/>
</linearGradient>
<linearGradient id="paint1_linear_0_1" x1="6.00065" y1="95.0122" x2="6.00065" y2="190.024" gradientUnits="userSpaceOnUse">
<stop stop-color="#8F0A52" stop-opacity="0.6"/>
<stop offset="0.9999" stop-color="#8F0A52"/>
<stop offset="1" stop-color="#731183"/>
</linearGradient>
<linearGradient id="paint2_linear_0_1" x1="6.00065" y1="95.0122" x2="6.00065" y2="7.62939e-06" gradientUnits="userSpaceOnUse">
<stop stop-color="#8F0A52" stop-opacity="0.6"/>
<stop offset="0.481" stop-color="#8F0A52"/>
<stop offset="1" stop-color="#090909"/>
</linearGradient>
<linearGradient id="paint3_linear_0_1" x1="7.66732" y1="651.512" x2="7.66732" y2="787.244" gradientUnits="userSpaceOnUse">
<stop stop-color="#0C1562"/>
<stop offset="1" stop-color="#8F0A52" stop-opacity="0.6"/>
</linearGradient>
<linearGradient id="paint4_linear_0_1" x1="6.00066" y1="556.5" x2="6.00066" y2="651.512" gradientUnits="userSpaceOnUse">
<stop stop-color="#0C1562" stop-opacity="0.6"/>
<stop offset="1" stop-color="#0C1562"/>
</linearGradient>
<linearGradient id="paint5_linear_0_1" x1="4.33333" y1="420.768" x2="4.33333" y2="556.5" gradientUnits="userSpaceOnUse">
<stop stop-color="#731183" stop-opacity="0.6"/>
<stop offset="1" stop-color="#0C1562"/>
</linearGradient>
<linearGradient id="paint6_linear_0_1" x1="5.99935" y1="420.768" x2="5.99935" y2="325.756" gradientUnits="userSpaceOnUse">
<stop stop-color="#731183" stop-opacity="0.6"/>
<stop offset="1" stop-color="#731183"/>
</linearGradient>
<linearGradient id="paint7_linear_0_1" x1="7.66732" y1="190.024" x2="7.66732" y2="325.756" gradientUnits="userSpaceOnUse">
<stop stop-color="#8F0A52" stop-opacity="0.6"/>
<stop offset="0.0001" stop-color="#8F0A52"/>
<stop offset="1" stop-color="#731183"/>
</linearGradient>
<linearGradient id="paint8_linear_0_1" x1="6.00065" y1="95.0122" x2="6.00065" y2="190.024" gradientUnits="userSpaceOnUse">
<stop stop-color="#8F0A52" stop-opacity="0.6"/>
<stop offset="0.9999" stop-color="#8F0A52"/>
<stop offset="1" stop-color="#731183"/>
</linearGradient>
<linearGradient id="paint9_linear_0_1" x1="6.00065" y1="95.0122" x2="6.00065" y2="7.62939e-06" gradientUnits="userSpaceOnUse">
<stop stop-color="#8F0A52" stop-opacity="0.6"/>
<stop offset="0.296" stop-color="#8F0A52"/>
<stop offset="0.721" stop-color="#090909"/>
</linearGradient>
<linearGradient id="paint10_linear_0_1" x1="7.66732" y1="651.512" x2="7.66732" y2="787.244" gradientUnits="userSpaceOnUse">
<stop stop-color="#0C1562"/>
<stop offset="1" stop-color="#8F0A52" stop-opacity="0.6"/>
</linearGradient>
<linearGradient id="paint11_linear_0_1" x1="6.00066" y1="556.5" x2="6.00066" y2="651.512" gradientUnits="userSpaceOnUse">
<stop stop-color="#0C1562" stop-opacity="0.6"/>
<stop offset="1" stop-color="#0C1562"/>
</linearGradient>
<linearGradient id="paint12_linear_0_1" x1="4.33333" y1="420.768" x2="4.33333" y2="556.5" gradientUnits="userSpaceOnUse">
<stop stop-color="#731183" stop-opacity="0.6"/>
<stop offset="1" stop-color="#0C1562"/>
</linearGradient>
<linearGradient id="paint13_linear_0_1" x1="5.99935" y1="420.768" x2="5.99935" y2="325.756" gradientUnits="userSpaceOnUse">
<stop stop-color="#731183" stop-opacity="0.6"/>
<stop offset="1" stop-color="#731183"/>
</linearGradient>
<linearGradient id="paint14_linear_0_1" x1="5.99935" y1="882.256" x2="5.99935" y2="787.244" gradientUnits="userSpaceOnUse">
<stop stop-color="#8F0A52"/>
<stop offset="1" stop-color="#8F0A52" stop-opacity="0.6"/>
</linearGradient>
<linearGradient id="paint15_linear_0_1" x1="5.99935" y1="882.256" x2="5.99935" y2="787.244" gradientUnits="userSpaceOnUse">
<stop stop-color="#8F0A52"/>
<stop offset="1" stop-color="#8F0A52" stop-opacity="0.6"/>
</linearGradient>
<linearGradient id="paint16_linear_0_1" x1="5.99935" y1="1113" x2="5.99935" y2="1017.99" gradientUnits="userSpaceOnUse">
<stop stop-color="#8F0A52" stop-opacity="0.6"/>
<stop offset="1" stop-color="#731183"/>
</linearGradient>
<linearGradient id="paint17_linear_0_1" x1="5.99935" y1="1113" x2="5.99935" y2="1017.99" gradientUnits="userSpaceOnUse">
<stop stop-color="#8F0A52" stop-opacity="0.6"/>
<stop offset="1" stop-color="#731183"/>
</linearGradient>
<linearGradient id="paint18_linear_0_1" x1="7.66732" y1="190.024" x2="7.66732" y2="325.756" gradientUnits="userSpaceOnUse">
<stop stop-color="#8F0A52" stop-opacity="0.6"/>
<stop offset="0.0001" stop-color="#8F0A52"/>
<stop offset="1" stop-color="#731183"/>
</linearGradient>
<linearGradient id="paint19_linear_0_1" x1="6.00065" y1="95.0122" x2="6.00065" y2="190.024" gradientUnits="userSpaceOnUse">
<stop stop-color="#8F0A52" stop-opacity="0.6"/>
<stop offset="0.9999" stop-color="#8F0A52"/>
<stop offset="1" stop-color="#731183"/>
</linearGradient>
<linearGradient id="paint20_linear_0_1" x1="6.00065" y1="95.0122" x2="6.00065" y2="7.62939e-06" gradientUnits="userSpaceOnUse">
<stop stop-color="#8F0A52" stop-opacity="0.6"/>
<stop offset="0.296" stop-color="#8F0A52"/>
<stop offset="0.721" stop-color="#090909"/>
</linearGradient>
<linearGradient id="paint21_linear_0_1" x1="7.66732" y1="651.512" x2="7.66732" y2="787.244" gradientUnits="userSpaceOnUse">
<stop stop-color="#0C1562"/>
<stop offset="1" stop-color="#8F0A52" stop-opacity="0.6"/>
</linearGradient>
<linearGradient id="paint22_linear_0_1" x1="6.00066" y1="556.5" x2="6.00066" y2="651.512" gradientUnits="userSpaceOnUse">
<stop stop-color="#0C1562" stop-opacity="0.6"/>
<stop offset="1" stop-color="#0C1562"/>
</linearGradient>
<linearGradient id="paint23_linear_0_1" x1="4.33333" y1="420.768" x2="4.33333" y2="556.5" gradientUnits="userSpaceOnUse">
<stop stop-color="#731183" stop-opacity="0.6"/>
<stop offset="1" stop-color="#0C1562"/>
</linearGradient>
<linearGradient id="paint24_linear_0_1" x1="5.99935" y1="420.768" x2="5.99935" y2="325.756" gradientUnits="userSpaceOnUse">
<stop stop-color="#731183" stop-opacity="0.6"/>
<stop offset="1" stop-color="#731183"/>
</linearGradient>
<linearGradient id="paint25_linear_0_1" x1="5.99935" y1="882.256" x2="5.99935" y2="787.244" gradientUnits="userSpaceOnUse">
<stop stop-color="#8F0A52"/>
<stop offset="1" stop-color="#8F0A52" stop-opacity="0.6"/>
</linearGradient>
<linearGradient id="paint26_linear_0_1" x1="5.99935" y1="882.256" x2="5.99935" y2="787.244" gradientUnits="userSpaceOnUse">
<stop stop-color="#8F0A52"/>
<stop offset="1" stop-color="#8F0A52" stop-opacity="0.6"/>
</linearGradient>
<linearGradient id="paint27_linear_0_1" x1="7.33529" y1="1113" x2="7.33529" y2="1248.73" gradientUnits="userSpaceOnUse">
<stop stop-color="#0C1562"/>
<stop offset="1" stop-color="#8F0A52" stop-opacity="0.6"/>
</linearGradient>
<linearGradient id="paint28_linear_0_1" x1="7.33529" y1="1113" x2="7.33529" y2="1248.73" gradientUnits="userSpaceOnUse">
<stop stop-color="#0C1562"/>
<stop offset="1" stop-color="#8F0A52" stop-opacity="0.6"/>
</linearGradient>
<linearGradient id="paint29_linear_0_1" x1="5.66731" y1="1343.74" x2="5.66731" y2="1248.73" gradientUnits="userSpaceOnUse">
<stop stop-color="#8F0A52"/>
<stop offset="1" stop-color="#8F0A52" stop-opacity="0.6"/>
</linearGradient>
<linearGradient id="paint30_linear_0_1" x1="5.66731" y1="1343.74" x2="5.66731" y2="1248.73" gradientUnits="userSpaceOnUse">
<stop stop-color="#8F0A52"/>
<stop offset="1" stop-color="#8F0A52" stop-opacity="0.6"/>
</linearGradient>
<linearGradient id="paint31_linear_0_1" x1="7.33529" y1="1113" x2="7.33529" y2="1248.73" gradientUnits="userSpaceOnUse">
<stop stop-color="#0C1562"/>
<stop offset="1" stop-color="#8F0A52" stop-opacity="0.6"/>
</linearGradient>
<linearGradient id="paint32_linear_0_1" x1="5.66731" y1="1343.74" x2="5.66731" y2="1248.73" gradientUnits="userSpaceOnUse">
<stop stop-color="#8F0A52"/>
<stop offset="1" stop-color="#8F0A52" stop-opacity="0.6"/>
</linearGradient>
<linearGradient id="paint33_linear_0_1" x1="5.66731" y1="1343.74" x2="5.66731" y2="1248.73" gradientUnits="userSpaceOnUse">
<stop stop-color="#8F0A52"/>
<stop offset="1" stop-color="#8F0A52" stop-opacity="0.6"/>
</linearGradient>
<linearGradient id="paint34_linear_0_1" x1="5.99935" y1="1113" x2="5.99935" y2="1017.99" gradientUnits="userSpaceOnUse">
<stop stop-color="#8F0A52" stop-opacity="0.6"/>
<stop offset="1" stop-color="#731183"/>
</linearGradient>
<linearGradient id="paint35_linear_0_1" x1="5.99935" y1="1113" x2="5.99935" y2="1017.99" gradientUnits="userSpaceOnUse">
<stop offset="0.161" stop-color="#090909"/>
<stop offset="0.501" stop-color="#8F0A52" stop-opacity="0.6"/>
<stop offset="1" stop-color="#731183"/>
</linearGradient>
<linearGradient id="paint36_linear_0_1" x1="4.33333" y1="882.256" x2="4.33333" y2="1017.99" gradientUnits="userSpaceOnUse">
<stop stop-color="#8F0A52" stop-opacity="0.6"/>
<stop offset="0.0001" stop-color="#8F0A52"/>
<stop offset="1" stop-color="#731183"/>
</linearGradient>
<linearGradient id="paint37_linear_0_1" x1="4.99935" y1="1574.75" x2="4.99935" y2="1479.73" gradientUnits="userSpaceOnUse">
<stop stop-color="#8F0A52" stop-opacity="0.6"/>
<stop offset="1" stop-color="#731183"/>
</linearGradient>
<linearGradient id="paint38_linear_0_1" x1="4.99935" y1="1574.75" x2="4.99935" y2="1479.73" gradientUnits="userSpaceOnUse">
<stop stop-color="#8F0A52" stop-opacity="0.6"/>
<stop offset="1" stop-color="#731183"/>
</linearGradient>
<linearGradient id="paint39_linear_0_1" x1="4.99935" y1="1574.75" x2="4.99935" y2="1479.73" gradientUnits="userSpaceOnUse">
<stop stop-color="#8F0A52" stop-opacity="0.6"/>
<stop offset="1" stop-color="#731183"/>
</linearGradient>
<linearGradient id="paint40_linear_0_1" x1="4.99935" y1="1574.75" x2="4.99935" y2="1479.73" gradientUnits="userSpaceOnUse">
<stop offset="0.161" stop-color="#090909"/>
<stop offset="0.501" stop-color="#8F0A52" stop-opacity="0.6"/>
<stop offset="1" stop-color="#731183"/>
</linearGradient>
<linearGradient id="paint41_linear_0_1" x1="3.33333" y1="1344" x2="3.33333" y2="1479.73" gradientUnits="userSpaceOnUse">
<stop stop-color="#8F0A52" stop-opacity="0.6"/>
<stop offset="0.0001" stop-color="#8F0A52"/>
<stop offset="1" stop-color="#731183"/>
</linearGradient>
</defs>
</svg>
