<svg width="152" height="638" viewBox="0 0 152 638" fill="none" xmlns="http://www.w3.org/2000/svg">
<g filter="url(#filter0_f_0_1)">
<path d="M75 217V157C77.2091 157 79 158.791 79 161V213C79 215.209 77.2091 217 75 217Z" fill="url(#paint0_linear_0_1)" fill-opacity="0.6"/>
<rect x="75" y="115" width="2" height="42" fill="url(#paint1_linear_0_1)" fill-opacity="0.6"/>
<rect width="2" height="42" transform="matrix(1 0 0 -1 75 115)" fill="url(#paint2_linear_0_1)" fill-opacity="0.6"/>
<path d="M75 421V361C77.2091 361 79 362.791 79 365V417C79 419.209 77.2091 421 75 421Z" fill="url(#paint3_linear_0_1)" fill-opacity="0.6"/>
<rect x="75" y="319" width="2" height="42" fill="url(#paint4_linear_0_1)" fill-opacity="0.6"/>
<path d="M77 319V259C74.7909 259 73 260.791 73 263V315C73 317.209 74.7909 319 77 319Z" fill="url(#paint5_linear_0_1)" fill-opacity="0.6"/>
<rect width="2" height="42" transform="matrix(-1 0 0 1 77 217)" fill="url(#paint6_linear_0_1)" fill-opacity="0.6"/>
<path d="M75 217V157C77.2091 157 79 158.791 79 161V213C79 215.209 77.2091 217 75 217Z" fill="url(#paint7_linear_0_1)" fill-opacity="0.6"/>
<rect x="75" y="115" width="2" height="42" fill="url(#paint8_linear_0_1)" fill-opacity="0.6"/>
<rect width="2" height="42" transform="matrix(1 0 0 -1 75 115)" fill="url(#paint9_linear_0_1)" fill-opacity="0.6"/>
<path d="M75 421V361C77.2091 361 79 362.791 79 365V417C79 419.209 77.2091 421 75 421Z" fill="url(#paint10_linear_0_1)" fill-opacity="0.6"/>
<rect x="75" y="319" width="2" height="42" fill="url(#paint11_linear_0_1)" fill-opacity="0.6"/>
<path d="M77 319V259C74.7909 259 73 260.791 73 263V315C73 317.209 74.7909 319 77 319Z" fill="url(#paint12_linear_0_1)" fill-opacity="0.6"/>
<rect width="2" height="42" transform="matrix(-1 0 0 1 77 217)" fill="url(#paint13_linear_0_1)" fill-opacity="0.6"/>
<path d="M77 523V463C74.7909 463 73 464.791 73 467V519C73 521.209 74.7909 523 77 523Z" fill="#8F0A52" fill-opacity="0.6"/>
<rect width="2" height="42" transform="matrix(-1 0 0 1 77 421)" fill="url(#paint14_linear_0_1)" fill-opacity="0.6"/>
<rect width="2" height="42" transform="matrix(-1 0 0 1 77 421)" fill="url(#paint15_linear_0_1)" fill-opacity="0.6"/>
<rect width="2" height="42" transform="matrix(-1 0 0 1 77 523)" fill="url(#paint16_linear_0_1)" fill-opacity="0.6"/>
<rect width="2" height="42" transform="matrix(-1 0 0 1 77 523)" fill="url(#paint17_linear_0_1)" fill-opacity="0.6"/>
<g filter="url(#filter1_f_0_1)">
<path d="M75 217V157C77.2091 157 79 158.791 79 161V213C79 215.209 77.2091 217 75 217Z" fill="url(#paint18_linear_0_1)" fill-opacity="0.6"/>
<rect x="75" y="115" width="2" height="42" fill="url(#paint19_linear_0_1)" fill-opacity="0.6"/>
<rect width="2" height="42" transform="matrix(1 0 0 -1 75 115)" fill="url(#paint20_linear_0_1)" fill-opacity="0.6"/>
<path d="M75 421V361C77.2091 361 79 362.791 79 365V417C79 419.209 77.2091 421 75 421Z" fill="url(#paint21_linear_0_1)" fill-opacity="0.6"/>
<rect x="75" y="319" width="2" height="42" fill="url(#paint22_linear_0_1)" fill-opacity="0.6"/>
<path d="M77 319V259C74.7909 259 73 260.791 73 263V315C73 317.209 74.7909 319 77 319Z" fill="url(#paint23_linear_0_1)" fill-opacity="0.6"/>
<rect width="2" height="42" transform="matrix(-1 0 0 1 77 217)" fill="url(#paint24_linear_0_1)" fill-opacity="0.6"/>
<path d="M77 523V463C74.7909 463 73 464.791 73 467V519C73 521.209 74.7909 523 77 523Z" fill="#8F0A52" fill-opacity="0.6"/>
<rect width="2" height="42" transform="matrix(-1 0 0 1 77 421)" fill="url(#paint25_linear_0_1)" fill-opacity="0.6"/>
<rect width="2" height="42" transform="matrix(-1 0 0 1 77 421)" fill="url(#paint26_linear_0_1)" fill-opacity="0.6"/>
<rect width="2" height="42" transform="matrix(-1 0 0 1 77 523)" fill="url(#paint27_linear_0_1)" fill-opacity="0.6"/>
<rect width="2" height="42" transform="matrix(-1 0 0 1 77 523)" fill="url(#paint28_linear_0_1)" fill-opacity="0.6"/>
</g>
<path d="M77 523V463C74.7909 463 73 464.791 73 467V519C73 521.209 74.7909 523 77 523Z" fill="url(#paint29_linear_0_1)" fill-opacity="0.6"/>
</g>
<path d="M75 217V157C77.2091 157 79 158.791 79 161V213C79 215.209 77.2091 217 75 217Z" fill="url(#paint30_linear_0_1)" fill-opacity="0.6"/>
<rect x="75" y="115" width="2" height="42" fill="url(#paint31_linear_0_1)" fill-opacity="0.6"/>
<rect width="2" height="42" transform="matrix(1 0 0 -1 75 115)" fill="url(#paint32_linear_0_1)" fill-opacity="0.6"/>
<path d="M75 421V361C77.2091 361 79 362.791 79 365V417C79 419.209 77.2091 421 75 421Z" fill="url(#paint33_linear_0_1)" fill-opacity="0.6"/>
<rect x="75" y="319" width="2" height="42" fill="url(#paint34_linear_0_1)" fill-opacity="0.6"/>
<path d="M77 319V259C74.7909 259 73 260.791 73 263V315C73 317.209 74.7909 319 77 319Z" fill="url(#paint35_linear_0_1)" fill-opacity="0.6"/>
<rect width="2" height="42" transform="matrix(-1 0 0 1 77 217)" fill="url(#paint36_linear_0_1)" fill-opacity="0.6"/>
<path d="M75 217V157C77.2091 157 79 158.791 79 161V213C79 215.209 77.2091 217 75 217Z" fill="url(#paint37_linear_0_1)" fill-opacity="0.6"/>
<rect x="75" y="115" width="2" height="42" fill="url(#paint38_linear_0_1)" fill-opacity="0.6"/>
<rect width="2" height="42" transform="matrix(1 0 0 -1 75 115)" fill="url(#paint39_linear_0_1)" fill-opacity="0.6"/>
<path d="M75 421V361C77.2091 361 79 362.791 79 365V417C79 419.209 77.2091 421 75 421Z" fill="url(#paint40_linear_0_1)" fill-opacity="0.6"/>
<rect x="75" y="319" width="2" height="42" fill="url(#paint41_linear_0_1)" fill-opacity="0.6"/>
<path d="M77 319V259C74.7909 259 73 260.791 73 263V315C73 317.209 74.7909 319 77 319Z" fill="url(#paint42_linear_0_1)" fill-opacity="0.6"/>
<rect width="2" height="42" transform="matrix(-1 0 0 1 77 217)" fill="url(#paint43_linear_0_1)" fill-opacity="0.6"/>
<path d="M77 523V463C74.7909 463 73 464.791 73 467V519C73 521.209 74.7909 523 77 523Z" fill="#8F0A52" fill-opacity="0.6"/>
<rect width="2" height="42" transform="matrix(-1 0 0 1 77 421)" fill="url(#paint44_linear_0_1)" fill-opacity="0.6"/>
<rect width="2" height="42" transform="matrix(-1 0 0 1 77 421)" fill="url(#paint45_linear_0_1)" fill-opacity="0.6"/>
<rect width="2" height="42" transform="matrix(-1 0 0 1 77 523)" fill="url(#paint46_linear_0_1)" fill-opacity="0.6"/>
<rect width="2" height="42" transform="matrix(-1 0 0 1 77 523)" fill="url(#paint47_linear_0_1)" fill-opacity="0.6"/>
<g filter="url(#filter2_f_0_1)">
<path d="M75 217V157C77.2091 157 79 158.791 79 161V213C79 215.209 77.2091 217 75 217Z" fill="url(#paint48_linear_0_1)" fill-opacity="0.6"/>
<rect x="75" y="115" width="2" height="42" fill="url(#paint49_linear_0_1)" fill-opacity="0.6"/>
<rect width="2" height="42" transform="matrix(1 0 0 -1 75 115)" fill="url(#paint50_linear_0_1)" fill-opacity="0.6"/>
<path d="M75 421V361C77.2091 361 79 362.791 79 365V417C79 419.209 77.2091 421 75 421Z" fill="url(#paint51_linear_0_1)" fill-opacity="0.6"/>
<rect x="75" y="319" width="2" height="42" fill="url(#paint52_linear_0_1)" fill-opacity="0.6"/>
<path d="M77 319V259C74.7909 259 73 260.791 73 263V315C73 317.209 74.7909 319 77 319Z" fill="url(#paint53_linear_0_1)" fill-opacity="0.6"/>
<rect width="2" height="42" transform="matrix(-1 0 0 1 77 217)" fill="url(#paint54_linear_0_1)" fill-opacity="0.6"/>
<path d="M77 523V463C74.7909 463 73 464.791 73 467V519C73 521.209 74.7909 523 77 523Z" fill="#8F0A52" fill-opacity="0.6"/>
<rect width="2" height="42" transform="matrix(-1 0 0 1 77 421)" fill="url(#paint55_linear_0_1)" fill-opacity="0.6"/>
<rect width="2" height="42" transform="matrix(-1 0 0 1 77 421)" fill="url(#paint56_linear_0_1)" fill-opacity="0.6"/>
<rect width="2" height="42" transform="matrix(-1 0 0 1 77 523)" fill="url(#paint57_linear_0_1)" fill-opacity="0.6"/>
<rect width="2" height="42" transform="matrix(-1 0 0 1 77 523)" fill="url(#paint58_linear_0_1)" fill-opacity="0.6"/>
</g>
<path d="M77 523V463C74.7909 463 73 464.791 73 467V519C73 521.209 74.7909 523 77 523Z" fill="url(#paint59_linear_0_1)" fill-opacity="0.6"/>
<defs>
<filter id="filter0_f_0_1" x="33" y="33" width="86" height="572" filterUnits="userSpaceOnUse" color-interpolation-filters="sRGB">
<feFlood flood-opacity="0" result="BackgroundImageFix"/>
<feBlend mode="normal" in="SourceGraphic" in2="BackgroundImageFix" result="shape"/>
<feGaussianBlur stdDeviation="20" result="effect1_foregroundBlur_0_1"/>
</filter>
<filter id="filter1_f_0_1" x="0" y="0" width="152" height="638" filterUnits="userSpaceOnUse" color-interpolation-filters="sRGB">
<feFlood flood-opacity="0" result="BackgroundImageFix"/>
<feBlend mode="normal" in="SourceGraphic" in2="BackgroundImageFix" result="shape"/>
<feGaussianBlur stdDeviation="36.5" result="effect1_foregroundBlur_0_1"/>
</filter>
<filter id="filter2_f_0_1" x="0" y="0" width="152" height="638" filterUnits="userSpaceOnUse" color-interpolation-filters="sRGB">
<feFlood flood-opacity="0" result="BackgroundImageFix"/>
<feBlend mode="normal" in="SourceGraphic" in2="BackgroundImageFix" result="shape"/>
<feGaussianBlur stdDeviation="36.5" result="effect1_foregroundBlur_0_1"/>
</filter>
<linearGradient id="paint0_linear_0_1" x1="77" y1="157" x2="77" y2="217" gradientUnits="userSpaceOnUse">
<stop stop-color="#8F0A52" stop-opacity="0.6"/>
<stop offset="0.0001" stop-color="#8F0A52"/>
<stop offset="1" stop-color="#731183"/>
</linearGradient>
<linearGradient id="paint1_linear_0_1" x1="76" y1="115" x2="76" y2="157" gradientUnits="userSpaceOnUse">
<stop stop-color="#8F0A52" stop-opacity="0.6"/>
<stop offset="0.9999" stop-color="#8F0A52"/>
<stop offset="1" stop-color="#731183"/>
</linearGradient>
<linearGradient id="paint2_linear_0_1" x1="1" y1="0" x2="1" y2="42" gradientUnits="userSpaceOnUse">
<stop stop-color="#8F0A52" stop-opacity="0.6"/>
<stop offset="0.481" stop-color="#8F0A52"/>
<stop offset="1" stop-color="#090909"/>
</linearGradient>
<linearGradient id="paint3_linear_0_1" x1="77" y1="361" x2="77" y2="421" gradientUnits="userSpaceOnUse">
<stop stop-color="#0C1562"/>
<stop offset="1" stop-color="#8F0A52" stop-opacity="0.6"/>
</linearGradient>
<linearGradient id="paint4_linear_0_1" x1="76" y1="319" x2="76" y2="361" gradientUnits="userSpaceOnUse">
<stop stop-color="#0C1562" stop-opacity="0.6"/>
<stop offset="1" stop-color="#0C1562"/>
</linearGradient>
<linearGradient id="paint5_linear_0_1" x1="75" y1="259" x2="75" y2="319" gradientUnits="userSpaceOnUse">
<stop stop-color="#731183" stop-opacity="0.6"/>
<stop offset="1" stop-color="#0C1562"/>
</linearGradient>
<linearGradient id="paint6_linear_0_1" x1="1" y1="42" x2="1" y2="0" gradientUnits="userSpaceOnUse">
<stop stop-color="#731183" stop-opacity="0.6"/>
<stop offset="1" stop-color="#731183"/>
</linearGradient>
<linearGradient id="paint7_linear_0_1" x1="77" y1="157" x2="77" y2="217" gradientUnits="userSpaceOnUse">
<stop stop-color="#8F0A52" stop-opacity="0.6"/>
<stop offset="0.0001" stop-color="#8F0A52"/>
<stop offset="1" stop-color="#731183"/>
</linearGradient>
<linearGradient id="paint8_linear_0_1" x1="76" y1="115" x2="76" y2="157" gradientUnits="userSpaceOnUse">
<stop stop-color="#8F0A52" stop-opacity="0.6"/>
<stop offset="0.9999" stop-color="#8F0A52"/>
<stop offset="1" stop-color="#731183"/>
</linearGradient>
<linearGradient id="paint9_linear_0_1" x1="1" y1="0" x2="1" y2="42" gradientUnits="userSpaceOnUse">
<stop stop-color="#8F0A52" stop-opacity="0.6"/>
<stop offset="0.296" stop-color="#8F0A52"/>
<stop offset="0.721" stop-color="#090909"/>
</linearGradient>
<linearGradient id="paint10_linear_0_1" x1="77" y1="361" x2="77" y2="421" gradientUnits="userSpaceOnUse">
<stop stop-color="#0C1562"/>
<stop offset="1" stop-color="#8F0A52" stop-opacity="0.6"/>
</linearGradient>
<linearGradient id="paint11_linear_0_1" x1="76" y1="319" x2="76" y2="361" gradientUnits="userSpaceOnUse">
<stop stop-color="#0C1562" stop-opacity="0.6"/>
<stop offset="1" stop-color="#0C1562"/>
</linearGradient>
<linearGradient id="paint12_linear_0_1" x1="75" y1="259" x2="75" y2="319" gradientUnits="userSpaceOnUse">
<stop stop-color="#731183" stop-opacity="0.6"/>
<stop offset="1" stop-color="#0C1562"/>
</linearGradient>
<linearGradient id="paint13_linear_0_1" x1="1" y1="42" x2="1" y2="0" gradientUnits="userSpaceOnUse">
<stop stop-color="#731183" stop-opacity="0.6"/>
<stop offset="1" stop-color="#731183"/>
</linearGradient>
<linearGradient id="paint14_linear_0_1" x1="1" y1="42" x2="1" y2="0" gradientUnits="userSpaceOnUse">
<stop stop-color="#8F0A52"/>
<stop offset="1" stop-color="#8F0A52" stop-opacity="0.6"/>
</linearGradient>
<linearGradient id="paint15_linear_0_1" x1="1" y1="42" x2="1" y2="0" gradientUnits="userSpaceOnUse">
<stop stop-color="#8F0A52"/>
<stop offset="1" stop-color="#8F0A52" stop-opacity="0.6"/>
</linearGradient>
<linearGradient id="paint16_linear_0_1" x1="1" y1="42" x2="1" y2="0" gradientUnits="userSpaceOnUse">
<stop stop-color="#8F0A52" stop-opacity="0.6"/>
<stop offset="1" stop-color="#731183"/>
</linearGradient>
<linearGradient id="paint17_linear_0_1" x1="1" y1="42" x2="1" y2="0" gradientUnits="userSpaceOnUse">
<stop stop-color="#8F0A52" stop-opacity="0.6"/>
<stop offset="1" stop-color="#731183"/>
</linearGradient>
<linearGradient id="paint18_linear_0_1" x1="77" y1="157" x2="77" y2="217" gradientUnits="userSpaceOnUse">
<stop stop-color="#8F0A52" stop-opacity="0.6"/>
<stop offset="0.0001" stop-color="#8F0A52"/>
<stop offset="1" stop-color="#731183"/>
</linearGradient>
<linearGradient id="paint19_linear_0_1" x1="76" y1="115" x2="76" y2="157" gradientUnits="userSpaceOnUse">
<stop stop-color="#8F0A52" stop-opacity="0.6"/>
<stop offset="0.9999" stop-color="#8F0A52"/>
<stop offset="1" stop-color="#731183"/>
</linearGradient>
<linearGradient id="paint20_linear_0_1" x1="1" y1="0" x2="1" y2="42" gradientUnits="userSpaceOnUse">
<stop stop-color="#8F0A52" stop-opacity="0.6"/>
<stop offset="0.296" stop-color="#8F0A52"/>
<stop offset="0.721" stop-color="#090909"/>
</linearGradient>
<linearGradient id="paint21_linear_0_1" x1="77" y1="361" x2="77" y2="421" gradientUnits="userSpaceOnUse">
<stop stop-color="#0C1562"/>
<stop offset="1" stop-color="#8F0A52" stop-opacity="0.6"/>
</linearGradient>
<linearGradient id="paint22_linear_0_1" x1="76" y1="319" x2="76" y2="361" gradientUnits="userSpaceOnUse">
<stop stop-color="#0C1562" stop-opacity="0.6"/>
<stop offset="1" stop-color="#0C1562"/>
</linearGradient>
<linearGradient id="paint23_linear_0_1" x1="75" y1="259" x2="75" y2="319" gradientUnits="userSpaceOnUse">
<stop stop-color="#731183" stop-opacity="0.6"/>
<stop offset="1" stop-color="#0C1562"/>
</linearGradient>
<linearGradient id="paint24_linear_0_1" x1="1" y1="42" x2="1" y2="0" gradientUnits="userSpaceOnUse">
<stop stop-color="#731183" stop-opacity="0.6"/>
<stop offset="1" stop-color="#731183"/>
</linearGradient>
<linearGradient id="paint25_linear_0_1" x1="1" y1="42" x2="1" y2="0" gradientUnits="userSpaceOnUse">
<stop stop-color="#8F0A52"/>
<stop offset="1" stop-color="#8F0A52" stop-opacity="0.6"/>
</linearGradient>
<linearGradient id="paint26_linear_0_1" x1="1" y1="42" x2="1" y2="0" gradientUnits="userSpaceOnUse">
<stop stop-color="#8F0A52"/>
<stop offset="1" stop-color="#8F0A52" stop-opacity="0.6"/>
</linearGradient>
<linearGradient id="paint27_linear_0_1" x1="1" y1="42" x2="1" y2="0" gradientUnits="userSpaceOnUse">
<stop stop-color="#8F0A52" stop-opacity="0.6"/>
<stop offset="1" stop-color="#731183"/>
</linearGradient>
<linearGradient id="paint28_linear_0_1" x1="1" y1="42" x2="1" y2="0" gradientUnits="userSpaceOnUse">
<stop stop-color="#8F0A52" stop-opacity="0.6"/>
<stop offset="1" stop-color="#731183"/>
</linearGradient>
<linearGradient id="paint29_linear_0_1" x1="75" y1="463" x2="75" y2="523" gradientUnits="userSpaceOnUse">
<stop stop-color="#8F0A52" stop-opacity="0.6"/>
<stop offset="0.0001" stop-color="#8F0A52"/>
<stop offset="1" stop-color="#731183"/>
</linearGradient>
<linearGradient id="paint30_linear_0_1" x1="77" y1="157" x2="77" y2="217" gradientUnits="userSpaceOnUse">
<stop stop-color="#8F0A52" stop-opacity="0.6"/>
<stop offset="0.0001" stop-color="#8F0A52"/>
<stop offset="1" stop-color="#731183"/>
</linearGradient>
<linearGradient id="paint31_linear_0_1" x1="76" y1="115" x2="76" y2="157" gradientUnits="userSpaceOnUse">
<stop stop-color="#8F0A52" stop-opacity="0.6"/>
<stop offset="0.9999" stop-color="#8F0A52"/>
<stop offset="1" stop-color="#731183"/>
</linearGradient>
<linearGradient id="paint32_linear_0_1" x1="1" y1="0" x2="1" y2="42" gradientUnits="userSpaceOnUse">
<stop stop-color="#8F0A52" stop-opacity="0.6"/>
<stop offset="0.481" stop-color="#8F0A52"/>
<stop offset="1" stop-color="#090909"/>
</linearGradient>
<linearGradient id="paint33_linear_0_1" x1="77" y1="361" x2="77" y2="421" gradientUnits="userSpaceOnUse">
<stop stop-color="#0C1562"/>
<stop offset="1" stop-color="#8F0A52" stop-opacity="0.6"/>
</linearGradient>
<linearGradient id="paint34_linear_0_1" x1="76" y1="319" x2="76" y2="361" gradientUnits="userSpaceOnUse">
<stop stop-color="#0C1562" stop-opacity="0.6"/>
<stop offset="1" stop-color="#0C1562"/>
</linearGradient>
<linearGradient id="paint35_linear_0_1" x1="75" y1="259" x2="75" y2="319" gradientUnits="userSpaceOnUse">
<stop stop-color="#731183" stop-opacity="0.6"/>
<stop offset="1" stop-color="#0C1562"/>
</linearGradient>
<linearGradient id="paint36_linear_0_1" x1="1" y1="42" x2="1" y2="0" gradientUnits="userSpaceOnUse">
<stop stop-color="#731183" stop-opacity="0.6"/>
<stop offset="1" stop-color="#731183"/>
</linearGradient>
<linearGradient id="paint37_linear_0_1" x1="77" y1="157" x2="77" y2="217" gradientUnits="userSpaceOnUse">
<stop stop-color="#8F0A52" stop-opacity="0.6"/>
<stop offset="0.0001" stop-color="#8F0A52"/>
<stop offset="1" stop-color="#731183"/>
</linearGradient>
<linearGradient id="paint38_linear_0_1" x1="76" y1="115" x2="76" y2="157" gradientUnits="userSpaceOnUse">
<stop stop-color="#8F0A52" stop-opacity="0.6"/>
<stop offset="0.9999" stop-color="#8F0A52"/>
<stop offset="1" stop-color="#731183"/>
</linearGradient>
<linearGradient id="paint39_linear_0_1" x1="1" y1="0" x2="1" y2="42" gradientUnits="userSpaceOnUse">
<stop stop-color="#8F0A52" stop-opacity="0.6"/>
<stop offset="0.296" stop-color="#8F0A52"/>
<stop offset="0.721" stop-color="#090909"/>
</linearGradient>
<linearGradient id="paint40_linear_0_1" x1="77" y1="361" x2="77" y2="421" gradientUnits="userSpaceOnUse">
<stop stop-color="#0C1562"/>
<stop offset="1" stop-color="#8F0A52" stop-opacity="0.6"/>
</linearGradient>
<linearGradient id="paint41_linear_0_1" x1="76" y1="319" x2="76" y2="361" gradientUnits="userSpaceOnUse">
<stop stop-color="#0C1562" stop-opacity="0.6"/>
<stop offset="1" stop-color="#0C1562"/>
</linearGradient>
<linearGradient id="paint42_linear_0_1" x1="75" y1="259" x2="75" y2="319" gradientUnits="userSpaceOnUse">
<stop stop-color="#731183" stop-opacity="0.6"/>
<stop offset="1" stop-color="#0C1562"/>
</linearGradient>
<linearGradient id="paint43_linear_0_1" x1="1" y1="42" x2="1" y2="0" gradientUnits="userSpaceOnUse">
<stop stop-color="#731183" stop-opacity="0.6"/>
<stop offset="1" stop-color="#731183"/>
</linearGradient>
<linearGradient id="paint44_linear_0_1" x1="1" y1="42" x2="1" y2="0" gradientUnits="userSpaceOnUse">
<stop stop-color="#8F0A52"/>
<stop offset="1" stop-color="#8F0A52" stop-opacity="0.6"/>
</linearGradient>
<linearGradient id="paint45_linear_0_1" x1="1" y1="42" x2="1" y2="0" gradientUnits="userSpaceOnUse">
<stop stop-color="#8F0A52"/>
<stop offset="1" stop-color="#8F0A52" stop-opacity="0.6"/>
</linearGradient>
<linearGradient id="paint46_linear_0_1" x1="1" y1="42" x2="1" y2="0" gradientUnits="userSpaceOnUse">
<stop stop-color="#8F0A52" stop-opacity="0.6"/>
<stop offset="1" stop-color="#731183"/>
</linearGradient>
<linearGradient id="paint47_linear_0_1" x1="1" y1="42" x2="1" y2="0" gradientUnits="userSpaceOnUse">
<stop stop-color="#8F0A52" stop-opacity="0.6"/>
<stop offset="1" stop-color="#731183"/>
</linearGradient>
<linearGradient id="paint48_linear_0_1" x1="77" y1="157" x2="77" y2="217" gradientUnits="userSpaceOnUse">
<stop stop-color="#8F0A52" stop-opacity="0.6"/>
<stop offset="0.0001" stop-color="#8F0A52"/>
<stop offset="1" stop-color="#731183"/>
</linearGradient>
<linearGradient id="paint49_linear_0_1" x1="76" y1="115" x2="76" y2="157" gradientUnits="userSpaceOnUse">
<stop stop-color="#8F0A52" stop-opacity="0.6"/>
<stop offset="0.9999" stop-color="#8F0A52"/>
<stop offset="1" stop-color="#731183"/>
</linearGradient>
<linearGradient id="paint50_linear_0_1" x1="1" y1="0" x2="1" y2="42" gradientUnits="userSpaceOnUse">
<stop stop-color="#8F0A52" stop-opacity="0.6"/>
<stop offset="0.296" stop-color="#8F0A52"/>
<stop offset="0.721" stop-color="#090909"/>
</linearGradient>
<linearGradient id="paint51_linear_0_1" x1="77" y1="361" x2="77" y2="421" gradientUnits="userSpaceOnUse">
<stop stop-color="#0C1562"/>
<stop offset="1" stop-color="#8F0A52" stop-opacity="0.6"/>
</linearGradient>
<linearGradient id="paint52_linear_0_1" x1="76" y1="319" x2="76" y2="361" gradientUnits="userSpaceOnUse">
<stop stop-color="#0C1562" stop-opacity="0.6"/>
<stop offset="1" stop-color="#0C1562"/>
</linearGradient>
<linearGradient id="paint53_linear_0_1" x1="75" y1="259" x2="75" y2="319" gradientUnits="userSpaceOnUse">
<stop stop-color="#731183" stop-opacity="0.6"/>
<stop offset="1" stop-color="#0C1562"/>
</linearGradient>
<linearGradient id="paint54_linear_0_1" x1="1" y1="42" x2="1" y2="0" gradientUnits="userSpaceOnUse">
<stop stop-color="#731183" stop-opacity="0.6"/>
<stop offset="1" stop-color="#731183"/>
</linearGradient>
<linearGradient id="paint55_linear_0_1" x1="1" y1="42" x2="1" y2="0" gradientUnits="userSpaceOnUse">
<stop stop-color="#8F0A52"/>
<stop offset="1" stop-color="#8F0A52" stop-opacity="0.6"/>
</linearGradient>
<linearGradient id="paint56_linear_0_1" x1="1" y1="42" x2="1" y2="0" gradientUnits="userSpaceOnUse">
<stop stop-color="#8F0A52"/>
<stop offset="1" stop-color="#8F0A52" stop-opacity="0.6"/>
</linearGradient>
<linearGradient id="paint57_linear_0_1" x1="1" y1="42" x2="1" y2="0" gradientUnits="userSpaceOnUse">
<stop stop-color="#8F0A52" stop-opacity="0.6"/>
<stop offset="1" stop-color="#731183"/>
</linearGradient>
<linearGradient id="paint58_linear_0_1" x1="1" y1="42" x2="1" y2="0" gradientUnits="userSpaceOnUse">
<stop offset="0.161" stop-color="#090909"/>
<stop offset="0.501" stop-color="#8F0A52" stop-opacity="0.6"/>
<stop offset="1" stop-color="#731183"/>
</linearGradient>
<linearGradient id="paint59_linear_0_1" x1="75" y1="463" x2="75" y2="523" gradientUnits="userSpaceOnUse">
<stop stop-color="#8F0A52" stop-opacity="0.6"/>
<stop offset="0.0001" stop-color="#8F0A52"/>
<stop offset="1" stop-color="#731183"/>
</linearGradient>
</defs>
</svg>
