<?xml version="1.0" encoding="UTF-8"?>
<!DOCTYPE svg PUBLIC "-//W3C//DTD SVG 1.1//EN" "http://www.w3.org/Graphics/SVG/1.1/DTD/svg11.dtd">
<svg xmlns="http://www.w3.org/2000/svg" version="1.1" width="1638px" height="1638px" style="shape-rendering:geometricPrecision; text-rendering:geometricPrecision; image-rendering:optimizeQuality; fill-rule:evenodd; clip-rule:evenodd" xmlns:xlink="http://www.w3.org/1999/xlink">
<g><path style="opacity:1" fill="#fbfbfb" d="M 631.5,7.5 C 649.396,23.727 666.729,40.727 683.5,58.5C 672.5,69.8333 661.5,81.1667 650.5,92.5C 661.689,103.856 673.356,114.69 685.5,125C 668.241,141.77 651.575,158.937 635.5,176.5C 634.675,177.386 633.675,177.719 632.5,177.5C 632.667,155.831 632.5,134.164 632,112.5C 630.853,111.542 629.853,111.875 629,113.5C 622.373,121.796 615.373,129.796 608,137.5C 603.779,133.279 599.613,129.113 595.5,125C 607.284,115.384 618.284,104.884 628.5,93.5C 617.226,81.7278 605.893,70.2278 594.5,59C 597.451,55.0459 600.784,51.3793 604.5,48C 605.5,47.3333 606.5,47.3333 607.5,48C 615,56.1667 622.5,64.3333 630,72.5C 630.333,72.1667 630.667,71.8333 631,71.5C 631.5,50.1693 631.667,28.8359 631.5,7.5 Z M 647.5,44.5 C 652.266,49.1624 656.933,53.9957 661.5,59C 657.301,63.5343 652.801,67.701 648,71.5C 647.5,62.5062 647.334,53.5062 647.5,44.5 Z M 649.5,115.5 C 653.145,119.48 656.811,123.48 660.5,127.5C 657.016,131.485 653.349,135.318 649.5,139C 648.563,139.692 647.897,139.525 647.5,138.5C 648.167,130.833 648.833,123.167 649.5,115.5 Z"/></g>
<g><path style="opacity:1" fill="#fafafb" d="M 1014.5,30.5 C 1054.18,28.8875 1088.35,41.5542 1117,68.5C 1117.67,69.5 1117.67,70.5 1117,71.5C 1111.62,77.2122 1105.96,82.5455 1100,87.5C 1065.31,56.4668 1026.14,49.3002 982.5,66C 970.04,71.6415 958.873,79.1415 949,88.5C 943.333,82.8333 937.667,77.1667 932,71.5C 932.088,68.3578 933.588,65.8578 936.5,64C 959.046,44.7634 985.046,33.5967 1014.5,30.5 Z"/></g>
<g><path style="opacity:1" fill="#fbfbfb" d="M 1015.5,75.5 C 1043.26,73.5247 1066.92,82.1914 1086.5,101.5C 1080.85,107.652 1075.01,113.652 1069,119.5C 1059.44,113.137 1049.27,107.971 1038.5,104C 1026.6,100.356 1014.93,101.023 1003.5,106C 995.586,109.871 988.086,114.371 981,119.5C 974.407,113.597 968.741,107.264 964,100.5C 978.273,86.1131 995.44,77.7797 1015.5,75.5 Z"/></g>
<g><path style="opacity:0.089" fill="#b3b4b6" d="M 649.5,115.5 C 648.833,123.167 648.167,130.833 647.5,138.5C 647.334,130.16 647.5,121.827 648,113.5C 648.717,114.044 649.217,114.711 649.5,115.5 Z"/></g>
<g><path style="opacity:1" fill="#f9f9f9" d="M 1019.5,120.5 C 1037.48,120.308 1044.65,128.975 1041,146.5C 1033.81,156.893 1024.65,159.059 1013.5,153C 1003.99,142.711 1004.32,132.711 1014.5,123C 1016.31,122.243 1017.98,121.41 1019.5,120.5 Z"/></g>
<g><path style="opacity:1" fill="#fcfcfc" d="M 539.5,214.5 C 606.167,214.333 672.834,214.5 739.5,215C 740.491,230.756 740.825,246.589 740.5,262.5C 806.5,262.5 872.5,262.5 938.5,262.5C 938.175,246.589 938.509,230.756 939.5,215C 1006.17,214.333 1072.83,214.333 1139.5,215C 1140.49,230.756 1140.82,246.589 1140.5,262.5C 1166.17,262.5 1191.83,262.5 1217.5,262.5C 1217.33,303.501 1217.5,344.501 1218,385.5C 1252.99,420.137 1274.82,461.804 1283.5,510.5C 1305.5,510.5 1327.5,510.5 1349.5,510.5C 1349.5,536.833 1349.5,563.167 1349.5,589.5C 1327.17,589.5 1304.83,589.5 1282.5,589.5C 1273.3,636.245 1251.8,676.245 1218,709.5C 1217.5,782.499 1217.33,855.499 1217.5,928.5C 964.167,928.5 710.833,928.5 457.5,928.5C 457.667,860.499 457.5,792.499 457,724.5C 413.495,689.512 386.329,644.512 375.5,589.5C 354.497,589.667 333.497,589.5 312.5,589C 311.838,576.073 311.504,563.073 311.5,550C 311.504,536.927 311.838,523.927 312.5,511C 333.164,510.5 353.831,510.333 374.5,510.5C 384.97,453.205 412.637,406.205 457.5,369.5C 456.34,334.208 456.174,298.875 457,263.5C 484.426,262.505 511.926,262.172 539.5,262.5C 539.5,246.5 539.5,230.5 539.5,214.5 Z M 476.5,281.5 C 717.167,281.5 957.833,281.5 1198.5,281.5C 1198.83,310.671 1198.5,339.671 1197.5,368.5C 1140.74,326.647 1077.74,313.48 1008.5,329C 927.779,351.389 873.945,402.222 847,481.5C 844.04,491.004 841.874,500.671 840.5,510.5C 832.833,510.5 825.167,510.5 817.5,510.5C 804.998,443.289 769.998,391.455 712.5,355C 649.921,319.403 584.587,313.403 516.5,337C 502.916,342.459 489.916,348.959 477.5,356.5C 476.502,331.672 476.169,306.672 476.5,281.5 Z M 586.5,341.5 C 660.448,341.06 719.615,370.06 764,428.5C 803.891,488.75 811.891,553.083 788,621.5C 760.307,687.522 711.807,729.689 642.5,748C 565.144,762.877 498.977,742.377 444,686.5C 398.196,633.63 381.862,572.63 395,503.5C 416.408,421.092 468.242,368.925 550.5,347C 562.547,344.498 574.547,342.665 586.5,341.5 Z M 1052.5,341.5 C 1126.42,341.035 1185.59,370.035 1230,428.5C 1270.47,489.857 1278.14,555.19 1253,624.5C 1215.83,706.275 1152.17,749.275 1062,753.5C 987.414,750.887 929.414,718.887 888,657.5C 852.33,597.125 846.997,534.125 872,468.5C 900.325,404.516 948.492,364.016 1016.5,347C 1028.55,344.498 1040.55,342.665 1052.5,341.5 Z M 1197.5,726.5 C 1198.5,787.331 1198.83,848.331 1198.5,909.5C 957.833,909.5 717.167,909.5 476.5,909.5C 476.168,852.331 476.501,795.331 477.5,738.5C 544.218,777.67 613.552,782.837 685.5,754C 756.426,720.904 800.092,666.071 816.5,589.5C 824.833,589.5 833.167,589.5 841.5,589.5C 855.124,655.952 890.791,706.786 948.5,742C 1024.18,782.666 1099.85,782.666 1175.5,742C 1183.29,737.359 1190.62,732.192 1197.5,726.5 Z"/></g>
<g><path style="opacity:0.823" fill="#bdbec0" d="M 558.5,234.5 C 612.833,234.5 667.167,234.5 721.5,234.5C 721.5,241.167 721.5,247.833 721.5,254.5C 667.167,254.5 612.833,254.5 558.5,254.5C 558.5,247.833 558.5,241.167 558.5,234.5 Z"/></g>
<g><path style="opacity:0.823" fill="#bcbdbf" d="M 958.5,234.5 C 1012.5,234.5 1066.5,234.5 1120.5,234.5C 1120.5,240.833 1120.5,247.167 1120.5,253.5C 1066.5,253.5 1012.5,253.5 958.5,253.5C 958.5,247.167 958.5,240.833 958.5,234.5 Z"/></g>
<g><path style="opacity:0.874" fill="#c6c6c8" d="M 958.5,234.5 C 958.5,240.833 958.5,247.167 958.5,253.5C 1012.5,253.5 1066.5,253.5 1120.5,253.5C 1066.34,254.499 1012,254.832 957.5,254.5C 957.176,247.646 957.509,240.979 958.5,234.5 Z"/></g>
<g><path style="opacity:0.518" fill="#b0b0b1" d="M 476.5,281.5 C 476.169,306.672 476.502,331.672 477.5,356.5C 477.44,357.043 477.107,357.376 476.5,357.5C 475.171,332.003 475.171,306.67 476.5,281.5 Z"/></g>
<g><path style="opacity:0.783" fill="#b9b9ba" d="M 1198.5,281.5 C 1199.83,310.669 1199.83,340.003 1198.5,369.5C 1197.89,369.376 1197.56,369.043 1197.5,368.5C 1198.5,339.671 1198.83,310.671 1198.5,281.5 Z"/></g>
<g><path style="opacity:1" fill="#fefefe" d="M 607.5,485.5 C 651.77,482.218 685.603,499.218 709,536.5C 724.876,568.186 725.543,600.186 711,632.5C 688.297,671.773 654.13,689.94 608.5,687C 558.761,678.26 529.261,649.094 520,599.5C 516.62,546.398 539.453,509.898 588.5,490C 594.89,488.16 601.224,486.66 607.5,485.5 Z"/></g>
<g><path style="opacity:1" fill="#fefefe" d="M 1034.5,485.5 C 1078.38,482.357 1112.21,499.024 1136,535.5C 1156.34,575.747 1153.34,614.08 1127,650.5C 1094.09,686.27 1054.59,696.103 1008.5,680C 969.234,661.333 948.567,630.166 946.5,586.5C 949.13,540.723 971.464,508.89 1013.5,491C 1020.51,488.705 1027.51,486.872 1034.5,485.5 Z"/></g>
<g><path style="opacity:0.784" fill="#b9b9ba" d="M 1197.5,726.5 C 1197.56,725.957 1197.89,725.624 1198.5,725.5C 1199.83,786.999 1199.83,848.332 1198.5,909.5C 1198.83,848.331 1198.5,787.331 1197.5,726.5 Z"/></g>
<g><path style="opacity:0.517" fill="#afb0b0" d="M 477.5,738.5 C 476.501,795.331 476.168,852.331 476.5,909.5C 475.169,852.332 475.169,794.999 476.5,737.5C 477.107,737.624 477.44,737.957 477.5,738.5 Z"/></g>
<g><path style="opacity:1" fill="#f9f9f9" d="M 780.5,753.5 C 787.768,752.79 792.101,755.956 793.5,763C 791.158,779.052 788.491,795.052 785.5,811C 785.645,811.772 785.978,812.439 786.5,813C 820.217,818.619 853.883,824.453 887.5,830.5C 887.333,815.163 887.5,799.83 888,784.5C 890.336,777.082 895.169,774.582 902.5,777C 904.378,778.543 905.878,780.376 907,782.5C 907.988,806.314 907.655,829.981 906,853.5C 858.829,845.332 811.663,836.999 764.5,828.5C 766.779,805.142 770.279,781.809 775,758.5C 776.73,756.598 778.563,754.931 780.5,753.5 Z"/></g>
<g><path style="opacity:1" fill="#fcfcfc" d="M 222.5,1240.5 C 222.709,1241.92 223.209,1243.26 224,1244.5C 224.5,1203.83 224.667,1163.17 224.5,1122.5C 221.505,1105.66 228.172,1099.49 244.5,1104C 246.041,1105.58 247.208,1107.41 248,1109.5C 248.5,1168.5 248.667,1227.5 248.5,1286.5C 238.161,1286.67 227.828,1286.5 217.5,1286C 196.613,1239.72 176.113,1193.22 156,1146.5C 155.667,1190.83 155.333,1235.17 155,1279.5C 154.167,1282.33 152.333,1284.17 149.5,1285C 145.5,1285.67 141.5,1285.67 137.5,1285C 135.714,1284.22 134.214,1283.05 133,1281.5C 131.512,1221.89 131.012,1162.23 131.5,1102.5C 142.415,1102.18 153.248,1102.51 164,1103.5C 183.798,1149.07 203.298,1194.73 222.5,1240.5 Z"/></g>
<g><path style="opacity:1" fill="#fcfcfc" d="M 421.5,1102.5 C 458.168,1102.33 494.835,1102.5 531.5,1103C 538.078,1106.56 540.245,1112.06 538,1119.5C 536.413,1122.76 533.913,1124.92 530.5,1126C 502.502,1126.5 474.502,1126.67 446.5,1126.5C 446.5,1145.17 446.5,1163.83 446.5,1182.5C 459.504,1182.33 472.504,1182.5 485.5,1183C 492.99,1187.98 494.49,1194.48 490,1202.5C 488.421,1204.04 486.587,1205.21 484.5,1206C 471.838,1206.5 459.171,1206.67 446.5,1206.5C 446.5,1224.83 446.5,1243.17 446.5,1261.5C 474.502,1261.33 502.502,1261.5 530.5,1262C 537.955,1265.08 540.455,1270.58 538,1278.5C 537.167,1282 535,1284.17 531.5,1285C 494.835,1285.5 458.168,1285.67 421.5,1285.5C 421.5,1224.5 421.5,1163.5 421.5,1102.5 Z"/></g>
<g><path style="opacity:1" fill="#fdfdfd" d="M 713.5,1102.5 C 742.502,1102.33 771.502,1102.5 800.5,1103C 814.929,1105.46 824.429,1113.63 829,1127.5C 831.25,1140.25 830.916,1152.92 828,1165.5C 823.456,1175.36 815.956,1181.86 805.5,1185C 794.531,1186.05 783.531,1186.88 772.5,1187.5C 790.861,1213.36 809.028,1239.36 827,1265.5C 832.707,1273.79 831.207,1280.29 822.5,1285C 815.989,1286.87 810.822,1285.04 807,1279.5C 785.667,1248.83 764.333,1218.17 743,1187.5C 741.301,1186.59 739.467,1186.26 737.5,1186.5C 737.667,1217.17 737.5,1247.84 737,1278.5C 734.988,1283.97 730.988,1286.3 725,1285.5C 719.875,1286.11 716.208,1284.11 714,1279.5C 713.5,1220.5 713.333,1161.5 713.5,1102.5 Z M 737.5,1126.5 C 757.169,1126.33 776.836,1126.5 796.5,1127C 799.196,1127.76 801.696,1128.93 804,1130.5C 806.949,1139.36 807.282,1148.36 805,1157.5C 803.421,1159.04 801.587,1160.21 799.5,1161C 778.887,1162.45 758.22,1162.95 737.5,1162.5C 737.5,1150.5 737.5,1138.5 737.5,1126.5 Z"/></g>
<g><path style="opacity:1" fill="#fcfdfd" d="M 1012.5,1102.5 C 1030.84,1102.33 1049.17,1102.5 1067.5,1103C 1078.14,1105.07 1085.97,1110.9 1091,1120.5C 1099.33,1137.17 1107.67,1153.83 1116,1170.5C 1123.29,1186.49 1123.29,1202.49 1116,1218.5C 1108,1234.5 1100,1250.5 1092,1266.5C 1086.57,1276.93 1078.07,1283.1 1066.5,1285C 1048.17,1285.67 1029.83,1285.67 1011.5,1285C 1008,1284.17 1005.83,1282 1005,1278.5C 1002.55,1270.58 1005.05,1265.08 1012.5,1262C 1017.49,1261.5 1022.49,1261.33 1027.5,1261.5C 1027.5,1216.5 1027.5,1171.5 1027.5,1126.5C 1022.82,1126.67 1018.15,1126.5 1013.5,1126C 1005.83,1123.16 1002.99,1117.66 1005,1109.5C 1006.74,1106.25 1009.24,1103.92 1012.5,1102.5 Z M 1051.5,1126.5 C 1055.51,1126.33 1059.51,1126.5 1063.5,1127C 1065.08,1127.71 1066.58,1128.54 1068,1129.5C 1076.65,1146.8 1085.32,1164.14 1094,1181.5C 1095.65,1185.88 1096.81,1190.38 1097.5,1195C 1096.33,1201.52 1094.16,1207.68 1091,1213.5C 1084,1227.5 1077,1241.5 1070,1255.5C 1065.08,1260.96 1058.91,1262.96 1051.5,1261.5C 1051.5,1216.5 1051.5,1171.5 1051.5,1126.5 Z"/></g>
<g><path style="opacity:1" fill="#fcfcfc" d="M 1316.5,1102.5 C 1340.17,1102.33 1363.84,1102.5 1387.5,1103C 1405.05,1107.88 1413.22,1119.38 1412,1137.5C 1409.42,1145.71 1403.92,1148.54 1395.5,1146C 1392.33,1144.83 1390.17,1142.67 1389,1139.5C 1388.7,1136.09 1388.04,1132.75 1387,1129.5C 1385.83,1128.11 1384.33,1127.27 1382.5,1127C 1362.17,1126.33 1341.83,1126.33 1321.5,1127C 1320.25,1129.21 1320.42,1131.38 1322,1133.5C 1350.67,1170.17 1379.33,1206.83 1408,1243.5C 1413.95,1254.15 1413.95,1264.82 1408,1275.5C 1403.72,1280.77 1398.22,1283.94 1391.5,1285C 1368.17,1285.67 1344.83,1285.67 1321.5,1285C 1306.14,1281.31 1297.48,1271.64 1295.5,1256C 1296.6,1243.95 1302.93,1239.62 1314.5,1243C 1315.67,1244.17 1316.83,1245.33 1318,1246.5C 1319.21,1250.43 1320.21,1254.43 1321,1258.5C 1322.17,1259.89 1323.67,1260.73 1325.5,1261C 1345.83,1261.67 1366.17,1261.67 1386.5,1261C 1387.17,1260.33 1387.83,1259.67 1388.5,1259C 1361.36,1223.23 1333.86,1187.73 1306,1152.5C 1302.61,1148.1 1299.61,1143.44 1297,1138.5C 1293.33,1120.83 1299.83,1108.83 1316.5,1102.5 Z"/></g>
<g><path style="opacity:0.101" fill="#b1b2b3" d="M 224.5,1122.5 C 224.667,1163.17 224.5,1203.83 224,1244.5C 223.209,1243.26 222.709,1241.92 222.5,1240.5C 223.167,1201.17 223.833,1161.83 224.5,1122.5 Z"/></g>
<g><path style="opacity:1" fill="#fbfbfb" d="M 320.5,1211.5 C 330.172,1211.33 339.839,1211.5 349.5,1212C 353.896,1212.73 356.73,1215.23 358,1219.5C 358.667,1229.17 358.667,1238.83 358,1248.5C 356.878,1250.62 355.378,1252.46 353.5,1254C 341.93,1255.62 330.264,1255.96 318.5,1255C 315.272,1253.44 313.105,1250.94 312,1247.5C 311.077,1237.43 311.41,1227.43 313,1217.5C 315.114,1214.88 317.614,1212.88 320.5,1211.5 Z"/></g>
<g><path style="opacity:1" fill="#fbfbfb" d="M 611.5,1211.5 C 620.839,1211.33 630.173,1211.5 639.5,1212C 644.667,1213.17 647.833,1216.33 649,1221.5C 649.667,1229.83 649.667,1238.17 649,1246.5C 647.998,1250.68 645.498,1253.51 641.5,1255C 630.833,1255.67 620.167,1255.67 609.5,1255C 607.376,1253.88 605.543,1252.38 604,1250.5C 602.383,1240.27 602.05,1229.93 603,1219.5C 604.445,1215.22 607.278,1212.55 611.5,1211.5 Z"/></g>
<g><path style="opacity:1" fill="#fcfcfc" d="M 902.5,1211.5 C 911.839,1211.33 921.173,1211.5 930.5,1212C 935.235,1213.07 938.402,1215.9 940,1220.5C 940.667,1229.5 940.667,1238.5 940,1247.5C 938.895,1250.94 936.728,1253.44 933.5,1255C 922.5,1255.67 911.5,1255.67 900.5,1255C 897.272,1253.44 895.105,1250.94 894,1247.5C 893.333,1238.17 893.333,1228.83 894,1219.5C 896.098,1215.9 898.932,1213.23 902.5,1211.5 Z"/></g>
<g><path style="opacity:1" fill="#fcfcfc" d="M 1193.5,1211.5 C 1203.17,1211.33 1212.84,1211.5 1222.5,1212C 1225.54,1213.03 1228.04,1214.86 1230,1217.5C 1231.62,1227.4 1231.95,1237.4 1231,1247.5C 1230.12,1250.1 1228.62,1252.27 1226.5,1254C 1214.93,1255.62 1203.26,1255.96 1191.5,1255C 1188.27,1253.44 1186.1,1250.94 1185,1247.5C 1184.08,1237.43 1184.41,1227.43 1186,1217.5C 1188.11,1214.88 1190.61,1212.88 1193.5,1211.5 Z"/></g>
<g><path style="opacity:1" fill="#fbfbfb" d="M 1484.5,1211.5 C 1494.51,1211.33 1504.51,1211.5 1514.5,1212C 1517.1,1212.88 1519.27,1214.38 1521,1216.5C 1522.62,1227.07 1522.95,1237.73 1522,1248.5C 1521.17,1252 1519,1254.17 1515.5,1255C 1504.83,1255.67 1494.17,1255.67 1483.5,1255C 1479.78,1253.74 1477.28,1251.24 1476,1247.5C 1475.33,1238.5 1475.33,1229.5 1476,1220.5C 1477.69,1216.31 1480.52,1213.31 1484.5,1211.5 Z"/></g>
<g><path style="opacity:0.58" fill="#b1b1b2" d="M 127.5,1370.5 C 596.666,1369.5 1066,1369.17 1535.5,1369.5C 1535.82,1375.03 1535.49,1380.36 1534.5,1385.5C 1534.5,1380.5 1534.5,1375.5 1534.5,1370.5C 1065.5,1370.5 596.5,1370.5 127.5,1370.5 Z"/></g>
<g><path style="opacity:1" fill="#fefefe" d="M 127.5,1370.5 C 596.5,1370.5 1065.5,1370.5 1534.5,1370.5C 1534.5,1375.5 1534.5,1380.5 1534.5,1385.5C 1065.5,1385.67 596.5,1385.5 127.5,1385C 126.176,1380.07 126.176,1375.23 127.5,1370.5 Z"/></g>
<g><path style="opacity:1" fill="#f6f6f6" d="M 162.5,1473.5 C 162.631,1472.62 162.298,1471.96 161.5,1471.5C 160.501,1487.49 160.167,1503.49 160.5,1519.5C 157.783,1522.14 154.95,1522.14 152,1519.5C 151.5,1497.84 151.333,1476.17 151.5,1454.5C 155.884,1454.17 160.217,1454.51 164.5,1455.5C 171.667,1471.83 178.833,1488.17 186,1504.5C 186.333,1488.17 186.667,1471.83 187,1455.5C 189.916,1453.99 192.582,1454.32 195,1456.5C 195.5,1478.16 195.667,1499.83 195.5,1521.5C 191.167,1521.5 186.833,1521.5 182.5,1521.5C 175.84,1505.51 169.173,1489.51 162.5,1473.5 Z"/></g>
<g><path style="opacity:1" fill="#fafafa" d="M 244.5,1463.5 C 239.833,1463.5 235.167,1463.5 230.5,1463.5C 230.5,1479.83 230.5,1496.17 230.5,1512.5C 235.167,1512.5 239.833,1512.5 244.5,1512.5C 246.89,1512.68 247.89,1514.02 247.5,1516.5C 247.61,1518.37 246.944,1519.87 245.5,1521C 232.5,1521.67 219.5,1521.67 206.5,1521C 203.833,1518.33 203.833,1515.67 206.5,1513C 211.372,1511.61 216.372,1511.11 221.5,1511.5C 221.5,1495.83 221.5,1480.17 221.5,1464.5C 216.372,1464.89 211.372,1464.39 206.5,1463C 203.833,1460.33 203.833,1457.67 206.5,1455C 219.5,1454.33 232.5,1454.33 245.5,1455C 247.444,1457.15 247.944,1459.65 247,1462.5C 246.329,1463.25 245.496,1463.59 244.5,1463.5 Z"/></g>
<g><path style="opacity:1" fill="#fafafa" d="M 258.5,1454.5 C 273.167,1454.5 287.833,1454.5 302.5,1454.5C 302.666,1459.18 302.499,1463.85 302,1468.5C 299.374,1472.07 296.374,1472.41 293,1469.5C 292.506,1467.87 292.34,1466.2 292.5,1464.5C 289.833,1464.5 287.167,1464.5 284.5,1464.5C 284.833,1483.18 284.5,1501.85 283.5,1520.5C 280.709,1522.04 278.209,1521.71 276,1519.5C 275.5,1501.17 275.333,1482.84 275.5,1464.5C 272.833,1464.5 270.167,1464.5 267.5,1464.5C 267.728,1471.44 264.894,1473.11 259,1469.5C 258.501,1464.51 258.334,1459.51 258.5,1454.5 Z"/></g>
<g><path style="opacity:1" fill="#f6f6f6" d="M 320.5,1510.5 C 324.276,1511.82 328.443,1512.49 333,1512.5C 337.167,1512.17 341.333,1511.83 345.5,1511.5C 345.376,1510.89 345.043,1510.56 344.5,1510.5C 333.881,1496.71 323.047,1483.04 312,1469.5C 309.734,1463.19 311.567,1458.35 317.5,1455C 327.167,1454.33 336.833,1454.33 346.5,1455C 353.468,1457.77 355.968,1462.61 354,1469.5C 348.801,1472.48 345.634,1470.98 344.5,1465C 336.5,1464.33 328.5,1464.33 320.5,1465C 330.453,1477.08 340.287,1489.24 350,1501.5C 354.441,1505.8 355.775,1510.8 354,1516.5C 352.457,1518.38 350.624,1519.88 348.5,1521C 338.833,1521.67 329.167,1521.67 319.5,1521C 312.556,1518.28 310.056,1513.44 312,1506.5C 316.891,1503.36 319.724,1504.69 320.5,1510.5 Z"/></g>
<g><path style="opacity:1" fill="#f8f8f8" d="M 427.5,1463.5 C 426.509,1469.98 426.176,1476.65 426.5,1483.5C 431.167,1483.5 435.833,1483.5 440.5,1483.5C 444.639,1485.26 445.306,1487.92 442.5,1491.5C 437.565,1492.45 432.565,1492.78 427.5,1492.5C 426.509,1498.98 426.176,1505.65 426.5,1512.5C 436.833,1512.5 447.167,1512.5 457.5,1512.5C 459.89,1512.68 460.89,1514.02 460.5,1516.5C 460.61,1518.37 459.944,1519.87 458.5,1521C 444.837,1521.5 431.171,1521.67 417.5,1521.5C 417.5,1499.17 417.5,1476.83 417.5,1454.5C 431.171,1454.33 444.837,1454.5 458.5,1455C 460.444,1457.15 460.944,1459.65 460,1462.5C 458.933,1463.19 457.766,1463.69 456.5,1464C 446.756,1464.81 437.089,1464.64 427.5,1463.5 Z"/></g>
<g><path style="opacity:1" fill="#f7f7f7" d="M 1142.5,1484.5 C 1138.77,1484.18 1135.11,1484.51 1131.5,1485.5C 1131.62,1486.11 1131.96,1486.44 1132.5,1486.5C 1139.65,1496.5 1146.65,1506.67 1153.5,1517C 1151.37,1521.76 1148.2,1522.59 1144,1519.5C 1136.07,1507.95 1127.9,1496.62 1119.5,1485.5C 1118.67,1496.82 1118.17,1508.15 1118,1519.5C 1115.33,1522.17 1112.67,1522.17 1110,1519.5C 1109.5,1497.84 1109.33,1476.17 1109.5,1454.5C 1120.84,1454.33 1132.17,1454.5 1143.5,1455C 1153.62,1460.63 1156.12,1468.8 1151,1479.5C 1148.97,1482.6 1146.14,1484.26 1142.5,1484.5 Z M 1119.5,1463.5 C 1126.11,1463.71 1132.61,1463.71 1139,1463.5C 1142.83,1464 1144.33,1466.17 1143.5,1470C 1143.46,1471.76 1143.12,1473.43 1142.5,1475C 1134.51,1475.5 1126.51,1475.67 1118.5,1475.5C 1118.24,1471.4 1118.57,1467.4 1119.5,1463.5 Z"/></g>
<g><path style="opacity:1" fill="#f9f9f9" d="M 1390.5,1454.5 C 1400.49,1451.99 1404.32,1455.66 1402,1465.5C 1390.43,1469.76 1386.59,1466.09 1390.5,1454.5 Z"/></g>
<g><path style="opacity:1" fill="#f6f6f6" d="M 527.5,1457.5 C 530.044,1457.1 532.211,1457.77 534,1459.5C 534.333,1466.17 534.667,1472.83 535,1479.5C 536.543,1477.62 538.376,1476.12 540.5,1475C 552.049,1471.53 560.549,1475.03 566,1485.5C 566.667,1493.83 566.667,1502.17 566,1510.5C 560.549,1520.97 552.049,1524.47 540.5,1521C 538.376,1519.88 536.543,1518.38 535,1516.5C 533.406,1521.75 530.406,1522.75 526,1519.5C 525.333,1499.5 525.333,1479.5 526,1459.5C 526.717,1458.96 527.217,1458.29 527.5,1457.5 Z M 543.5,1483.5 C 549.255,1482.27 553.755,1483.94 557,1488.5C 557.667,1494.83 557.667,1501.17 557,1507.5C 553.746,1512.22 549.246,1513.72 543.5,1512C 535.348,1507.86 532.515,1501.36 535,1492.5C 537.362,1488.97 540.196,1485.97 543.5,1483.5 Z"/></g>
<g><path style="opacity:1" fill="#f9f9f9" d="M 662.5,1478.5 C 662.783,1479.29 663.283,1479.96 664,1480.5C 664.5,1474.18 664.666,1467.84 664.5,1461.5C 664.155,1458.51 665.488,1457.18 668.5,1457.5C 669.994,1457.71 671.161,1458.38 672,1459.5C 672.667,1479.5 672.667,1499.5 672,1519.5C 667.862,1522.58 665.029,1521.58 663.5,1516.5C 660.157,1520.67 655.824,1522.34 650.5,1521.5C 642.862,1521.43 637.028,1518.09 633,1511.5C 632.333,1502.5 632.333,1493.5 633,1484.5C 638.64,1475.11 646.806,1471.94 657.5,1475C 659.323,1476 660.99,1477.16 662.5,1478.5 Z M 646.5,1483.5 C 661.235,1483.75 666.735,1491.08 663,1505.5C 660.167,1507.67 657.333,1509.83 654.5,1512C 647.889,1513.94 643.389,1511.78 641,1505.5C 640.021,1499.01 640.521,1492.68 642.5,1486.5C 643.901,1485.48 645.235,1484.48 646.5,1483.5 Z"/></g>
<g><path style="opacity:1" fill="#f7f7f7" d="M 718.5,1457.5 C 721.044,1457.1 723.211,1457.77 725,1459.5C 725.667,1479.5 725.667,1499.5 725,1519.5C 720.641,1522.76 717.641,1521.76 716,1516.5C 714.457,1518.38 712.624,1519.88 710.5,1521C 698.719,1524.02 690.219,1520.19 685,1509.5C 684.09,1500.76 684.424,1492.09 686,1483.5C 692.08,1474.96 700.247,1472.13 710.5,1475C 712.624,1476.12 714.457,1477.62 716,1479.5C 716.333,1472.83 716.667,1466.17 717,1459.5C 717.717,1458.96 718.217,1458.29 718.5,1457.5 Z M 698.5,1483.5 C 712.85,1483.35 718.684,1490.35 716,1504.5C 711.987,1511.26 706.153,1513.76 698.5,1512C 696.346,1510.68 694.846,1508.85 694,1506.5C 693.333,1500.83 693.333,1495.17 694,1489.5C 695.124,1487.2 696.624,1485.2 698.5,1483.5 Z"/></g>
<g><path style="opacity:1" fill="#f5f5f6" d="M 825.5,1457.5 C 828.547,1456.86 830.713,1457.86 832,1460.5C 832.667,1479.83 832.667,1499.17 832,1518.5C 830.695,1521.31 828.528,1522.14 825.5,1521C 824.107,1519.83 823.273,1518.33 823,1516.5C 821.269,1518.62 819.102,1520.12 816.5,1521C 805.806,1524.06 797.64,1520.89 792,1511.5C 791.333,1502.5 791.333,1493.5 792,1484.5C 797.966,1474.94 806.466,1471.77 817.5,1475C 819.624,1476.12 821.457,1477.62 823,1479.5C 823.333,1472.83 823.667,1466.17 824,1459.5C 824.717,1458.96 825.217,1458.29 825.5,1457.5 Z M 805.5,1483.5 C 819.507,1483.67 825.341,1490.67 823,1504.5C 818.706,1510.73 812.873,1513.23 805.5,1512C 803.714,1511.22 802.214,1510.05 801,1508.5C 800.333,1501.5 800.333,1494.5 801,1487.5C 802.397,1485.93 803.897,1484.6 805.5,1483.5 Z"/></g>
<g><path style="opacity:1" fill="#f5f5f6" d="M 1038.5,1457.5 C 1041.55,1456.86 1043.71,1457.86 1045,1460.5C 1045.67,1479.83 1045.67,1499.17 1045,1518.5C 1043.69,1521.31 1041.53,1522.14 1038.5,1521C 1037.11,1519.83 1036.27,1518.33 1036,1516.5C 1034.27,1518.62 1032.1,1520.12 1029.5,1521C 1018.81,1524.06 1010.64,1520.89 1005,1511.5C 1004.33,1502.5 1004.33,1493.5 1005,1484.5C 1010.97,1474.94 1019.47,1471.77 1030.5,1475C 1032.62,1476.12 1034.46,1477.62 1036,1479.5C 1036.33,1472.83 1036.67,1466.17 1037,1459.5C 1037.72,1458.96 1038.22,1458.29 1038.5,1457.5 Z M 1018.5,1483.5 C 1032.51,1483.67 1038.34,1490.67 1036,1504.5C 1031.71,1510.73 1025.87,1513.23 1018.5,1512C 1016.71,1511.22 1015.21,1510.05 1014,1508.5C 1013.33,1501.5 1013.33,1494.5 1014,1487.5C 1015.4,1485.93 1016.9,1484.6 1018.5,1483.5 Z"/></g>
<g><path style="opacity:1" fill="#f7f7f7" d="M 1219.5,1457.5 C 1222.04,1457.1 1224.21,1457.77 1226,1459.5C 1226.33,1466.17 1226.67,1472.83 1227,1479.5C 1228.5,1478 1230,1476.5 1231.5,1475C 1242.19,1471.98 1250.69,1474.82 1257,1483.5C 1258.58,1492.09 1258.91,1500.76 1258,1509.5C 1252.94,1520.49 1244.44,1524.33 1232.5,1521C 1230.38,1519.88 1228.54,1518.38 1227,1516.5C 1225.36,1521.76 1222.36,1522.76 1218,1519.5C 1217.33,1499.5 1217.33,1479.5 1218,1459.5C 1218.72,1458.96 1219.22,1458.29 1219.5,1457.5 Z M 1235.5,1483.5 C 1241.21,1482.27 1245.71,1483.94 1249,1488.5C 1249.67,1494.83 1249.67,1501.17 1249,1507.5C 1245.7,1512.22 1241.2,1513.72 1235.5,1512C 1226.89,1507.69 1224.05,1500.85 1227,1491.5C 1229.73,1488.6 1232.56,1485.93 1235.5,1483.5 Z"/></g>
<g><path style="opacity:0.113" fill="#b1b3b3" d="M 664.5,1461.5 C 664.666,1467.84 664.5,1474.18 664,1480.5C 663.283,1479.96 662.783,1479.29 662.5,1478.5C 663.167,1472.83 663.833,1467.17 664.5,1461.5 Z"/></g>
<g><path style="opacity:1" fill="#f7f7f7" d="M 1333.5,1460.5 C 1335.79,1460.24 1337.96,1460.58 1340,1461.5C 1340.5,1465.82 1340.67,1470.15 1340.5,1474.5C 1346.51,1474.33 1352.51,1474.5 1358.5,1475C 1361.17,1477.67 1361.17,1480.33 1358.5,1483C 1352.51,1483.5 1346.51,1483.67 1340.5,1483.5C 1340.33,1491.84 1340.5,1500.17 1341,1508.5C 1341.25,1509.62 1341.75,1510.62 1342.5,1511.5C 1346.11,1512.59 1349.77,1512.76 1353.5,1512C 1354.89,1510.83 1355.73,1509.33 1356,1507.5C 1362.52,1504.01 1365.19,1506.01 1364,1513.5C 1360.91,1519.96 1355.74,1522.63 1348.5,1521.5C 1341.73,1522.53 1336.56,1520.2 1333,1514.5C 1332.5,1504.17 1332.33,1493.84 1332.5,1483.5C 1327.8,1484.59 1324.8,1482.92 1323.5,1478.5C 1323.53,1476.97 1324.2,1475.8 1325.5,1475C 1327.81,1474.5 1330.14,1474.34 1332.5,1474.5C 1332.23,1469.74 1332.56,1465.07 1333.5,1460.5 Z"/></g>
<g><path style="opacity:0.327" fill="#afb0b1" d="M 244.5,1463.5 C 240.366,1464.48 236.032,1464.82 231.5,1464.5C 231.5,1480.17 231.5,1495.83 231.5,1511.5C 236.032,1511.18 240.366,1511.52 244.5,1512.5C 239.833,1512.5 235.167,1512.5 230.5,1512.5C 230.5,1496.17 230.5,1479.83 230.5,1463.5C 235.167,1463.5 239.833,1463.5 244.5,1463.5 Z"/></g>
<g><path style="opacity:0.216" fill="#afb0b1" d="M 427.5,1463.5 C 427.5,1469.83 427.5,1476.17 427.5,1482.5C 432.032,1482.18 436.366,1482.52 440.5,1483.5C 435.833,1483.5 431.167,1483.5 426.5,1483.5C 426.176,1476.65 426.509,1469.98 427.5,1463.5 Z"/></g>
<g><path style="opacity:1" fill="#f5f5f5" d="M 474.5,1474.5 C 477.325,1474.08 479.491,1475.08 481,1477.5C 485.392,1473.62 489.892,1473.62 494.5,1477.5C 499.701,1473.53 504.868,1473.53 510,1477.5C 510.667,1478.83 511.333,1480.17 512,1481.5C 512.348,1491.67 512.848,1501.84 513.5,1512C 513.693,1515.24 513.027,1518.24 511.5,1521C 507.834,1522.27 505.334,1521.1 504,1517.5C 503.667,1506.83 503.333,1496.17 503,1485.5C 502.586,1485.04 502.086,1484.71 501.5,1484.5C 499.851,1485.65 498.351,1486.98 497,1488.5C 496.954,1499.26 496.287,1509.93 495,1520.5C 492.408,1521.98 490.075,1521.65 488,1519.5C 487.667,1508.17 487.333,1496.83 487,1485.5C 486.586,1485.04 486.086,1484.71 485.5,1484.5C 483.851,1485.65 482.351,1486.98 481,1488.5C 480.667,1498.83 480.333,1509.17 480,1519.5C 477.925,1521.65 475.592,1521.98 473,1520.5C 471.368,1506.26 471.035,1491.93 472,1477.5C 472.698,1476.31 473.531,1475.31 474.5,1474.5 Z"/></g>
<g><path style="opacity:1" fill="#f6f6f6" d="M 618.5,1501.5 C 617.5,1501.83 616.833,1502.5 616.5,1503.5C 607.014,1504.49 597.348,1504.83 587.5,1504.5C 587.327,1508.17 588.993,1510.67 592.5,1512C 600.5,1512.33 608.5,1512.67 616.5,1513C 620.5,1515.67 620.5,1518.33 616.5,1521C 607.167,1521.67 597.833,1521.67 588.5,1521C 585.37,1518.87 582.537,1516.37 580,1513.5C 578.389,1504.27 578.055,1494.93 579,1485.5C 581.457,1481.01 584.957,1477.51 589.5,1475C 602.67,1471.04 612.504,1474.88 619,1486.5C 619.816,1491.68 619.65,1496.68 618.5,1501.5 Z M 592.5,1483.5 C 598.173,1482.84 603.506,1483.67 608.5,1486C 610.227,1488.9 610.893,1492.07 610.5,1495.5C 602.833,1495.5 595.167,1495.5 587.5,1495.5C 586.302,1490.12 587.969,1486.12 592.5,1483.5 Z"/></g>
<g><path style="opacity:1" fill="#f6f6f6" d="M 749.5,1474.5 C 762.099,1471.36 771.933,1475.03 779,1485.5C 779.667,1490.83 779.667,1496.17 779,1501.5C 778.5,1502.67 777.667,1503.5 776.5,1504C 766.839,1504.5 757.172,1504.67 747.5,1504.5C 747.544,1508.09 749.211,1510.59 752.5,1512C 760.5,1512.33 768.5,1512.67 776.5,1513C 780.065,1515.18 780.399,1517.84 777.5,1521C 767.833,1521.67 758.167,1521.67 748.5,1521C 745.37,1518.87 742.537,1516.37 740,1513.5C 738.389,1504.27 738.055,1494.93 739,1485.5C 742.03,1481.31 745.53,1477.64 749.5,1474.5 Z M 752.5,1483.5 C 757.628,1483.11 762.628,1483.61 767.5,1485C 770.1,1487.98 771.1,1491.48 770.5,1495.5C 762.833,1495.5 755.167,1495.5 747.5,1495.5C 747.336,1492.81 747.503,1490.15 748,1487.5C 749.667,1486.27 751.167,1484.93 752.5,1483.5 Z"/></g>
<g><path style="opacity:1" fill="#f6f6f6" d="M 908.5,1474.5 C 915.508,1474.33 922.508,1474.5 929.5,1475C 934.062,1476.63 936.895,1479.79 938,1484.5C 938.653,1495.84 938.986,1507.17 939,1518.5C 938.521,1520.65 937.188,1521.65 935,1521.5C 932.783,1520.95 930.783,1519.95 929,1518.5C 920.226,1522.27 911.393,1522.44 902.5,1519C 896.894,1512.11 896.06,1504.61 900,1496.5C 901.731,1494.38 903.898,1492.88 906.5,1492C 914.159,1491.5 921.826,1491.33 929.5,1491.5C 929.759,1488.43 928.759,1485.93 926.5,1484C 920.5,1483.67 914.5,1483.33 908.5,1483C 905.899,1480.17 905.899,1477.34 908.5,1474.5 Z M 909.5,1500.5 C 915.176,1500.33 920.843,1500.5 926.5,1501C 929.548,1502.73 930.214,1505.23 928.5,1508.5C 921.625,1512.89 914.459,1513.56 907,1510.5C 906.333,1507.83 906.333,1505.17 907,1502.5C 907.995,1501.93 908.828,1501.27 909.5,1500.5 Z"/></g>
<g><path style="opacity:1" fill="#f5f5f5" d="M 953.5,1474.5 C 958.155,1473.82 960.822,1475.82 961.5,1480.5C 968.157,1474.82 975.824,1472.99 984.5,1475C 988.944,1477.11 991.444,1480.61 992,1485.5C 992.203,1495.37 992.703,1505.2 993.5,1515C 992.911,1520.62 990.077,1522.45 985,1520.5C 983.651,1508.89 982.651,1497.23 982,1485.5C 979.503,1483.52 976.669,1483.02 973.5,1484C 969.071,1486.1 964.905,1488.6 961,1491.5C 960.667,1500.83 960.333,1510.17 960,1519.5C 957.333,1522.17 954.667,1522.17 952,1519.5C 951.333,1505.17 951.333,1490.83 952,1476.5C 952.717,1475.96 953.217,1475.29 953.5,1474.5 Z"/></g>
<g><path style="opacity:1" fill="#f6f6f6" d="M 1176.5,1474.5 C 1182.18,1474.33 1187.84,1474.5 1193.5,1475C 1198.54,1477.26 1202.37,1480.76 1205,1485.5C 1205.67,1493.83 1205.67,1502.17 1205,1510.5C 1202.37,1515.24 1198.54,1518.74 1193.5,1521C 1187.5,1521.67 1181.5,1521.67 1175.5,1521C 1170.96,1518.49 1167.46,1514.99 1165,1510.5C 1164.33,1501.83 1164.33,1493.17 1165,1484.5C 1165.78,1482.71 1166.95,1481.21 1168.5,1480C 1171.09,1477.88 1173.76,1476.05 1176.5,1474.5 Z M 1179.5,1483.5 C 1186.02,1482.24 1191.52,1483.9 1196,1488.5C 1196.67,1494.83 1196.67,1501.17 1196,1507.5C 1191.51,1512.26 1186.01,1513.76 1179.5,1512C 1176.94,1511.31 1175.11,1509.81 1174,1507.5C 1173.33,1501.17 1173.33,1494.83 1174,1488.5C 1175.35,1486.25 1177.18,1484.58 1179.5,1483.5 Z"/></g>
<g><path style="opacity:1" fill="#f7f7f7" d="M 1282.5,1474.5 C 1288.51,1474.33 1294.51,1474.5 1300.5,1475C 1304.95,1477.11 1308.45,1480.28 1311,1484.5C 1311.67,1493.5 1311.67,1502.5 1311,1511.5C 1308.45,1515.72 1304.95,1518.89 1300.5,1521C 1294.5,1521.67 1288.5,1521.67 1282.5,1521C 1278.05,1518.89 1274.55,1515.72 1272,1511.5C 1271.33,1502.17 1271.33,1492.83 1272,1483.5C 1275.1,1479.89 1278.6,1476.89 1282.5,1474.5 Z M 1285.5,1483.5 C 1289.51,1483.33 1293.51,1483.5 1297.5,1484C 1299.29,1484.78 1300.79,1485.95 1302,1487.5C 1302.67,1494.5 1302.67,1501.5 1302,1508.5C 1300.79,1510.05 1299.29,1511.22 1297.5,1512C 1293.5,1512.67 1289.5,1512.67 1285.5,1512C 1283,1510.83 1281.17,1509 1280,1506.5C 1279.33,1500.83 1279.33,1495.17 1280,1489.5C 1281.36,1486.98 1283.19,1484.98 1285.5,1483.5 Z"/></g>
<g><path style="opacity:1" fill="#f6f6f6" d="M 1383.5,1474.5 C 1389.18,1474.33 1394.84,1474.5 1400.5,1475C 1401,1475.5 1401.5,1476 1402,1476.5C 1402.5,1488.5 1402.67,1500.5 1402.5,1512.5C 1405.85,1512.33 1409.18,1512.5 1412.5,1513C 1415.17,1515.67 1415.17,1518.33 1412.5,1521C 1402.59,1521.82 1392.76,1521.65 1383,1520.5C 1380.9,1517.99 1381.06,1515.66 1383.5,1513.5C 1386.76,1512.58 1390.09,1512.25 1393.5,1512.5C 1393.5,1502.83 1393.5,1493.17 1393.5,1483.5C 1390.09,1483.75 1386.76,1483.42 1383.5,1482.5C 1381.03,1479.89 1381.03,1477.22 1383.5,1474.5 Z"/></g>
<g><path style="opacity:1" fill="#f5f5f5" d="M 1445.5,1474.5 C 1453.51,1474.33 1461.51,1474.5 1469.5,1475C 1472.17,1477.67 1472.17,1480.33 1469.5,1483C 1462.83,1483.33 1456.17,1483.67 1449.5,1484C 1439.93,1487.75 1436.76,1494.59 1440,1504.5C 1442.59,1507.76 1445.76,1510.26 1449.5,1512C 1456.17,1512.33 1462.83,1512.67 1469.5,1513C 1472.17,1515.67 1472.17,1518.33 1469.5,1521C 1461.5,1521.67 1453.5,1521.67 1445.5,1521C 1441.05,1518.22 1436.88,1515.05 1433,1511.5C 1432.33,1510.17 1431.67,1508.83 1431,1507.5C 1430.33,1501.17 1430.33,1494.83 1431,1488.5C 1431.88,1485.9 1433.38,1483.73 1435.5,1482C 1439.08,1479.72 1442.41,1477.22 1445.5,1474.5 Z"/></g>
<g><path style="opacity:1" fill="#f5f5f5" d="M 1494.5,1483.5 C 1492.45,1484.05 1492.11,1485.05 1493.5,1486.5C 1501.85,1490.23 1510.18,1494.06 1518.5,1498C 1523.26,1502.49 1524.76,1507.99 1523,1514.5C 1521.88,1516.62 1520.38,1518.46 1518.5,1520C 1509.24,1521.58 1499.91,1521.92 1490.5,1521C 1487.46,1519.97 1484.96,1518.14 1483,1515.5C 1482.33,1511.83 1483.83,1509.83 1487.5,1509.5C 1496.23,1512.66 1505.23,1513.33 1514.5,1511.5C 1514.74,1509.53 1514.41,1507.7 1513.5,1506C 1504.83,1502 1496.17,1498 1487.5,1494C 1483.3,1489.14 1482.8,1483.97 1486,1478.5C 1487.32,1476.51 1489.15,1475.35 1491.5,1475C 1499.83,1474.33 1508.17,1474.33 1516.5,1475C 1519.69,1476.69 1522.03,1479.19 1523.5,1482.5C 1523,1485.34 1521.33,1486.67 1518.5,1486.5C 1516.21,1486.38 1514.21,1485.54 1512.5,1484C 1506.51,1483.5 1500.51,1483.33 1494.5,1483.5 Z"/></g>
<g><path style="opacity:0.816" fill="#bcbcbc" d="M 162.5,1473.5 C 161.833,1488.83 161.167,1504.17 160.5,1519.5C 160.167,1503.49 160.501,1487.49 161.5,1471.5C 162.298,1471.96 162.631,1472.62 162.5,1473.5 Z"/></g>
<g><path style="opacity:0.357" fill="#afb0b1" d="M 1142.5,1484.5 C 1139.17,1485.17 1135.83,1485.83 1132.5,1486.5C 1131.96,1486.44 1131.62,1486.11 1131.5,1485.5C 1135.11,1484.51 1138.77,1484.18 1142.5,1484.5 Z"/></g>
<g><path style="opacity:0.094" fill="#b5b6b7" d="M 1494.5,1483.5 C 1493.89,1484.39 1493.56,1485.39 1493.5,1486.5C 1492.11,1485.05 1492.45,1484.05 1494.5,1483.5 Z"/></g>
<g><path style="opacity:0.016" fill="#bfbfc1" d="M 618.5,1501.5 C 618.5,1502.83 617.833,1503.5 616.5,1503.5C 616.833,1502.5 617.5,1501.83 618.5,1501.5 Z"/></g>
<g><path style="opacity:0.145" fill="#b4b4b6" d="M 320.5,1510.5 C 328.599,1511.81 336.599,1511.81 344.5,1510.5C 345.043,1510.56 345.376,1510.89 345.5,1511.5C 341.333,1511.83 337.167,1512.17 333,1512.5C 328.443,1512.49 324.276,1511.82 320.5,1510.5 Z"/></g>
<g><path style="opacity:0.096" fill="#b1b2b2" d="M 427.5,1492.5 C 427.5,1498.83 427.5,1505.17 427.5,1511.5C 437.681,1511.17 447.681,1511.51 457.5,1512.5C 447.167,1512.5 436.833,1512.5 426.5,1512.5C 426.176,1505.65 426.509,1498.98 427.5,1492.5 Z"/></g>
<g><path style="opacity:1" fill="#f8f8f8" d="M 339.5,1557.5 C 348.276,1557.06 356.942,1557.56 365.5,1559C 373.237,1568.47 378.57,1579.14 381.5,1591C 378.639,1602.39 373.639,1612.72 366.5,1622C 365.167,1622.67 363.833,1623.33 362.5,1624C 354.833,1624.67 347.167,1624.67 339.5,1624C 336.473,1617.27 338.806,1614.1 346.5,1614.5C 346.5,1598.5 346.5,1582.5 346.5,1566.5C 338.557,1567.58 336.223,1564.58 339.5,1557.5 Z M 356.5,1566.5 C 358.484,1566.38 360.15,1567.05 361.5,1568.5C 365.527,1575.72 368.86,1583.22 371.5,1591C 369.027,1598.45 365.86,1605.61 362,1612.5C 360.211,1614.23 358.044,1614.9 355.5,1614.5C 355.183,1598.42 355.516,1582.42 356.5,1566.5 Z"/></g>
<g><path style="opacity:1" fill="#f5f5f5" d="M 982.5,1557.5 C 992.506,1557.33 1002.51,1557.5 1012.5,1558C 1019.46,1561.24 1021.46,1566.24 1018.5,1573C 1015.49,1575.22 1012.99,1574.72 1011,1571.5C 1010.73,1569.9 1010.23,1568.4 1009.5,1567C 1001.84,1566.5 994.174,1566.33 986.5,1566.5C 986.351,1567.55 986.517,1568.55 987,1569.5C 997.24,1581.65 1007.24,1593.98 1017,1606.5C 1022.26,1613.62 1021.1,1619.45 1013.5,1624C 1003.83,1624.67 994.167,1624.67 984.5,1624C 979.052,1621.56 976.552,1617.39 977,1611.5C 978.943,1607.51 981.61,1606.85 985,1609.5C 985.273,1611.1 985.773,1612.6 986.5,1614C 994.5,1614.67 1002.5,1614.67 1010.5,1614C 998.97,1599.77 987.804,1585.27 977,1570.5C 976.114,1564.95 977.947,1560.61 982.5,1557.5 Z"/></g>
<g><path style="opacity:1" fill="#f8f8f8" d="M 1150.5,1557.5 C 1159.97,1554.82 1163.81,1558.15 1162,1567.5C 1150.64,1572.85 1146.8,1569.51 1150.5,1557.5 Z"/></g>
<g><path style="opacity:1" fill="#f5f5f5" d="M 560.5,1559.5 C 564.514,1559.33 568.514,1559.5 572.5,1560C 574.329,1560.27 575.829,1561.11 577,1562.5C 577.5,1580.16 577.667,1597.83 577.5,1615.5C 580.85,1615.33 584.183,1615.5 587.5,1616C 590.353,1619.1 590.02,1621.76 586.5,1624C 577.167,1624.67 567.833,1624.67 558.5,1624C 554.524,1621.28 554.524,1618.62 558.5,1616C 561.817,1615.5 565.15,1615.33 568.5,1615.5C 568.5,1599.83 568.5,1584.17 568.5,1568.5C 564.563,1568.79 560.73,1568.46 557,1567.5C 555.143,1563.54 556.31,1560.88 560.5,1559.5 Z"/></g>
<g><path style="opacity:1" fill="#f5f5f6" d="M 883.5,1562.5 C 885.408,1562.88 886.908,1563.88 888,1565.5C 888.499,1569.49 888.666,1573.49 888.5,1577.5C 894.176,1577.33 899.843,1577.5 905.5,1578C 909.29,1580.5 909.29,1583.17 905.5,1586C 899.843,1586.5 894.176,1586.67 888.5,1586.5C 888.194,1595.55 888.528,1604.55 889.5,1613.5C 890.025,1614.19 890.692,1614.69 891.5,1615C 894.5,1615.67 897.5,1615.67 900.5,1615C 902.394,1613.22 904.061,1611.22 905.5,1609C 911.502,1608.01 913.668,1610.51 912,1616.5C 908.638,1622.96 903.305,1625.63 896,1624.5C 888.416,1625.38 883.082,1622.38 880,1615.5C 879.5,1605.84 879.334,1596.17 879.5,1586.5C 871.939,1587.14 869.939,1584.31 873.5,1578C 875.473,1577.5 877.473,1577.34 879.5,1577.5C 879.334,1573.49 879.501,1569.49 880,1565.5C 881.145,1564.36 882.312,1563.36 883.5,1562.5 Z"/></g>
<g><path style="opacity:1" fill="#f7f7f7" d="M 1252.5,1615.5 C 1252.5,1605.5 1252.5,1595.5 1252.5,1585.5C 1250.5,1585.5 1248.5,1585.5 1246.5,1585.5C 1245.5,1585.59 1244.67,1585.25 1244,1584.5C 1243,1578.67 1245.5,1576.33 1251.5,1577.5C 1251.33,1573.82 1251.5,1570.15 1252,1566.5C 1254.34,1561.97 1257,1561.63 1260,1565.5C 1260.5,1569.49 1260.67,1573.49 1260.5,1577.5C 1266.51,1577.33 1272.51,1577.5 1278.5,1578C 1281.25,1581.01 1280.92,1583.68 1277.5,1586C 1271.84,1586.5 1266.18,1586.67 1260.5,1586.5C 1260.33,1594.84 1260.5,1603.17 1261,1611.5C 1261.25,1612.62 1261.75,1613.62 1262.5,1614.5C 1269.31,1617.19 1274.31,1615.36 1277.5,1609C 1283.5,1608.01 1285.67,1610.51 1284,1616.5C 1280.83,1623 1275.67,1625.67 1268.5,1624.5C 1260.68,1625.6 1255.35,1622.6 1252.5,1615.5 Z"/></g>
<g><path style="opacity:1" fill="#f6f6f6" d="M 403.5,1577.5 C 409.842,1577.33 416.175,1577.5 422.5,1578C 427.359,1580.19 430.859,1583.69 433,1588.5C 433.667,1594.17 433.667,1599.83 433,1605.5C 432.25,1606.13 431.416,1606.63 430.5,1607C 420.839,1607.5 411.172,1607.67 401.5,1607.5C 402.143,1610.99 404.143,1613.49 407.5,1615C 415.5,1615.33 423.5,1615.67 431.5,1616C 434.167,1618.67 434.167,1621.33 431.5,1624C 421.833,1624.67 412.167,1624.67 402.5,1624C 399.948,1621.15 397.115,1618.65 394,1616.5C 392.389,1607.27 392.055,1597.93 393,1588.5C 393.667,1587.17 394.333,1585.83 395,1584.5C 398.023,1582.3 400.856,1579.97 403.5,1577.5 Z M 406.5,1586.5 C 411.628,1586.11 416.628,1586.61 421.5,1588C 424.1,1590.98 425.1,1594.48 424.5,1598.5C 416.833,1598.5 409.167,1598.5 401.5,1598.5C 400.302,1593.12 401.969,1589.12 406.5,1586.5 Z"/></g>
<g><path style="opacity:1" fill="#f4f4f4" d="M 447.5,1577.5 C 450.044,1577.1 452.211,1577.77 454,1579.5C 455.706,1591.59 459.706,1602.93 466,1613.5C 471.611,1602.66 475.611,1591.33 478,1579.5C 480.667,1576.83 483.333,1576.83 486,1579.5C 486.667,1583.5 486.667,1587.5 486,1591.5C 480.962,1602.41 475.795,1613.24 470.5,1624C 467.5,1624.67 464.5,1624.67 461.5,1624C 455.659,1613.49 450.493,1602.65 446,1591.5C 444.966,1586.54 445.466,1581.88 447.5,1577.5 Z"/></g>
<g><path style="opacity:1" fill="#f9f9f9" d="M 537.5,1606.5 C 527.5,1606.5 517.5,1606.5 507.5,1606.5C 507.232,1608.1 507.566,1609.43 508.5,1610.5C 509.673,1612.5 511.34,1614 513.5,1615C 521.5,1615.33 529.5,1615.67 537.5,1616C 540.07,1618.62 540.07,1621.28 537.5,1624C 528.167,1624.67 518.833,1624.67 509.5,1624C 506.37,1621.87 503.537,1619.37 501,1616.5C 499.387,1606.93 499.053,1597.27 500,1587.5C 502.552,1583.28 506.052,1580.11 510.5,1578C 532.885,1574.05 542.385,1583.22 539,1605.5C 538.617,1606.06 538.117,1606.39 537.5,1606.5 Z M 513.5,1586.5 C 519.173,1585.84 524.506,1586.67 529.5,1589C 531.227,1591.9 531.893,1595.07 531.5,1598.5C 523.833,1598.5 516.167,1598.5 508.5,1598.5C 508.335,1595.48 508.502,1592.48 509,1589.5C 510.652,1588.6 512.152,1587.6 513.5,1586.5 Z"/></g>
<g><path style="opacity:1" fill="#f6f7f7" d="M 617.5,1577.5 C 624.257,1577.12 630.924,1577.62 637.5,1579C 641,1581.17 643.833,1584 646,1587.5C 646.667,1596.17 646.667,1604.83 646,1613.5C 639.339,1624.1 629.839,1627.6 617.5,1624C 612.69,1621.52 608.857,1618.02 606,1613.5C 605.333,1604.83 605.333,1596.17 606,1587.5C 608.984,1583.11 612.817,1579.77 617.5,1577.5 Z M 619.5,1586.5 C 623.846,1586.33 628.179,1586.5 632.5,1587C 634.667,1587.83 636.167,1589.33 637,1591.5C 637.667,1597.83 637.667,1604.17 637,1610.5C 632.509,1615.26 627.009,1616.76 620.5,1615C 618.376,1613.88 616.543,1612.38 615,1610.5C 614.333,1604.17 614.333,1597.83 615,1591.5C 616.193,1589.5 617.693,1587.84 619.5,1586.5 Z"/></g>
<g><path style="opacity:1" fill="#f8f8f8" d="M 666.5,1579.5 C 666.238,1580.98 666.571,1582.31 667.5,1583.5C 668.107,1583.38 668.44,1583.04 668.5,1582.5C 673.585,1577.35 679.585,1576.18 686.5,1579C 691.71,1582.18 695.876,1586.34 699,1591.5C 699.167,1595 699.333,1598.5 699.5,1602C 699.601,1606.28 699.101,1610.45 698,1614.5C 693.779,1618.69 689.279,1622.52 684.5,1626C 680.833,1626.67 677.167,1626.67 673.5,1626C 671.382,1624.95 669.716,1623.45 668.5,1621.5C 668.44,1620.96 668.107,1620.62 667.5,1620.5C 666.505,1626.13 666.171,1631.79 666.5,1637.5C 663.833,1637.5 661.167,1637.5 658.5,1637.5C 658.333,1618.16 658.5,1598.83 659,1579.5C 661.621,1576.86 664.121,1576.86 666.5,1579.5 Z M 676.5,1586.5 C 678.989,1586.3 681.323,1586.8 683.5,1588C 690.273,1593.19 692.44,1600.02 690,1608.5C 689.535,1609.93 688.701,1611.1 687.5,1612C 684.926,1614.24 682.092,1616.08 679,1617.5C 668.946,1613.39 665.279,1606.06 668,1595.5C 671.038,1592.63 673.871,1589.63 676.5,1586.5 Z"/></g>
<g><path style="opacity:1" fill="#f6f6f6" d="M 714.5,1577.5 C 717.157,1577.16 719.49,1577.83 721.5,1579.5C 726.019,1576.71 730.352,1577.05 734.5,1580.5C 740.381,1576.18 745.881,1576.51 751,1581.5C 752.663,1594.74 753.33,1608.07 753,1621.5C 750.822,1625.07 748.156,1625.4 745,1622.5C 744.334,1610.84 743.834,1599.17 743.5,1587.5C 740.737,1587.74 738.571,1589.08 737,1591.5C 736.667,1601.83 736.333,1612.17 736,1622.5C 733.333,1625.17 730.667,1625.17 728,1622.5C 727.5,1610.84 727.333,1599.17 727.5,1587.5C 725.097,1587.39 723.264,1588.39 722,1590.5C 721.667,1600.83 721.333,1611.17 721,1621.5C 718.822,1625.07 716.156,1625.4 713,1622.5C 712.333,1608.17 712.333,1593.83 713,1579.5C 713.717,1578.96 714.217,1578.29 714.5,1577.5 Z"/></g>
<g><path style="opacity:1" fill="#f6f6f6" d="M 776.5,1577.5 C 782.509,1577.33 788.509,1577.5 794.5,1578C 798.948,1580.11 802.448,1583.28 805,1587.5C 805.667,1593.5 805.667,1599.5 805,1605.5C 804.25,1606.13 803.416,1606.63 802.5,1607C 792.839,1607.5 783.172,1607.67 773.5,1607.5C 774.143,1610.99 776.143,1613.49 779.5,1615C 787.5,1615.33 795.5,1615.67 803.5,1616C 806.167,1618.67 806.167,1621.33 803.5,1624C 794.167,1624.67 784.833,1624.67 775.5,1624C 766.274,1619.33 762.607,1611.83 764.5,1601.5C 764.502,1596.44 765.002,1591.44 766,1586.5C 769.103,1582.89 772.603,1579.89 776.5,1577.5 Z M 778.5,1586.5 C 783.179,1586.33 787.845,1586.5 792.5,1587C 796.114,1589.94 797.447,1593.78 796.5,1598.5C 788.833,1598.5 781.167,1598.5 773.5,1598.5C 772.475,1593.23 774.142,1589.23 778.5,1586.5 Z"/></g>
<g><path style="opacity:1" fill="#f5f5f5" d="M 820.5,1577.5 C 825.227,1576.73 827.727,1578.73 828,1583.5C 834.868,1577.84 842.702,1576.01 851.5,1578C 853.96,1579.46 856.127,1581.29 858,1583.5C 859.141,1594.79 859.974,1606.13 860.5,1617.5C 860.456,1622.38 858.122,1624.55 853.5,1624C 852.299,1623.1 851.465,1621.93 851,1620.5C 850.558,1609.29 849.892,1598.29 849,1587.5C 845.927,1586.38 842.76,1586.22 839.5,1587C 835.667,1589.5 831.833,1592 828,1594.5C 827.667,1603.83 827.333,1613.17 827,1622.5C 824.333,1625.17 821.667,1625.17 819,1622.5C 818.333,1608.17 818.333,1593.83 819,1579.5C 819.717,1578.96 820.217,1578.29 820.5,1577.5 Z"/></g>
<g><path style="opacity:1" fill="#f6f6f6" d="M 1042.5,1577.5 C 1048.51,1577.33 1054.51,1577.5 1060.5,1578C 1064.95,1580.11 1068.45,1583.28 1071,1587.5C 1071.67,1596.17 1071.67,1604.83 1071,1613.5C 1068.54,1617.99 1065.04,1621.49 1060.5,1624C 1047.9,1627.63 1038.07,1624.13 1031,1613.5C 1030.33,1605.17 1030.33,1596.83 1031,1588.5C 1033.5,1583.35 1037.33,1579.69 1042.5,1577.5 Z M 1044.5,1586.5 C 1048.85,1586.33 1053.18,1586.5 1057.5,1587C 1059.67,1587.83 1061.17,1589.33 1062,1591.5C 1062.67,1597.83 1062.67,1604.17 1062,1610.5C 1057.51,1615.26 1052.01,1616.76 1045.5,1615C 1043.38,1613.88 1041.54,1612.38 1040,1610.5C 1039.33,1604.17 1039.33,1597.83 1040,1591.5C 1041.37,1589.64 1042.87,1587.97 1044.5,1586.5 Z"/></g>
<g><path style="opacity:1" fill="#f5f5f5" d="M 1099.5,1577.5 C 1107.51,1577.33 1115.51,1577.5 1123.5,1578C 1126.4,1581.16 1126.07,1583.82 1122.5,1586C 1115.06,1586.07 1107.73,1586.74 1100.5,1588C 1093.77,1592.83 1091.6,1599.33 1094,1607.5C 1096.2,1610.04 1098.7,1612.21 1101.5,1614C 1108.73,1615.26 1116.06,1615.93 1123.5,1616C 1126.17,1618.67 1126.17,1621.33 1123.5,1624C 1108.33,1628.02 1095.83,1624.18 1086,1612.5C 1084.41,1605.61 1084.08,1598.61 1085,1591.5C 1085.88,1588.9 1087.38,1586.73 1089.5,1585C 1092.73,1582.25 1096.07,1579.75 1099.5,1577.5 Z"/></g>
<g><path style="opacity:1" fill="#f7f7f7" d="M 1143.5,1577.5 C 1149.18,1577.33 1154.84,1577.5 1160.5,1578C 1161,1578.5 1161.5,1579 1162,1579.5C 1162.5,1591.5 1162.67,1603.5 1162.5,1615.5C 1165.85,1615.33 1169.18,1615.5 1172.5,1616C 1175.17,1618.67 1175.17,1621.33 1172.5,1624C 1162.83,1624.67 1153.17,1624.67 1143.5,1624C 1140.83,1621.33 1140.83,1618.67 1143.5,1616C 1146.82,1615.5 1150.15,1615.33 1153.5,1615.5C 1153.5,1605.83 1153.5,1596.17 1153.5,1586.5C 1149.69,1586.84 1146.03,1586.34 1142.5,1585C 1141.08,1582.26 1141.42,1579.76 1143.5,1577.5 Z"/></g>
<g><path style="opacity:1" fill="#f6f6f6" d="M 1202.5,1577.5 C 1208.51,1577.33 1214.51,1577.5 1220.5,1578C 1224.95,1580.11 1228.45,1583.28 1231,1587.5C 1231.67,1593.5 1231.67,1599.5 1231,1605.5C 1230.5,1606 1230,1606.5 1229.5,1607C 1219.51,1607.5 1209.51,1607.67 1199.5,1607.5C 1200.14,1610.99 1202.14,1613.49 1205.5,1615C 1213.5,1615.33 1221.5,1615.67 1229.5,1616C 1232.17,1618.67 1232.17,1621.33 1229.5,1624C 1220.17,1624.67 1210.83,1624.67 1201.5,1624C 1196.41,1621.56 1192.91,1617.72 1191,1612.5C 1190.09,1603.76 1190.42,1595.09 1192,1586.5C 1195.1,1582.89 1198.6,1579.89 1202.5,1577.5 Z M 1204.5,1586.5 C 1209.18,1586.33 1213.85,1586.5 1218.5,1587C 1222.11,1589.94 1223.45,1593.78 1222.5,1598.5C 1214.83,1598.5 1207.17,1598.5 1199.5,1598.5C 1198.47,1593.23 1200.14,1589.23 1204.5,1586.5 Z"/></g>
<g><path style="opacity:1" fill="#f4f4f5" d="M 1316.5,1610.5 C 1316.71,1612.42 1317.38,1612.76 1318.5,1611.5C 1323.88,1600.61 1328.21,1589.44 1331.5,1578C 1337.08,1576.91 1339.41,1579.24 1338.5,1585C 1338.48,1587.93 1337.98,1590.76 1337,1593.5C 1330.21,1608.08 1323.71,1622.75 1317.5,1637.5C 1310.83,1637.5 1304.17,1637.5 1297.5,1637.5C 1297.3,1635.61 1297.96,1634.11 1299.5,1633C 1302.88,1632.82 1306.22,1632.32 1309.5,1631.5C 1310.88,1627.85 1312.55,1624.35 1314.5,1621C 1313.23,1620.69 1312.07,1620.19 1311,1619.5C 1307,1610.83 1303,1602.17 1299,1593.5C 1297.52,1588.92 1297.19,1584.26 1298,1579.5C 1300.67,1576.83 1303.33,1576.83 1306,1579.5C 1306.33,1582.5 1306.67,1585.5 1307,1588.5C 1309.9,1595.97 1313.07,1603.3 1316.5,1610.5 Z"/></g>
<g><path style="opacity:0.433" fill="#babbbc" d="M 666.5,1579.5 C 667.167,1580.5 667.833,1581.5 668.5,1582.5C 668.44,1583.04 668.107,1583.38 667.5,1583.5C 666.571,1582.31 666.238,1580.98 666.5,1579.5 Z"/></g>
<g><path style="opacity:0.209" fill="#afb0b2" d="M 1246.5,1585.5 C 1248.5,1585.5 1250.5,1585.5 1252.5,1585.5C 1252.5,1595.5 1252.5,1605.5 1252.5,1615.5C 1251.51,1606.01 1251.17,1596.35 1251.5,1586.5C 1249.59,1586.78 1247.92,1586.45 1246.5,1585.5 Z"/></g>
<g><path style="opacity:0.341" fill="#afb0b1" d="M 537.5,1606.5 C 528.014,1607.49 518.348,1607.83 508.5,1607.5C 508.5,1608.5 508.5,1609.5 508.5,1610.5C 507.566,1609.43 507.232,1608.1 507.5,1606.5C 517.5,1606.5 527.5,1606.5 537.5,1606.5 Z"/></g>
<g><path style="opacity:0.929" fill="#bfbfc0" d="M 1316.5,1610.5 C 1317.17,1610.83 1317.83,1611.17 1318.5,1611.5C 1317.38,1612.76 1316.71,1612.42 1316.5,1610.5 Z"/></g>
<g><path style="opacity:0.904" fill="#c6c6c7" d="M 668.5,1621.5 C 667.512,1626.64 667.179,1631.97 667.5,1637.5C 667.167,1637.5 666.833,1637.5 666.5,1637.5C 666.171,1631.79 666.505,1626.13 667.5,1620.5C 668.107,1620.62 668.44,1620.96 668.5,1621.5 Z"/></g>
</svg>
