<svg width="398" height="40" viewBox="0 0 398 40" fill="none" xmlns="http://www.w3.org/2000/svg">
<rect x="238.5" y="2.5" width="159" height="37" rx="18.5" fill="#6A1179" fill-opacity="0.91" stroke="#D9D9D9"/>
<path d="M287.88 25.16H282.06L281.06 28H278.68L283.66 14.08H286.3L291.28 28H288.88L287.88 25.16ZM287.24 23.3L284.98 16.84L282.7 23.3H287.24ZM295.725 18.58C296.059 18.02 296.499 17.5867 297.045 17.28C297.605 16.96 298.265 16.8 299.025 16.8V19.16H298.445C297.552 19.16 296.872 19.3867 296.405 19.84C295.952 20.2933 295.725 21.08 295.725 22.2V28H293.445V16.98H295.725V18.58ZM300.361 22.44C300.361 21.3333 300.588 20.3533 301.041 19.5C301.508 18.6467 302.134 17.9867 302.921 17.52C303.721 17.04 304.608 16.8 305.581 16.8C306.301 16.8 307.008 16.96 307.701 17.28C308.408 17.5867 308.968 18 309.381 18.52V13.2H311.681V28H309.381V26.34C309.008 26.8733 308.488 27.3133 307.821 27.66C307.168 28.0067 306.414 28.18 305.561 28.18C304.601 28.18 303.721 27.94 302.921 27.46C302.134 26.9667 301.508 26.2867 301.041 25.42C300.588 24.54 300.361 23.5467 300.361 22.44ZM309.381 22.48C309.381 21.72 309.221 21.06 308.901 20.5C308.594 19.94 308.188 19.5133 307.681 19.22C307.174 18.9267 306.628 18.78 306.041 18.78C305.454 18.78 304.908 18.9267 304.401 19.22C303.894 19.5 303.481 19.92 303.161 20.48C302.854 21.0267 302.701 21.68 302.701 22.44C302.701 23.2 302.854 23.8667 303.161 24.44C303.481 25.0133 303.894 25.4533 304.401 25.76C304.921 26.0533 305.468 26.2 306.041 26.2C306.628 26.2 307.174 26.0533 307.681 25.76C308.188 25.4667 308.594 25.04 308.901 24.48C309.221 23.9067 309.381 23.24 309.381 22.48ZM324.656 16.98V28H322.376V26.7C322.016 27.1533 321.542 27.5133 320.956 27.78C320.382 28.0333 319.769 28.16 319.116 28.16C318.249 28.16 317.469 27.98 316.776 27.62C316.096 27.26 315.556 26.7267 315.156 26.02C314.769 25.3133 314.576 24.46 314.576 23.46V16.98H316.836V23.12C316.836 24.1067 317.082 24.8667 317.576 25.4C318.069 25.92 318.742 26.18 319.596 26.18C320.449 26.18 321.122 25.92 321.616 25.4C322.122 24.8667 322.376 24.1067 322.376 23.12V16.98H324.656ZM328.824 15.52C328.411 15.52 328.064 15.38 327.784 15.1C327.504 14.82 327.364 14.4733 327.364 14.06C327.364 13.6467 327.504 13.3 327.784 13.02C328.064 12.74 328.411 12.6 328.824 12.6C329.224 12.6 329.564 12.74 329.844 13.02C330.124 13.3 330.264 13.6467 330.264 14.06C330.264 14.4733 330.124 14.82 329.844 15.1C329.564 15.38 329.224 15.52 328.824 15.52ZM329.944 16.98V28H327.664V16.98H329.944ZM338.498 16.8C339.364 16.8 340.138 16.98 340.818 17.34C341.511 17.7 342.051 18.2333 342.438 18.94C342.824 19.6467 343.018 20.5 343.018 21.5V28H340.758V21.84C340.758 20.8533 340.511 20.1 340.018 19.58C339.524 19.0467 338.851 18.78 337.998 18.78C337.144 18.78 336.464 19.0467 335.958 19.58C335.464 20.1 335.218 20.8533 335.218 21.84V28H332.938V16.98H335.218V18.24C335.591 17.7867 336.064 17.4333 336.638 17.18C337.224 16.9267 337.844 16.8 338.498 16.8ZM350.706 28.18C349.666 28.18 348.726 27.9467 347.886 27.48C347.046 27 346.386 26.3333 345.906 25.48C345.426 24.6133 345.186 23.6133 345.186 22.48C345.186 21.36 345.432 20.3667 345.926 19.5C346.419 18.6333 347.092 17.9667 347.946 17.5C348.799 17.0333 349.752 16.8 350.806 16.8C351.859 16.8 352.812 17.0333 353.666 17.5C354.519 17.9667 355.192 18.6333 355.686 19.5C356.179 20.3667 356.426 21.36 356.426 22.48C356.426 23.6 356.172 24.5933 355.666 25.46C355.159 26.3267 354.466 27 353.586 27.48C352.719 27.9467 351.759 28.18 350.706 28.18ZM350.706 26.2C351.292 26.2 351.839 26.06 352.346 25.78C352.866 25.5 353.286 25.08 353.606 24.52C353.926 23.96 354.086 23.28 354.086 22.48C354.086 21.68 353.932 21.0067 353.626 20.46C353.319 19.9 352.912 19.48 352.406 19.2C351.899 18.92 351.352 18.78 350.766 18.78C350.179 18.78 349.632 18.92 349.126 19.2C348.632 19.48 348.239 19.9 347.946 20.46C347.652 21.0067 347.506 21.68 347.506 22.48C347.506 23.6667 347.806 24.5867 348.406 25.24C349.019 25.88 349.786 26.2 350.706 26.2Z" fill="white"/>
<rect x="0.5" y="0.5" width="127" height="37" rx="18.5" fill="#6A1179" fill-opacity="0.91" stroke="#D9D9D9"/>
<path d="M34.92 26H32.64L25.78 15.62V26H23.5V12.08H25.78L32.64 22.44V12.08H34.92V26ZM38.8341 26.14C38.4207 26.14 38.0741 26 37.7941 25.72C37.5141 25.44 37.3741 25.0933 37.3741 24.68C37.3741 24.2667 37.5141 23.92 37.7941 23.64C38.0741 23.36 38.4207 23.22 38.8341 23.22C39.2341 23.22 39.5741 23.36 39.8541 23.64C40.1341 23.92 40.2741 24.2667 40.2741 24.68C40.2741 25.0933 40.1341 25.44 39.8541 25.72C39.5741 26 39.2341 26.14 38.8341 26.14ZM45.0183 13.94V18.02H49.8183V19.88H45.0183V24.14H50.4183V26H42.7383V12.08H50.4183V13.94H45.0183ZM54.1466 26.14C53.7332 26.14 53.3866 26 53.1066 25.72C52.8266 25.44 52.6866 25.0933 52.6866 24.68C52.6866 24.2667 52.8266 23.92 53.1066 23.64C53.3866 23.36 53.7332 23.22 54.1466 23.22C54.5466 23.22 54.8866 23.36 55.1666 23.64C55.4466 23.92 55.5866 24.2667 55.5866 24.68C55.5866 25.0933 55.4466 25.44 55.1666 25.72C54.8866 26 54.5466 26.14 54.1466 26.14ZM65.2708 26L62.0708 20.44H60.3308V26H58.0508V12.1H62.8508C63.9174 12.1 64.8174 12.2867 65.5508 12.66C66.2974 13.0333 66.8508 13.5333 67.2108 14.16C67.5841 14.7867 67.7708 15.4867 67.7708 16.26C67.7708 17.1667 67.5041 17.9933 66.9708 18.74C66.4508 19.4733 65.6441 19.9733 64.5508 20.24L67.9908 26H65.2708ZM60.3308 18.62H62.8508C63.7041 18.62 64.3441 18.4067 64.7708 17.98C65.2108 17.5533 65.4308 16.98 65.4308 16.26C65.4308 15.54 65.2174 14.98 64.7908 14.58C64.3641 14.1667 63.7174 13.96 62.8508 13.96H60.3308V18.62ZM71.6075 26.14C71.1942 26.14 70.8475 26 70.5675 25.72C70.2875 25.44 70.1475 25.0933 70.1475 24.68C70.1475 24.2667 70.2875 23.92 70.5675 23.64C70.8475 23.36 71.1942 23.22 71.6075 23.22C72.0075 23.22 72.3475 23.36 72.6275 23.64C72.9075 23.92 73.0475 24.2667 73.0475 24.68C73.0475 25.0933 72.9075 25.44 72.6275 25.72C72.3475 26 72.0075 26.14 71.6075 26.14ZM80.0517 12.1C81.5317 12.1 82.8251 12.3867 83.9317 12.96C85.0517 13.52 85.9117 14.3333 86.5117 15.4C87.1251 16.4533 87.4317 17.6867 87.4317 19.1C87.4317 20.5133 87.1251 21.74 86.5117 22.78C85.9117 23.82 85.0517 24.62 83.9317 25.18C82.8251 25.7267 81.5317 26 80.0517 26H75.5117V12.1H80.0517ZM80.0517 24.14C81.6784 24.14 82.9251 23.7 83.7917 22.82C84.6584 21.94 85.0917 20.7 85.0917 19.1C85.0917 17.4867 84.6584 16.2267 83.7917 15.32C82.9251 14.4133 81.6784 13.96 80.0517 13.96H77.7917V24.14H80.0517ZM90.6114 26.14C90.1981 26.14 89.8514 26 89.5714 25.72C89.2914 25.44 89.1514 25.0933 89.1514 24.68C89.1514 24.2667 89.2914 23.92 89.5714 23.64C89.8514 23.36 90.1981 23.22 90.6114 23.22C91.0114 23.22 91.3514 23.36 91.6314 23.64C91.9114 23.92 92.0514 24.2667 92.0514 24.68C92.0514 25.0933 91.9114 25.44 91.6314 25.72C91.3514 26 91.0114 26.14 90.6114 26.14ZM99.0956 26.14C98.1623 26.14 97.3223 25.98 96.5756 25.66C95.829 25.3267 95.2423 24.86 94.8156 24.26C94.389 23.66 94.1756 22.96 94.1756 22.16H96.6156C96.669 22.76 96.9023 23.2533 97.3156 23.64C97.7423 24.0267 98.3356 24.22 99.0956 24.22C99.8823 24.22 100.496 24.0333 100.936 23.66C101.376 23.2733 101.596 22.78 101.596 22.18C101.596 21.7133 101.456 21.3333 101.176 21.04C100.909 20.7467 100.569 20.52 100.156 20.36C99.7556 20.2 99.1956 20.0267 98.4756 19.84C97.569 19.6 96.829 19.36 96.2556 19.12C95.6956 18.8667 95.2156 18.48 94.8156 17.96C94.4156 17.44 94.2156 16.7467 94.2156 15.88C94.2156 15.08 94.4156 14.38 94.8156 13.78C95.2156 13.18 95.7756 12.72 96.4956 12.4C97.2156 12.08 98.049 11.92 98.9956 11.92C100.342 11.92 101.442 12.26 102.296 12.94C103.162 13.6067 103.642 14.5267 103.736 15.7H101.216C101.176 15.1933 100.936 14.76 100.496 14.4C100.056 14.04 99.4756 13.86 98.7556 13.86C98.1023 13.86 97.569 14.0267 97.1556 14.36C96.7423 14.6933 96.5356 15.1733 96.5356 15.8C96.5356 16.2267 96.6623 16.58 96.9156 16.86C97.1823 17.1267 97.5156 17.34 97.9156 17.5C98.3156 17.66 98.8623 17.8333 99.5556 18.02C100.476 18.2733 101.222 18.5267 101.796 18.78C102.382 19.0333 102.876 19.4267 103.276 19.96C103.689 20.48 103.896 21.18 103.896 22.06C103.896 22.7667 103.702 23.4333 103.316 24.06C102.942 24.6867 102.389 25.1933 101.656 25.58C100.936 25.9533 100.082 26.14 99.0956 26.14Z" fill="white"/>
<rect x="148.5" y="0.5" width="69" height="37" rx="18.5" fill="#6A1179" fill-opacity="0.91" stroke="#D9D9D9"/>
<path d="M181.6 12.1L177.48 26H174.9L171.98 15.48L168.88 26L166.32 26.02L162.38 12.1H164.8L167.68 23.42L170.8 12.1H173.36L176.26 23.36L179.16 12.1H181.6ZM182.72 20.44C182.72 19.3333 182.947 18.3533 183.4 17.5C183.867 16.6467 184.494 15.9867 185.28 15.52C186.08 15.04 186.96 14.8 187.92 14.8C188.787 14.8 189.54 14.9733 190.18 15.32C190.834 15.6533 191.354 16.0733 191.74 16.58V14.98H194.04V26H191.74V24.36C191.354 24.88 190.827 25.3133 190.16 25.66C189.494 26.0067 188.734 26.18 187.88 26.18C186.934 26.18 186.067 25.94 185.28 25.46C184.494 24.9667 183.867 24.2867 183.4 23.42C182.947 22.54 182.72 21.5467 182.72 20.44ZM191.74 20.48C191.74 19.72 191.58 19.06 191.26 18.5C190.954 17.94 190.547 17.5133 190.04 17.22C189.534 16.9267 188.987 16.78 188.4 16.78C187.814 16.78 187.267 16.9267 186.76 17.22C186.254 17.5 185.84 17.92 185.52 18.48C185.214 19.0267 185.06 19.68 185.06 20.44C185.06 21.2 185.214 21.8667 185.52 22.44C185.84 23.0133 186.254 23.4533 186.76 23.76C187.28 24.0533 187.827 24.2 188.4 24.2C188.987 24.2 189.534 24.0533 190.04 23.76C190.547 23.4667 190.954 23.04 191.26 22.48C191.58 21.9067 191.74 21.24 191.74 20.48ZM199.315 16.58C199.648 16.02 200.088 15.5867 200.635 15.28C201.195 14.96 201.855 14.8 202.615 14.8V17.16H202.035C201.142 17.16 200.462 17.3867 199.995 17.84C199.542 18.2933 199.315 19.08 199.315 20.2V26H197.035V14.98H199.315V16.58Z" fill="white"/>
</svg>
