<svg width="383" height="483" viewBox="0 0 383 483" fill="none" xmlns="http://www.w3.org/2000/svg">
<mask id="path-1-inside-1_752_1939" fill="white">
<path fill-rule="evenodd" clip-rule="evenodd" d="M0 473V93L92 0H373C378.523 0 383 4.47715 383 10V473C383 478.523 378.523 483 373 483H9.99999C4.47714 483 0 478.523 0 473Z"/>
</mask>
<path d="M0 93L-2.48822 90.5385L-3.5 91.5613V93H0ZM92 0V-3.5H90.5392L89.5118 -2.46146L92 0ZM-3.5 93V473H3.5V93H-3.5ZM2.48822 95.4615L94.4882 2.46146L89.5118 -2.46146L-2.48822 90.5385L2.48822 95.4615ZM373 -3.5H92V3.5H373V-3.5ZM386.5 10C386.5 2.54416 380.456 -3.5 373 -3.5V3.5C376.59 3.5 379.5 6.41015 379.5 10H386.5ZM386.5 473V10H379.5V473H386.5ZM373 486.5C380.456 486.5 386.5 480.456 386.5 473H379.5C379.5 476.59 376.59 479.5 373 479.5V486.5ZM9.99999 486.5H373V479.5H9.99999V486.5ZM-3.5 473C-3.5 480.456 2.54414 486.5 9.99999 486.5V479.5C6.41014 479.5 3.5 476.59 3.5 473H-3.5Z" fill="url(#paint0_linear_752_1939)" mask="url(#path-1-inside-1_752_1939)"/>
<defs>
<linearGradient id="paint0_linear_752_1939" x1="45.5" y1="54" x2="383" y2="483" gradientUnits="userSpaceOnUse">
<stop stop-color="#F607C2"/>
<stop offset="1" stop-color="#900471" stop-opacity="0.1"/>
</linearGradient>
</defs>
</svg>
