<svg width="19" height="19" viewBox="0 0 19 19" fill="none" xmlns="http://www.w3.org/2000/svg">
<path fill-rule="evenodd" clip-rule="evenodd" d="M16.3328 0.0507812C17.6908 0.0507812 18.7917 1.15167 18.7917 2.50968V15.6238C18.7917 16.9818 17.6908 18.0827 16.3328 18.0827H3.21866C1.86065 18.0827 0.759766 16.9818 0.759766 15.6238V2.50968C0.759766 1.15167 1.86065 0.0507812 3.21866 0.0507812H16.3328ZM16.3328 1.69004C16.7854 1.69004 17.1524 2.05701 17.1524 2.50968V15.6238C17.1524 16.0765 16.7854 16.4434 16.3328 16.4434H12.2346V10.7059H13.9363C14.2891 10.7059 14.6023 10.4802 14.7139 10.1454L15.077 9.05615C15.2097 8.65806 14.9134 8.24701 14.4938 8.24701H12.2346V6.60777C12.2346 6.19795 12.6444 5.78813 13.0542 5.78813H14.6935C15.1462 5.78813 15.5131 5.42117 15.5131 4.9685V4.40624C15.5131 4.14149 15.344 3.90411 15.088 3.83655C14.0136 3.55302 13.0542 3.55302 13.0542 3.55302C11.0052 3.55302 9.77571 4.9685 9.77571 6.19795V8.24701H8.13645C7.68378 8.24701 7.31682 8.61396 7.31682 9.06664V9.88627C7.31682 10.339 7.68377 10.7059 8.13645 10.7059H9.77571V16.4434H3.21866C2.76599 16.4434 2.39903 16.0765 2.39903 15.6238V2.50968C2.39903 2.05701 2.76599 1.69004 3.21866 1.69004H16.3328Z" fill="white"/>
</svg>
